  0
SECTION
  2
HEADER
  9
$ACADVER
  1
AC1024
  9
$ACADMAINTVER
 70
6
  9
$DWGCODEPAGE
  3
ANSI_1252
  9
$LASTSAVEDBY
  1
ezdxf
  9
$INSBASE
 10
0.0
 20
0.0
 30
0.0
  9
$EXTMIN
 10
1e+20
 20
1e+20
 30
1e+20
  9
$EXTMAX
 10
-1e+20
 20
-1e+20
 30
-1e+20
  9
$LIMMIN
 10
0.0
 20
0.0
  9
$LIMMAX
 10
420.0
 20
297.0
  9
$ORTHOMODE
 70
0
  9
$REGENMODE
 70
1
  9
$FILLMODE
 70
1
  9
$QTEXTMODE
 70
0
  9
$MIRRTEXT
 70
1
  9
$LTSCALE
 40
1.0
  9
$ATTMODE
 70
1
  9
$TEXTSIZE
 40
2.5
  9
$TRACEWID
 40
1.0
  9
$TEXTSTYLE
  7
OpenSans
  9
$CLAYER
  8
0
  9
$CELTYPE
  6
ByLayer
  9
$CECOLOR
 62
256
  9
$CELTSCALE
 40
1.0
  9
$DISPSILH
 70
0
  9
$DIMSCALE
 40
1.0
  9
$DIMASZ
 40
0.175
  9
$DIMEXO
 40
0.125
  9
$DIMDLI
 40
3.75
  9
$DIMRND
 40
0.0
  9
$DIMDLE
 40
0.0
  9
$DIMEXE
 40
0.375
  9
$DIMTP
 40
0.0
  9
$DIMTM
 40
0.0
  9
$DIMTXT
 40
0.25
  9
$DIMCEN
 40
2.5
  9
$DIMTSZ
 40
0.0
  9
$DIMTOL
 70
0
  9
$DIMLIM
 70
0
  9
$DIMTIH
 70
0
  9
$DIMTOH
 70
0
  9
$DIMSE1
 70
0
  9
$DIMSE2
 70
0
  9
$DIMTAD
 70
1
  9
$DIMZIN
 70
12
  9
$DIMBLK
  1
ARCHTICK
  9
$DIMASO
 70
1
  9
$DIMSHO
 70
1
  9
$DIMPOST
  1

  9
$DIMAPOST
  1

  9
$DIMALT
 70
0
  9
$DIMALTD
 70
3
  9
$DIMALTF
 40
0.03937007874
  9
$DIMLFAC
 40
100.0
  9
$DIMTOFL
 70
1
  9
$DIMTVP
 40
0.0
  9
$DIMTIX
 70
0
  9
$DIMSOXD
 70
0
  9
$DIMSAH
 70
0
  9
$DIMBLK1
  1

  9
$DIMBLK2
  1

  9
$DIMSTYLE
  2
EZDXF
  9
$DIMCLRD
 70
0
  9
$DIMCLRE
 70
0
  9
$DIMCLRT
 70
0
  9
$DIMTFAC
 40
0.5
  9
$DIMGAP
 40
0.1
  9
$DIMJUST
 70
0
  9
$DIMSD1
 70
0
  9
$DIMSD2
 70
0
  9
$DIMTOLJ
 70
0
  9
$DIMTZIN
 70
8
  9
$DIMALTZ
 70
0
  9
$DIMALTTZ
 70
0
  9
$DIMUPT
 70
1
  9
$DIMDEC
 70
2
  9
$DIMTDEC
 70
2
  9
$DIMALTU
 70
2
  9
$DIMALTTD
 70
3
  9
$DIMTXSTY
  7
OpenSansCondensed-Light
  9
$DIMAUNIT
 70
0
  9
$DIMADEC
 70
2
  9
$DIMALTRND
 40
0.0
  9
$DIMAZIN
 70
3
  9
$DIMDSEP
 70
46
  9
$DIMATFIT
 70
3
  9
$DIMFRAC
 70
0
  9
$DIMLDRBLK
  1

  9
$DIMLUNIT
 70
2
  9
$DIMLWD
 70
-2
  9
$DIMLWE
 70
-2
  9
$DIMTMOVE
 70
2
  9
$DIMFXL
 40
1.0
  9
$DIMFXLON
 70
0
  9
$DIMJOGANG
 40
0.785398163397
  9
$DIMTFILL
 70
0
  9
$DIMTFILLCLR
 70
0
  9
$DIMARCSYM
 70
0
  9
$DIMLTYPE
  6

  9
$DIMLTEX1
  6

  9
$DIMLTEX2
  6

  9
$DIMTXTDIRECTION
 70
0
  9
$LUNITS
 70
2
  9
$LUPREC
 70
4
  9
$SKETCHINC
 40
1.0
  9
$FILLETRAD
 40
10.0
  9
$AUNITS
 70
0
  9
$AUPREC
 70
2
  9
$MENU
  1
.
  9
$ELEVATION
 40
0.0
  9
$PELEVATION
 40
0.0
  9
$THICKNESS
 40
0.0
  9
$LIMCHECK
 70
0
  9
$CHAMFERA
 40
0.0
  9
$CHAMFERB
 40
0.0
  9
$CHAMFERC
 40
0.0
  9
$CHAMFERD
 40
0.0
  9
$SKPOLY
 70
0
  9
$TDCREATE
 40
2461297.521875
  9
$TDUCREATE
 40
2458532.153996898
  9
$TDUPDATE
 40
2461297.521875
  9
$TDUUPDATE
 40
2458532.1544311
  9
$TDINDWG
 40
0.0
  9
$TDUSRTIMER
 40
0.0
  9
$USRTIMER
 70
1
  9
$ANGBASE
 50
0.0
  9
$ANGDIR
 70
0
  9
$PDMODE
 70
0
  9
$PDSIZE
 40
0.0
  9
$PLINEWID
 40
0.0
  9
$SPLFRAME
 70
0
  9
$SPLINETYPE
 70
6
  9
$SPLINESEGS
 70
8
  9
$HANDSEED
  5
F7
  9
$SURFTAB1
 70
6
  9
$SURFTAB2
 70
6
  9
$SURFTYPE
 70
6
  9
$SURFU
 70
6
  9
$SURFV
 70
6
  9
$UCSBASE
  2

  9
$UCSNAME
  2

  9
$UCSORG
 10
0.0
 20
0.0
 30
0.0
  9
$UCSXDIR
 10
1.0
 20
0.0
 30
0.0
  9
$UCSYDIR
 10
0.0
 20
1.0
 30
0.0
  9
$UCSORTHOREF
  2

  9
$UCSORTHOVIEW
 70
0
  9
$UCSORGTOP
 10
0.0
 20
0.0
 30
0.0
  9
$UCSORGBOTTOM
 10
0.0
 20
0.0
 30
0.0
  9
$UCSORGLEFT
 10
0.0
 20
0.0
 30
0.0
  9
$UCSORGRIGHT
 10
0.0
 20
0.0
 30
0.0
  9
$UCSORGFRONT
 10
0.0
 20
0.0
 30
0.0
  9
$UCSORGBACK
 10
0.0
 20
0.0
 30
0.0
  9
$PUCSBASE
  2

  9
$PUCSNAME
  2

  9
$PUCSORG
 10
0.0
 20
0.0
 30
0.0
  9
$PUCSXDIR
 10
1.0
 20
0.0
 30
0.0
  9
$PUCSYDIR
 10
0.0
 20
1.0
 30
0.0
  9
$PUCSORTHOREF
  2

  9
$PUCSORTHOVIEW
 70
0
  9
$PUCSORGTOP
 10
0.0
 20
0.0
 30
0.0
  9
$PUCSORGBOTTOM
 10
0.0
 20
0.0
 30
0.0
  9
$PUCSORGLEFT
 10
0.0
 20
0.0
 30
0.0
  9
$PUCSORGRIGHT
 10
0.0
 20
0.0
 30
0.0
  9
$PUCSORGFRONT
 10
0.0
 20
0.0
 30
0.0
  9
$PUCSORGBACK
 10
0.0
 20
0.0
 30
0.0
  9
$USERI1
 70
0
  9
$USERI2
 70
0
  9
$USERI3
 70
0
  9
$USERI4
 70
0
  9
$USERI5
 70
0
  9
$USERR1
 40
0.0
  9
$USERR2
 40
0.0
  9
$USERR3
 40
0.0
  9
$USERR4
 40
0.0
  9
$USERR5
 40
0.0
  9
$WORLDVIEW
 70
1
  9
$SHADEDGE
 70
3
  9
$SHADEDIF
 70
70
  9
$TILEMODE
 70
1
  9
$MAXACTVP
 70
64
  9
$PINSBASE
 10
0.0
 20
0.0
 30
0.0
  9
$PLIMCHECK
 70
0
  9
$PEXTMIN
 10
1e+20
 20
1e+20
 30
1e+20
  9
$PEXTMAX
 10
-1e+20
 20
-1e+20
 30
-1e+20
  9
$PLIMMIN
 10
0.0
 20
0.0
  9
$PLIMMAX
 10
420.0
 20
297.0
  9
$UNITMODE
 70
0
  9
$VISRETAIN
 70
1
  9
$PLINEGEN
 70
0
  9
$PSLTSCALE
 70
1
  9
$TREEDEPTH
 70
3020
  9
$CMLSTYLE
  2
Standard
  9
$CMLJUST
 70
0
  9
$CMLSCALE
 40
20.0
  9
$PROXYGRAPHICS
 70
1
  9
$MEASUREMENT
 70
1
  9
$CELWEIGHT
370
-1
  9
$ENDCAPS
280
0
  9
$JOINSTYLE
280
0
  9
$LWDISPLAY
290
0
  9
$INSUNITS
 70
0
  9
$HYPERLINKBASE
  1

  9
$STYLESHEET
  1

  9
$XEDIT
290
1
  9
$CEPSNTYPE
380
0
  9
$PSTYLEMODE
290
1
  9
$FINGERPRINTGUID
  2
{EA22EE32-D57E-432F-B12A-689E6A5A2B96}
  9
$VERSIONGUID
  2
{DCEC5F18-47EF-4F80-96AB-941BFDE8F862}
  9
$EXTNAMES
290
1
  9
$PSVPSCALE
 40
0.0
  9
$OLESTARTUP
290
0
  9
$SORTENTS
280
127
  9
$INDEXCTL
280
0
  9
$HIDETEXT
280
1
  9
$XCLIPFRAME
280
1
  9
$HALOGAP
280
0
  9
$OBSCOLOR
 70
257
  9
$OBSLTYPE
280
0
  9
$INTERSECTIONDISPLAY
280
0
  9
$INTERSECTIONCOLOR
 70
257
  9
$DIMASSOC
280
2
  9
$PROJECTNAME
  1

  9
$CAMERADISPLAY
290
0
  9
$LENSLENGTH
 40
50.0
  9
$CAMERAHEIGHT
 40
0.0
  9
$STEPSPERSEC
 40
24.0
  9
$STEPSIZE
 40
100.0
  9
$3DDWFPREC
 40
2.0
  9
$PSOLWIDTH
 40
0.005
  9
$PSOLHEIGHT
 40
0.08
  9
$LOFTANG1
 40
1.570796326795
  9
$LOFTANG2
 40
1.570796326795
  9
$LOFTMAG1
 40
0.0
  9
$LOFTMAG2
 40
0.0
  9
$LOFTPARAM
 70
7
  9
$LOFTNORMALS
280
1
  9
$LATITUDE
 40
37.795
  9
$LONGITUDE
 40
-122.394
  9
$NORTHDIRECTION
 40
0.0
  9
$TIMEZONE
 70
-8000
  9
$LIGHTGLYPHDISPLAY
280
1
  9
$TILEMODELIGHTSYNCH
280
1
  9
$CMATERIAL
347
20
  9
$SOLIDHIST
280
0
  9
$SHOWHIST
280
1
  9
$DWFFRAME
280
2
  9
$DGNFRAME
280
2
  9
$REALWORLDSCALE
290
1
  9
$INTERFERECOLOR
 62
256
  9
$CSHADOW
280
0
  9
$SHADOWPLANELOCATION
 40
0.0
  0
ENDSEC
  0
SECTION
  2
CLASSES
  0
CLASS
  1
ACDBDICTIONARYWDFLT
  2
AcDbDictionaryWithDefault
  3
ObjectDBX Classes
 90
0
 91
0
280
0
281
0
  0
CLASS
  1
SUN
  2
AcDbSun
  3
SCENEOE
 90
1153
 91
0
280
0
281
0
  0
CLASS
  1
VISUALSTYLE
  2
AcDbVisualStyle
  3
ObjectDBX Classes
 90
4095
 91
0
280
0
281
0
  0
CLASS
  1
MATERIAL
  2
AcDbMaterial
  3
ObjectDBX Classes
 90
1153
 91
0
280
0
281
0
  0
CLASS
  1
SCALE
  2
AcDbScale
  3
ObjectDBX Classes
 90
1153
 91
0
280
0
281
0
  0
CLASS
  1
TABLESTYLE
  2
AcDbTableStyle
  3
ObjectDBX Classes
 90
4095
 91
0
280
0
281
0
  0
CLASS
  1
MLEADERSTYLE
  2
AcDbMLeaderStyle
  3
ACDB_MLEADERSTYLE_CLASS
 90
4095
 91
0
280
0
281
0
  0
CLASS
  1
DICTIONARYVAR
  2
AcDbDictionaryVar
  3
ObjectDBX Classes
 90
0
 91
0
280
0
281
0
  0
CLASS
  1
CELLSTYLEMAP
  2
AcDbCellStyleMap
  3
ObjectDBX Classes
 90
1152
 91
0
280
0
281
0
  0
CLASS
  1
MENTALRAYRENDERSETTINGS
  2
AcDbMentalRayRenderSettings
  3
SCENEOE
 90
1024
 91
0
280
0
281
0
  0
CLASS
  1
ACDBDETAILVIEWSTYLE
  2
AcDbDetailViewStyle
  3
ObjectDBX Classes
 90
1025
 91
0
280
0
281
0
  0
CLASS
  1
ACDBSECTIONVIEWSTYLE
  2
AcDbSectionViewStyle
  3
ObjectDBX Classes
 90
1025
 91
0
280
0
281
0
  0
CLASS
  1
RASTERVARIABLES
  2
AcDbRasterVariables
  3
ISM
 90
0
 91
0
280
0
281
0
  0
CLASS
  1
LAYOUT
  2
AcDbLayout
  3
ObjectDBX Classes
 90
0
 91
0
280
0
281
0
  0
CLASS
  1
ACDBPLACEHOLDER
  2
AcDbPlaceHolder
  3
ObjectDBX Classes
 90
0
 91
0
280
0
281
0
  0
ENDSEC
  0
SECTION
  2
TABLES
  0
TABLE
  2
VPORT
  5
8
330
0
100
AcDbSymbolTable
 70
1
  0
VPORT
  5
23
330
8
100
AcDbSymbolTableRecord
100
AcDbViewportTableRecord
  2
*Active
 70
0
 10
0.0
 20
0.0
 11
1.0
 21
1.0
 12
0.0
 22
0.0
 13
0.0
 23
0.0
 14
0.5
 24
0.5
 15
0.5
 25
0.5
 16
0.0
 26
0.0
 36
1.0
 17
0.0
 27
0.0
 37
0.0
 40
1000.0
 41
1.34
 42
50.0
 43
0.0
 44
0.0
 50
0.0
 51
0.0
 71
0
 72
1000
 73
1
 74
3
 75
0
 76
0
 77
0
 78
0
281
0
 65
0
146
0.0
  0
ENDTAB
  0
TABLE
  2
LTYPE
  5
2
330
0
100
AcDbSymbolTable
 70
21
  0
LTYPE
  5
24
330
2
100
AcDbSymbolTableRecord
100
AcDbLinetypeTableRecord
  2
ByBlock
 70
0
  3

 72
65
 73
0
 40
0.0
  0
LTYPE
  5
25
330
2
100
AcDbSymbolTableRecord
100
AcDbLinetypeTableRecord
  2
ByLayer
 70
0
  3

 72
65
 73
0
 40
0.0
  0
LTYPE
  5
26
330
2
100
AcDbSymbolTableRecord
100
AcDbLinetypeTableRecord
  2
Continuous
 70
0
  3

 72
65
 73
0
 40
0.0
  0
LTYPE
  5
2F
330
2
100
AcDbSymbolTableRecord
100
AcDbLinetypeTableRecord
  2
CENTER
 70
0
  3
Center ____ _ ____ _ ____ _ ____ _ ____ _ ____
 72
65
 73
4
 40
5.08
 49
3.175
 74
0
 49
-0.635
 74
0
 49
0.635
 74
0
 49
-0.635
 74
0
  0
LTYPE
  5
30
330
2
100
AcDbSymbolTableRecord
100
AcDbLinetypeTableRecord
  2
CENTERX2
 70
0
  3
Center (2x) ________  __  ________  __  ________
 72
65
 73
4
 40
8.89
 49
6.35
 74
0
 49
-0.635
 74
0
 49
1.27
 74
0
 49
-0.635
 74
0
  0
LTYPE
  5
31
330
2
100
AcDbSymbolTableRecord
100
AcDbLinetypeTableRecord
  2
CENTER2
 70
0
  3
Center (.5x) ____ _ ____ _ ____ _ ____ _ ____
 72
65
 73
4
 40
2.54
 49
1.587
 74
0
 49
-0.318
 74
0
 49
0.318
 74
0
 49
-0.318
 74
0
  0
LTYPE
  5
32
330
2
100
AcDbSymbolTableRecord
100
AcDbLinetypeTableRecord
  2
DASHED
 70
0
  3
Dashed __ __ __ __ __ __ __ __ __ __ __ __ __ _
 72
65
 73
2
 40
1.524
 49
1.27
 74
0
 49
-0.254
 74
0
  0
LTYPE
  5
33
330
2
100
AcDbSymbolTableRecord
100
AcDbLinetypeTableRecord
  2
DASHEDX2
 70
0
  3
Dashed (2x) ____  ____  ____  ____  ____  ____
 72
65
 73
2
 40
3.048
 49
2.54
 74
0
 49
-0.508
 74
0
  0
LTYPE
  5
34
330
2
100
AcDbSymbolTableRecord
100
AcDbLinetypeTableRecord
  2
DASHED2
 70
0
  3
Dashed (.5x) _ _ _ _ _ _ _ _ _ _ _ _ _ _
 72
65
 73
2
 40
0.762
 49
0.635
 74
0
 49
-0.127
 74
0
  0
LTYPE
  5
35
330
2
100
AcDbSymbolTableRecord
100
AcDbLinetypeTableRecord
  2
PHANTOM
 70
0
  3
Phantom ______  __  __  ______  __  __  ______
 72
65
 73
6
 40
6.35
 49
3.175
 74
0
 49
-0.635
 74
0
 49
0.635
 74
0
 49
-0.635
 74
0
 49
0.635
 74
0
 49
-0.635
 74
0
  0
LTYPE
  5
36
330
2
100
AcDbSymbolTableRecord
100
AcDbLinetypeTableRecord
  2
PHANTOMX2
 70
0
  3
Phantom (2x)____________    ____    ____    ____________
 72
65
 73
6
 40
10.795
 49
6.35
 74
0
 49
-0.635
 74
0
 49
1.27
 74
0
 49
-0.635
 74
0
 49
1.27
 74
0
 49
-0.635
 74
0
  0
LTYPE
  5
37
330
2
100
AcDbSymbolTableRecord
100
AcDbLinetypeTableRecord
  2
PHANTOM2
 70
0
  3
Phantom (.5x) ___ _ _ ___ _ _ ___ _ _ ___ _ _ ___
 72
65
 73
6
 40
3.175
 49
1.587
 74
0
 49
-0.318
 74
0
 49
0.318
 74
0
 49
-0.318
 74
0
 49
0.318
 74
0
 49
-0.318
 74
0
  0
LTYPE
  5
38
330
2
100
AcDbSymbolTableRecord
100
AcDbLinetypeTableRecord
  2
DASHDOT
 70
0
  3
Dash dot __ . __ . __ . __ . __ . __ . __ . __
 72
65
 73
4
 40
3.556
 49
2.54
 74
0
 49
-0.508
 74
0
 49
0.0
 74
0
 49
-0.508
 74
0
  0
LTYPE
  5
39
330
2
100
AcDbSymbolTableRecord
100
AcDbLinetypeTableRecord
  2
DASHDOTX2
 70
0
  3
Dash dot (2x) ____  .  ____  .  ____  .  ____
 72
65
 73
4
 40
6.096
 49
5.08
 74
0
 49
-0.508
 74
0
 49
0.0
 74
0
 49
-0.508
 74
0
  0
LTYPE
  5
3A
330
2
100
AcDbSymbolTableRecord
100
AcDbLinetypeTableRecord
  2
DASHDOT2
 70
0
  3
Dash dot (.5x) _ . _ . _ . _ . _ . _ . _ . _
 72
65
 73
4
 40
1.778
 49
1.27
 74
0
 49
-0.254
 74
0
 49
0.0
 74
0
 49
-0.254
 74
0
  0
LTYPE
  5
3B
330
2
100
AcDbSymbolTableRecord
100
AcDbLinetypeTableRecord
  2
DOT
 70
0
  3
Dot .  .  .  .  .  .  .  .  .  .  .  .  .  .  .  .
 72
65
 73
2
 40
0.508
 49
0.0
 74
0
 49
-0.508
 74
0
  0
LTYPE
  5
3C
330
2
100
AcDbSymbolTableRecord
100
AcDbLinetypeTableRecord
  2
DOTX2
 70
0
  3
Dot (2x) .    .    .    .    .    .    .    . 
 72
65
 73
2
 40
1.016
 49
0.0
 74
0
 49
-1.016
 74
0
  0
LTYPE
  5
3D
330
2
100
AcDbSymbolTableRecord
100
AcDbLinetypeTableRecord
  2
DOT2
 70
0
  3
Dot (.5) . . . . . . . . . . . . . . . . . . . 
 72
65
 73
2
 40
0.254
 49
0.0
 74
0
 49
-0.254
 74
0
  0
LTYPE
  5
3E
330
2
100
AcDbSymbolTableRecord
100
AcDbLinetypeTableRecord
  2
DIVIDE
 70
0
  3
Divide __ . . __ . . __ . . __ . . __ . . __
 72
65
 73
6
 40
4.064
 49
2.54
 74
0
 49
-0.508
 74
0
 49
0.0
 74
0
 49
-0.508
 74
0
 49
0.0
 74
0
 49
-0.508
 74
0
  0
LTYPE
  5
3F
330
2
100
AcDbSymbolTableRecord
100
AcDbLinetypeTableRecord
  2
DIVIDEX2
 70
0
  3
Divide (2x) ____  . .  ____  . .  ____  . .  ____
 72
65
 73
6
 40
6.604
 49
5.08
 74
0
 49
-0.508
 74
0
 49
0.0
 74
0
 49
-0.508
 74
0
 49
0.0
 74
0
 49
-0.508
 74
0
  0
LTYPE
  5
40
330
2
100
AcDbSymbolTableRecord
100
AcDbLinetypeTableRecord
  2
DIVIDE2
 70
0
  3
Divide(.5x) _ . _ . _ . _ . _ . _ . _ . _
 72
65
 73
6
 40
2.032
 49
1.27
 74
0
 49
-0.254
 74
0
 49
0.0
 74
0
 49
-0.254
 74
0
 49
0.0
 74
0
 49
-0.254
 74
0
  0
ENDTAB
  0
TABLE
  2
LAYER
  5
1
330
0
100
AcDbSymbolTable
 70
8
  0
LAYER
  5
27
330
1
100
AcDbSymbolTableRecord
100
AcDbLayerTableRecord
  2
0
 70
0
 62
7
  6
Continuous
370
-3
390
13
347
21
  0
LAYER
  5
28
330
1
100
AcDbSymbolTableRecord
100
AcDbLayerTableRecord
  2
Defpoints
 70
0
 62
7
  6
Continuous
290
0
370
-3
390
13
347
21
  0
LAYER
  5
8A
330
1
100
AcDbSymbolTableRecord
100
AcDbLayerTableRecord
  2
A-FURN
 70
0
 62
7
  6
Continuous
370
-3
390
13
347
21
  0
LAYER
  5
8B
330
1
100
AcDbSymbolTableRecord
100
AcDbLayerTableRecord
  2
A-ANNO-DIMS
 70
0
 62
7
  6
Continuous
370
-3
390
13
347
21
  0
LAYER
  5
8C
330
1
100
AcDbSymbolTableRecord
100
AcDbLayerTableRecord
  2
ANNO
 70
0
 62
7
  6
Continuous
370
-3
390
13
347
21
  0
LAYER
  5
8D
330
1
100
AcDbSymbolTableRecord
100
AcDbLayerTableRecord
  2
WALL
 70
0
 62
7
  6
Continuous
370
-3
390
13
347
21
  0
LAYER
  5
8E
330
1
100
AcDbSymbolTableRecord
100
AcDbLayerTableRecord
  2
DOOR
 70
0
 62
7
  6
Continuous
370
-3
390
13
347
21
  0
LAYER
  5
8F
330
1
100
AcDbSymbolTableRecord
100
AcDbLayerTableRecord
  2
WINDOW
 70
0
 62
7
  6
Continuous
370
-3
390
13
347
21
  0
ENDTAB
  0
TABLE
  2
STYLE
  5
5
330
0
100
AcDbSymbolTable
 70
26
  0
STYLE
  5
29
330
5
100
AcDbSymbolTableRecord
100
AcDbTextStyleTableRecord
  2
Standard
 70
0
 40
0.0
 41
1.0
 50
0.0
 71
0
 42
2.5
  3
txt
  4

  0
STYLE
  5
41
330
5
100
AcDbSymbolTableRecord
100
AcDbTextStyleTableRecord
  2
OpenSans-Light
 70
0
 40
0.0
 41
1.0
 50
0.0
 71
0
 42
2.5
  3
OpenSans-Light.ttf
  4

  0
STYLE
  5
42
330
5
100
AcDbSymbolTableRecord
100
AcDbTextStyleTableRecord
  2
OpenSans-Light-Italic
 70
0
 40
0.0
 41
1.0
 50
0.0
 71
0
 42
2.5
  3
OpenSans-LightItalic.ttf
  4

  0
STYLE
  5
43
330
5
100
AcDbSymbolTableRecord
100
AcDbTextStyleTableRecord
  2
OpenSans
 70
0
 40
0.0
 41
1.0
 50
0.0
 71
0
 42
2.5
  3
OpenSans-Regular.ttf
  4

  0
STYLE
  5
44
330
5
100
AcDbSymbolTableRecord
100
AcDbTextStyleTableRecord
  2
OpenSans-Italic
 70
0
 40
0.0
 41
1.0
 50
0.0
 71
0
 42
2.5
  3
OpenSans-Italic.ttf
  4

  0
STYLE
  5
45
330
5
100
AcDbSymbolTableRecord
100
AcDbTextStyleTableRecord
  2
OpenSans-SemiBold
 70
0
 40
0.0
 41
1.0
 50
0.0
 71
0
 42
2.5
  3
OpenSans-SemiBold.ttf
  4

  0
STYLE
  5
46
330
5
100
AcDbSymbolTableRecord
100
AcDbTextStyleTableRecord
  2
OpenSans-SemiBoldItalic
 70
0
 40
0.0
 41
1.0
 50
0.0
 71
0
 42
2.5
  3
OpenSans-SemiBoldItalic.ttf
  4

  0
STYLE
  5
47
330
5
100
AcDbSymbolTableRecord
100
AcDbTextStyleTableRecord
  2
OpenSans-Bold
 70
0
 40
0.0
 41
1.0
 50
0.0
 71
0
 42
2.5
  3
OpenSans-Bold.ttf
  4

  0
STYLE
  5
48
330
5
100
AcDbSymbolTableRecord
100
AcDbTextStyleTableRecord
  2
OpenSans-BoldItalic
 70
0
 40
0.0
 41
1.0
 50
0.0
 71
0
 42
2.5
  3
OpenSans-BoldItalic.ttf
  4

  0
STYLE
  5
49
330
5
100
AcDbSymbolTableRecord
100
AcDbTextStyleTableRecord
  2
OpenSans-ExtraBold
 70
0
 40
0.0
 41
1.0
 50
0.0
 71
0
 42
2.5
  3
OpenSans-ExtraBold.ttf
  4

  0
STYLE
  5
4A
330
5
100
AcDbSymbolTableRecord
100
AcDbTextStyleTableRecord
  2
OpenSans-ExtraBoldItalic
 70
0
 40
0.0
 41
1.0
 50
0.0
 71
0
 42
2.5
  3
OpenSans-ExtraBoldItalic.ttf
  4

  0
STYLE
  5
4B
330
5
100
AcDbSymbolTableRecord
100
AcDbTextStyleTableRecord
  2
OpenSansCondensed-Bold
 70
0
 40
0.0
 41
1.0
 50
0.0
 71
0
 42
2.5
  3
OpenSansCondensed-Bold.ttf
  4

  0
STYLE
  5
4C
330
5
100
AcDbSymbolTableRecord
100
AcDbTextStyleTableRecord
  2
OpenSansCondensed-Light
 70
0
 40
0.0
 41
1.0
 50
0.0
 71
0
 42
2.5
  3
OpenSansCondensed-Light.ttf
  4

  0
STYLE
  5
4D
330
5
100
AcDbSymbolTableRecord
100
AcDbTextStyleTableRecord
  2
OpenSansCondensed-Italic
 70
0
 40
0.0
 41
1.0
 50
0.0
 71
0
 42
2.5
  3
OpenSansCondensed-LightItalic.ttf
  4

  0
STYLE
  5
4E
330
5
100
AcDbSymbolTableRecord
100
AcDbTextStyleTableRecord
  2
LiberationSans
 70
0
 40
0.0
 41
1.0
 50
0.0
 71
0
 42
2.5
  3
LiberationSans-Regular.ttf
  4

  0
STYLE
  5
4F
330
5
100
AcDbSymbolTableRecord
100
AcDbTextStyleTableRecord
  2
LiberationSans-Bold
 70
0
 40
0.0
 41
1.0
 50
0.0
 71
0
 42
2.5
  3
LiberationSans-Bold.ttf
  4

  0
STYLE
  5
50
330
5
100
AcDbSymbolTableRecord
100
AcDbTextStyleTableRecord
  2
LiberationSans-BoldItalic
 70
0
 40
0.0
 41
1.0
 50
0.0
 71
0
 42
2.5
  3
LiberationSans-BoldItalic.ttf
  4

  0
STYLE
  5
51
330
5
100
AcDbSymbolTableRecord
100
AcDbTextStyleTableRecord
  2
LiberationSans-Italic
 70
0
 40
0.0
 41
1.0
 50
0.0
 71
0
 42
2.5
  3
LiberationSans-Italic.ttf
  4

  0
STYLE
  5
52
330
5
100
AcDbSymbolTableRecord
100
AcDbTextStyleTableRecord
  2
LiberationSerif
 70
0
 40
0.0
 41
1.0
 50
0.0
 71
0
 42
2.5
  3
LiberationSerif-Regular.ttf
  4

  0
STYLE
  5
53
330
5
100
AcDbSymbolTableRecord
100
AcDbTextStyleTableRecord
  2
LiberationSerif-Bold
 70
0
 40
0.0
 41
1.0
 50
0.0
 71
0
 42
2.5
  3
LiberationSerif-Bold.ttf
  4

  0
STYLE
  5
54
330
5
100
AcDbSymbolTableRecord
100
AcDbTextStyleTableRecord
  2
LiberationSerif-BoldItalic
 70
0
 40
0.0
 41
1.0
 50
0.0
 71
0
 42
2.5
  3
LiberationSerif-BoldItalic.ttf
  4

  0
STYLE
  5
55
330
5
100
AcDbSymbolTableRecord
100
AcDbTextStyleTableRecord
  2
LiberationSerif-Italic
 70
0
 40
0.0
 41
1.0
 50
0.0
 71
0
 42
2.5
  3
LiberationSerif-Italic.ttf
  4

  0
STYLE
  5
56
330
5
100
AcDbSymbolTableRecord
100
AcDbTextStyleTableRecord
  2
LiberationMono
 70
0
 40
0.0
 41
1.0
 50
0.0
 71
0
 42
2.5
  3
LiberationMono-Regular.ttf
  4

  0
STYLE
  5
57
330
5
100
AcDbSymbolTableRecord
100
AcDbTextStyleTableRecord
  2
LiberationMono-Bold
 70
0
 40
0.0
 41
1.0
 50
0.0
 71
0
 42
2.5
  3
LiberationMono-Bold.ttf
  4

  0
STYLE
  5
58
330
5
100
AcDbSymbolTableRecord
100
AcDbTextStyleTableRecord
  2
LiberationMono-BoldItalic
 70
0
 40
0.0
 41
1.0
 50
0.0
 71
0
 42
2.5
  3
LiberationMono-BoldItalic.ttf
  4

  0
STYLE
  5
59
330
5
100
AcDbSymbolTableRecord
100
AcDbTextStyleTableRecord
  2
LiberationMono-Italic
 70
0
 40
0.0
 41
1.0
 50
0.0
 71
0
 42
2.5
  3
LiberationMono-Italic.ttf
  4

  0
ENDTAB
  0
TABLE
  2
VIEW
  5
7
330
0
100
AcDbSymbolTable
 70
0
  0
ENDTAB
  0
TABLE
  2
UCS
  5
6
330
0
100
AcDbSymbolTable
 70
0
  0
ENDTAB
  0
TABLE
  2
APPID
  5
3
330
0
100
AcDbSymbolTable
 70
3
  0
APPID
  5
2A
330
3
100
AcDbSymbolTableRecord
100
AcDbRegAppTableRecord
  2
ACAD
 70
0
  0
APPID
  5
F4
330
3
100
AcDbSymbolTableRecord
100
AcDbRegAppTableRecord
  2
HATCHBACKGROUNDCOLOR
 70
0
  0
APPID
  5
F5
330
3
100
AcDbSymbolTableRecord
100
AcDbRegAppTableRecord
  2
EZDXF
 70
0
  0
ENDTAB
  0
TABLE
  2
DIMSTYLE
  5
4
330
0
100
AcDbSymbolTable
 70
12
100
AcDbDimStyleTable
  0
DIMSTYLE
105
2B
330
4
100
AcDbSymbolTableRecord
100
AcDbDimStyleTableRecord
  2
Standard
 70
0
 40
1.0
 41
2.5
 42
0.625
 43
3.75
 44
1.25
 45
0.0
 46
0.0
 47
0.0
 48
0.0
 49
2.5
140
2.5
141
2.5
142
0.0
143
0.03937007874
144
1.0
145
0.0
146
1.0
147
0.625
148
0.0
 69
0
 70
0
 71
0
 72
0
 73
0
 74
0
 75
0
 76
0
 77
1
 78
8
 79
3
170
0
171
3
172
1
173
0
174
0
175
0
176
0
177
0
178
0
179
2
271
2
272
2
273
2
274
3
275
0
276
0
277
2
278
44
279
0
280
0
281
0
282
0
283
0
284
8
285
0
286
0
288
0
289
3
290
0
371
-2
372
-2
  0
DIMSTYLE
105
73
330
4
100
AcDbSymbolTableRecord
100
AcDbDimStyleTableRecord
  2
EZDXF
 70
0
 40
1.0
 41
0.175
 42
0.125
 43
3.75
 44
0.375
 45
0.0
 46
0.0
 47
0.0
 48
0.0
 49
2.5
140
0.25
141
2.5
142
0.0
143
0.03937007874
144
100.0
145
0.0
146
0.5
147
0.1
148
0.0
 69
0
 70
0
 71
0
 72
0
 73
0
 74
0
 75
0
 76
0
 77
1
 78
12
 79
3
170
0
171
3
172
1
173
0
174
0
175
0
176
0
177
0
178
0
179
2
271
2
272
2
273
2
274
3
275
0
276
0
277
2
278
46
279
2
280
0
281
0
282
0
283
0
284
8
285
0
286
0
288
1
289
3
290
0
340
4C
342
74
371
-2
372
-2
  0
DIMSTYLE
105
7C
330
4
100
AcDbSymbolTableRecord
100
AcDbDimStyleTableRecord
  2
EZ_M_100_H25_CM
 70
0
 40
1.0
 41
0.25
 42
0.125
 43
3.75
 44
0.375
 45
0.0
 46
0.0
 47
0.0
 48
0.0
 49
2.5
140
0.25
141
2.5
142
0.125
143
0.03937007874
144
100.0
145
0.0
146
0.5
147
0.1
148
0.0
 69
0
 70
0
 71
0
 72
0
 73
0
 74
0
 75
0
 76
0
 77
1
 78
12
 79
3
170
0
171
3
172
1
173
0
174
0
175
0
176
0
177
0
178
0
179
2
271
2
272
2
273
2
274
3
275
0
276
0
277
2
278
46
279
2
280
0
281
0
282
0
283
0
284
8
285
0
286
0
288
1
289
3
290
0
340
4C
371
-2
372
-2
  0
DIMSTYLE
105
7D
330
4
100
AcDbSymbolTableRecord
100
AcDbDimStyleTableRecord
  2
EZ_M_50_H25_CM
 70
0
 40
1.0
 41
0.125
 42
0.0625
 43
3.75
 44
0.1875
 45
0.0
 46
0.0
 47
0.0
 48
0.0
 49
2.5
140
0.125
141
2.5
142
0.0625
143
0.03937007874
144
100.0
145
0.0
146
0.5
147
0.05
148
0.0
 69
0
 70
0
 71
0
 72
0
 73
0
 74
0
 75
0
 76
0
 77
1
 78
12
 79
3
170
0
171
3
172
1
173
0
174
0
175
0
176
0
177
0
178
0
179
2
271
2
272
2
273
2
274
3
275
0
276
0
277
2
278
46
279
2
280
0
281
0
282
0
283
0
284
8
285
0
286
0
288
1
289
3
290
0
340
4C
371
-2
372
-2
  0
DIMSTYLE
105
7E
330
4
100
AcDbSymbolTableRecord
100
AcDbDimStyleTableRecord
  2
EZ_M_25_H25_CM
 70
0
 40
1.0
 41
0.0625
 42
0.03125
 43
3.75
 44
0.09375
 45
0.0
 46
0.0
 47
0.0
 48
0.0
 49
2.5
140
0.0625
141
2.5
142
0.03125
143
0.03937007874
144
100.0
145
0.0
146
0.5
147
0.025
148
0.0
 69
0
 70
0
 71
0
 72
0
 73
0
 74
0
 75
0
 76
0
 77
1
 78
12
 79
3
170
0
171
3
172
1
173
0
174
0
175
0
176
0
177
0
178
0
179
2
271
2
272
2
273
2
274
3
275
0
276
0
277
2
278
46
279
2
280
0
281
0
282
0
283
0
284
8
285
0
286
0
288
1
289
3
290
0
340
4C
371
-2
372
-2
  0
DIMSTYLE
105
7F
330
4
100
AcDbSymbolTableRecord
100
AcDbDimStyleTableRecord
  2
EZ_M_20_H25_CM
 70
0
 40
1.0
 41
0.05
 42
0.025
 43
3.75
 44
0.07500000000000001
 45
0.0
 46
0.0
 47
0.0
 48
0.0
 49
2.5
140
0.05
141
2.5
142
0.025
143
0.03937007874
144
100.0
145
0.0
146
0.5
147
0.020000000000000004
148
0.0
 69
0
 70
0
 71
0
 72
0
 73
0
 74
0
 75
0
 76
0
 77
1
 78
12
 79
3
170
0
171
3
172
1
173
0
174
0
175
0
176
0
177
0
178
0
179
2
271
2
272
2
273
2
274
3
275
0
276
0
277
2
278
46
279
2
280
0
281
0
282
0
283
0
284
8
285
0
286
0
288
1
289
3
290
0
340
4C
371
-2
372
-2
  0
DIMSTYLE
105
80
330
4
100
AcDbSymbolTableRecord
100
AcDbDimStyleTableRecord
  2
EZ_M_10_H25_CM
 70
0
 40
1.0
 41
0.025
 42
0.0125
 43
3.75
 44
0.037500000000000006
 45
0.0
 46
0.0
 47
0.0
 48
0.0
 49
2.5
140
0.025
141
2.5
142
0.0125
143
0.03937007874
144
100.0
145
0.0
146
0.5
147
0.010000000000000002
148
0.0
 69
0
 70
0
 71
0
 72
0
 73
0
 74
0
 75
0
 76
0
 77
1
 78
12
 79
3
170
0
171
3
172
1
173
0
174
0
175
0
176
0
177
0
178
0
179
2
271
2
272
2
273
2
274
3
275
0
276
0
277
2
278
46
279
2
280
0
281
0
282
0
283
0
284
8
285
0
286
0
288
1
289
3
290
0
340
4C
371
-2
372
-2
  0
DIMSTYLE
105
81
330
4
100
AcDbSymbolTableRecord
100
AcDbDimStyleTableRecord
  2
EZ_M_5_H25_CM
 70
0
 40
1.0
 41
0.0125
 42
0.00625
 43
3.75
 44
0.018750000000000003
 45
0.0
 46
0.0
 47
0.0
 48
0.0
 49
2.5
140
0.0125
141
2.5
142
0.00625
143
0.03937007874
144
100.0
145
0.0
146
0.5
147
0.005000000000000001
148
0.0
 69
0
 70
0
 71
0
 72
0
 73
0
 74
0
 75
0
 76
0
 77
1
 78
12
 79
3
170
0
171
3
172
1
173
0
174
0
175
0
176
0
177
0
178
0
179
2
271
2
272
2
273
2
274
3
275
0
276
0
277
2
278
46
279
2
280
0
281
0
282
0
283
0
284
8
285
0
286
0
288
1
289
3
290
0
340
4C
371
-2
372
-2
  0
DIMSTYLE
105
82
330
4
100
AcDbSymbolTableRecord
100
AcDbDimStyleTableRecord
  2
EZ_M_1_H25_CM
 70
0
 40
1.0
 41
0.0025
 42
0.00125
 43
3.75
 44
0.00375
 45
0.0
 46
0.0
 47
0.0
 48
0.0
 49
2.5
140
0.0025
141
2.5
142
0.00125
143
0.03937007874
144
100.0
145
0.0
146
0.5
147
0.001
148
0.0
 69
0
 70
0
 71
0
 72
0
 73
0
 74
0
 75
0
 76
0
 77
1
 78
12
 79
3
170
0
171
3
172
1
173
0
174
0
175
0
176
0
177
0
178
0
179
2
271
2
272
2
273
2
274
3
275
0
276
0
277
2
278
46
279
2
280
0
281
0
282
0
283
0
284
8
285
0
286
0
288
1
289
3
290
0
340
4C
371
-2
372
-2
  0
DIMSTYLE
105
83
330
4
100
AcDbSymbolTableRecord
100
AcDbDimStyleTableRecord
  2
EZ_RADIUS
 70
0
 40
1.0
 41
0.25
 42
0.125
 43
3.75
 44
0.375
 45
0.0
 46
0.0
 47
0.0
 48
0.0
 49
2.5
140
0.25
141
0.0
142
0.0
143
0.03937007874
144
100.0
145
0.0
146
0.5
147
0.1
148
0.0
 69
0
 70
0
 71
0
 72
0
 73
0
 74
0
 75
0
 76
0
 77
1
 78
12
 79
3
170
0
171
3
172
0
173
0
174
0
175
0
176
0
177
0
178
0
179
2
271
2
272
2
273
2
274
3
275
0
276
0
277
2
278
46
279
1
280
0
281
0
282
0
283
0
284
8
285
0
286
0
288
1
289
3
290
0
340
4C
342
84
371
-2
372
-2
  0
DIMSTYLE
105
88
330
4
100
AcDbSymbolTableRecord
100
AcDbDimStyleTableRecord
  2
EZ_RADIUS_INSIDE
 70
0
 40
1.0
 41
0.25
 42
0.125
 43
3.75
 44
0.375
 45
0.0
 46
0.0
 47
0.0
 48
0.0
 49
2.5
140
0.25
141
0.0
142
0.0
143
0.03937007874
144
100.0
145
0.0
146
0.5
147
0.1
148
0.0
 69
0
 70
0
 71
0
 72
0
 73
0
 74
0
 75
0
 76
0
 77
0
 78
12
 79
3
170
0
171
3
172
0
173
0
174
1
175
0
176
0
177
0
178
0
179
2
271
2
272
2
273
2
274
3
275
0
276
0
277
2
278
46
279
0
280
0
281
0
282
0
283
0
284
8
285
0
286
0
288
1
289
0
290
0
340
4C
342
84
371
-2
372
-2
  0
DIMSTYLE
105
89
330
4
100
AcDbSymbolTableRecord
100
AcDbDimStyleTableRecord
  2
EZ_CURVED
 70
0
 40
1.0
 41
0.25
 42
0.125
 43
3.75
 44
0.375
 45
0.0
 46
0.0
 47
0.0
 48
0.0
 49
2.5
140
0.25
141
2.5
142
0.0
143
0.03937007874
144
100.0
145
0.0
146
0.5
147
0.1
148
0.0
 69
0
 70
0
 71
0
 72
0
 73
0
 74
0
 75
0
 76
0
 77
1
 78
12
 79
2
 90
2
170
0
171
3
172
1
173
0
174
0
175
0
176
0
177
0
178
0
179
2
271
2
272
2
273
2
274
3
275
0
276
0
277
2
278
46
279
2
280
0
281
0
282
0
283
0
284
8
285
0
286
0
288
1
289
3
290
0
340
4C
371
-2
372
-2
  0
ENDTAB
  0
TABLE
  2
BLOCK_RECORD
  5
9
330
0
100
AcDbSymbolTable
 70
7
  0
BLOCK_RECORD
  5
17
330
9
100
AcDbSymbolTableRecord
100
AcDbBlockTableRecord
  2
*Model_Space
340
1A
 70
0
280
1
281
0
  0
BLOCK_RECORD
  5
1B
330
9
100
AcDbSymbolTableRecord
100
AcDbBlockTableRecord
  2
*Paper_Space
340
1E
 70
0
280
1
281
0
  0
BLOCK_RECORD
  5
74
330
9
100
AcDbSymbolTableRecord
100
AcDbBlockTableRecord
  2
_ARCHTICK
340
0
 70
0
280
1
281
0
  0
BLOCK_RECORD
  5
78
330
9
100
AcDbSymbolTableRecord
100
AcDbBlockTableRecord
  2
_CLOSEDFILLED
340
0
 70
0
280
1
281
0
  0
BLOCK_RECORD
  5
84
330
9
100
AcDbSymbolTableRecord
100
AcDbBlockTableRecord
  2
_CLOSEDBLANK
340
0
 70
0
280
1
281
0
  0
BLOCK_RECORD
  5
D5
330
9
100
AcDbSymbolTableRecord
100
AcDbBlockTableRecord
  2
*D1
340
0
 70
0
280
1
281
0
  0
BLOCK_RECORD
  5
E4
330
9
100
AcDbSymbolTableRecord
100
AcDbBlockTableRecord
  2
*D2
340
0
 70
0
280
1
281
0
  0
ENDTAB
  0
ENDSEC
  0
SECTION
  2
BLOCKS
  0
BLOCK
  5
18
330
17
100
AcDbEntity
  8
0
100
AcDbBlockBegin
  2
*Model_Space
 70
0
 10
0.0
 20
0.0
 30
0.0
  3
*Model_Space
  1

  0
ENDBLK
  5
19
330
17
100
AcDbEntity
  8
0
100
AcDbBlockEnd
  0
BLOCK
  5
1C
330
1B
100
AcDbEntity
  8
0
100
AcDbBlockBegin
  2
*Paper_Space
 70
0
 10
0.0
 20
0.0
 30
0.0
  3
*Paper_Space
  1

  0
ENDBLK
  5
1D
330
1B
100
AcDbEntity
  8
0
100
AcDbBlockEnd
  0
BLOCK
  5
75
330
74
100
AcDbEntity
  8
0
100
AcDbBlockBegin
  2
_ARCHTICK
 70
0
 10
0.0
 20
0.0
 30
0.0
  3
_ARCHTICK
  1

  0
LWPOLYLINE
  5
77
330
74
100
AcDbEntity
  8
0
  6
BYBLOCK
 62
0
100
AcDbPolyline
 90
2
 70
0
 43
0.15
 10
-0.5
 20
-0.5
 10
0.5
 20
0.5
  0
ENDBLK
  5
76
330
74
100
AcDbEntity
  8
0
100
AcDbBlockEnd
  0
BLOCK
  5
79
330
78
100
AcDbEntity
  8
0
100
AcDbBlockBegin
  2
_CLOSEDFILLED
 70
0
 10
0.0
 20
0.0
 30
0.0
  3
_CLOSEDFILLED
  1

  0
SOLID
  5
7B
330
78
100
AcDbEntity
  8
0
  6
BYBLOCK
 62
0
100
AcDbTrace
 10
-1.0
 20
0.16439898372402537
 30
0.0
 11
0.0
 21
0.0
 31
0.0
 12
-1.0
 22
-0.16439898372402537
 32
0.0
 13
-1.0
 23
-0.16439898372402537
 33
0.0
  0
ENDBLK
  5
7A
330
78
100
AcDbEntity
  8
0
100
AcDbBlockEnd
  0
BLOCK
  5
85
330
84
100
AcDbEntity
  8
0
100
AcDbBlockBegin
  2
_CLOSEDBLANK
 70
0
 10
0.0
 20
0.0
 30
0.0
  3
_CLOSEDBLANK
  1

  0
LWPOLYLINE
  5
87
330
84
100
AcDbEntity
  8
0
  6
BYBLOCK
 62
0
100
AcDbPolyline
 90
3
 70
1
 10
-1.0
 20
0.16439898372402537
 10
0.0
 20
0.0
 10
-1.0
 20
-0.16439898372402537
  0
ENDBLK
  5
86
330
84
100
AcDbEntity
  8
0
100
AcDbBlockEnd
  0
BLOCK
  5
D6
330
D5
100
AcDbEntity
  8
0
100
AcDbBlockBegin
  2
*D1
 70
1
 10
0.0
 20
0.0
 30
0.0
  3
*D1
  1

  0
LINE
  5
D8
330
D5
100
AcDbEntity
  8
0
100
AcDbLine
 10
-6.760188498299809
 20
108.7140348226269
 30
0.0
 11
-6.760188498299809
 21
69.09395608246942
 31
0.0
  0
LINE
  5
D9
330
D5
100
AcDbEntity
  8
0
100
AcDbLine
 10
625.3174360927322
 20
108.7140348226269
 30
0.0
 11
625.3174360927322
 21
69.09395608246942
 31
0.0
  0
INSERT
  5
DA
330
D5
100
AcDbEntity
  8
A-ANNO-DIMS
100
AcDbBlockReference
  2
_ARCHTICK
 10
-6.760188498299809
 20
69.46895608246942
 30
0.0
 41
0.175
 42
0.175
 50
180.0
  0
INSERT
  5
DC
330
D5
100
AcDbEntity
  8
A-ANNO-DIMS
100
AcDbBlockReference
  2
_ARCHTICK
 10
625.3174360927322
 20
69.46895608246942
 30
0.0
 41
0.175
 42
0.175
  0
LINE
  5
DE
330
D5
100
AcDbEntity
  8
0
100
AcDbLine
 10
-6.760188498299809
 20
69.46895608246942
 30
0.0
 11
625.3174360927322
 21
69.46895608246942
 31
0.0
  0
MTEXT
  5
DF
330
D5
100
AcDbEntity
  8
A-ANNO-DIMS
100
AcDbMText
 10
309.27862379721626
 20
69.69395608246941
 30
0.0
 40
0.25
 71
5
  1
63207.76
  7
OpenSansCondensed-Light
  0
POINT
  5
E0
330
D5
100
AcDbEntity
  8
Defpoints
100
AcDbPoint
 10
-6.760188498299809
 20
69.46895608246942
 30
0.0
  0
POINT
  5
E1
330
D5
100
AcDbEntity
  8
Defpoints
100
AcDbPoint
 10
-6.760188498299809
 20
108.8390348226269
 30
0.0
  0
POINT
  5
E2
330
D5
100
AcDbEntity
  8
Defpoints
100
AcDbPoint
 10
625.3174360927322
 20
108.8390348226269
 30
0.0
  0
ENDBLK
  5
D7
330
D5
100
AcDbEntity
  8
0
100
AcDbBlockEnd
  0
BLOCK
  5
E5
330
E4
100
AcDbEntity
  8
0
100
AcDbBlockBegin
  2
*D2
 70
1
 10
0.0
 20
0.0
 30
0.0
  3
*D2
  1

  0
LINE
  5
E7
330
E4
100
AcDbEntity
  8
0
100
AcDbLine
 10
-6.885188498299809
 20
108.8390348226269
 30
0.0
 11
-46.505267238457286
 21
108.8390348226269
 31
0.0
  0
LINE
  5
E8
330
E4
100
AcDbEntity
  8
0
100
AcDbLine
 10
-6.885188498299809
 20
509.7182127718054
 30
0.0
 11
-46.505267238457286
 21
509.7182127718054
 31
0.0
  0
INSERT
  5
E9
330
E4
100
AcDbEntity
  8
A-ANNO-DIMS
100
AcDbBlockReference
  2
_ARCHTICK
 10
-46.130267238457286
 20
108.8390348226269
 30
0.0
 41
0.175
 42
0.175
 50
270.0
  0
INSERT
  5
EB
330
E4
100
AcDbEntity
  8
A-ANNO-DIMS
100
AcDbBlockReference
  2
_ARCHTICK
 10
-46.130267238457286
 20
509.7182127718054
 30
0.0
 41
0.175
 42
0.175
 50
90.0
  0
LINE
  5
ED
330
E4
100
AcDbEntity
  8
0
100
AcDbLine
 10
-46.130267238457286
 20
108.8390348226269
 30
0.0
 11
-46.130267238457286
 21
509.7182127718054
 31
0.0
  0
MTEXT
  5
EE
330
E4
100
AcDbEntity
  8
A-ANNO-DIMS
100
AcDbMText
 10
-46.35526723845729
 20
309.27862379721614
 30
0.0
 40
0.25
 71
5
  1
40087.92
  7
OpenSansCondensed-Light
 50
90.0
  0
POINT
  5
EF
330
E4
100
AcDbEntity
  8
Defpoints
100
AcDbPoint
 10
-46.130267238457286
 20
108.8390348226269
 30
0.0
  0
POINT
  5
F0
330
E4
100
AcDbEntity
  8
Defpoints
100
AcDbPoint
 10
-6.760188498299809
 20
108.8390348226269
 30
0.0
  0
POINT
  5
F1
330
E4
100
AcDbEntity
  8
Defpoints
100
AcDbPoint
 10
-6.760188498299809
 20
509.7182127718054
 30
0.0
  0
ENDBLK
  5
E6
330
E4
100
AcDbEntity
  8
0
100
AcDbBlockEnd
  0
ENDSEC
  0
SECTION
  2
ENTITIES
  0
LWPOLYLINE
  5
90
330
17
100
AcDbEntity
  8
WALL
100
AcDbPolyline
 90
10
 70
1
 10
625.3174360927322
 20
110.19107252228686
 10
611.1210402463025
 20
110.19107252228686
 10
611.1210402463025
 20
118.30329872024662
 10
617.2052098947725
 20
118.30329872024662
 10
617.2052098947725
 20
456.31272363523703
 10
569.3768762693013
 20
456.31272363523703
 10
569.3768762693013
 20
464.42494983319676
 10
617.2052098947725
 20
464.42494983319676
 10
617.2052098947725
 20
465.7769875328568
 10
625.3174360927322
 20
465.7769875328568
  0
LWPOLYLINE
  5
91
330
17
100
AcDbEntity
  8
WALL
100
AcDbPolyline
 90
14
 70
1
 10
324.4890479183908
 20
118.30329872024662
 10
324.4890479183908
 20
116.95126102058668
 10
329.2211798672006
 20
116.95126102058668
 10
329.2211798672006
 20
118.30329872024662
 10
357.61397156005984
 20
118.30329872024662
 10
357.61397156005984
 20
175.08888210596504
 10
365.7261977580196
 20
175.08888210596504
 10
365.7261977580196
 20
118.30329872024662
 10
565.1517584578639
 20
118.30329872024662
 10
565.1517584578639
 20
110.19107252228686
 10
337.3334060651604
 20
110.19107252228686
 10
337.3334060651604
 20
108.8390348226269
 10
316.376821720431
 20
108.8390348226269
 10
316.376821720431
 20
118.30329872024662
  0
LWPOLYLINE
  5
92
330
17
100
AcDbEntity
  8
WALL
100
AcDbPolyline
 90
18
 70
1
 10
501.6059865738457
 20
465.7769875328568
 10
501.6059865738457
 20
464.42494983319676
 10
531.1818112539074
 20
464.42494983319676
 10
531.1818112539074
 20
456.31272363523703
 10
485.3815341779262
 20
456.31272363523703
 10
485.3815341779262
 20
310.96867092179116
 10
319.75691596958086
 20
310.96867092179116
 10
319.75691596958086
 20
329.8971987170306
 10
327.8691421675407
 20
329.8971987170306
 10
327.8691421675407
 20
319.0808971197509
 10
477.2693079799664
 20
319.0808971197509
 10
477.2693079799664
 20
500.25394887418577
 10
459.69281788438695
 20
500.25394887418577
 10
459.69281788438695
 20
508.3661750721455
 10
485.3815341779262
 20
508.3661750721455
 10
485.3815341779262
 20
488.08560957724615
 10
486.7335718775862
 20
488.08560957724615
 10
486.7335718775862
 20
465.7769875328568
  0
LWPOLYLINE
  5
93
330
17
100
AcDbEntity
  8
WALL
100
AcDbPolyline
 90
8
 70
1
 10
308.9406143723012
 20
500.25394887418577
 10
308.9406143723012
 20
508.3661750721455
 10
374.5144428058093
 20
508.3661750721455
 10
374.5144428058093
 20
500.25394887418577
 10
327.8691421675407
 20
500.25394887418577
 10
327.8691421675407
 20
369.7823108569995
 10
319.75691596958086
 20
369.7823108569995
 10
319.75691596958086
 20
500.25394887418577
  0
LWPOLYLINE
  5
94
330
17
100
AcDbEntity
  8
WALL
100
AcDbPolyline
 90
24
 70
1
 10
242.0147482391331
 20
110.19107252228686
 10
225.11427699338364
 20
110.19107252228686
 10
225.11427699338364
 20
118.30329872024662
 10
232.5504843415134
 20
118.30329872024662
 10
232.5504843415134
 20
148.72414696259577
 10
248.09891788760294
 20
148.72414696259577
 10
248.09891788760294
 20
260.94327603437256
 10
186.58120255307472
 20
260.94327603437256
 10
186.58120255307472
 20
256.2111440855627
 10
178.46897635511493
 20
256.2111440855627
 10
178.46897635511493
 20
269.05550223233234
 10
365.7261977580196
 20
269.05550223233234
 10
365.7261977580196
 20
212.94593769644396
 10
357.61397156005984
 20
212.94593769644396
 10
357.61397156005984
 20
260.94327603437256
 10
256.2111440855627
 20
260.94327603437256
 10
256.2111440855627
 20
139.935901914806
 10
270.4075399319923
 20
139.935901914806
 10
270.4075399319923
 20
126.4155249182064
 10
262.2953137340325
 20
126.4155249182064
 10
262.2953137340325
 20
118.97931757007663
 10
260.94327603437256
 20
118.97931757007663
 10
260.94327603437256
 20
130.47163801718628
 10
242.0147482391331
 20
130.47163801718628
  0
LWPOLYLINE
  5
95
330
17
100
AcDbEntity
  8
WALL
100
AcDbPolyline
 90
4
 70
1
 10
246.746880187943
 20
138.58386421514606
 10
246.746880187943
 20
139.25988306497604
 10
242.0147482391331
 20
139.25988306497604
 10
242.0147482391331
 20
138.58386421514606
  0
LWPOLYLINE
  5
96
330
17
100
AcDbEntity
  8
WALL
100
AcDbPolyline
 90
44
 70
1
 10
282.57587922893197
 20
367.09143895084026
 10
282.57587922893197
 20
367.09143895084026
 10
274.4636530309722
 20
367.09143895084026
 10
274.4636530309722
 20
381.27463130410916
 10
256.2111440855627
 20
381.27463130410916
 10
256.2111440855627
 20
379.92259360444916
 10
248.09891788760294
 20
379.92259360444916
 10
248.09891788760294
 20
381.27463130410916
 10
234.57854089100334
 20
381.27463130410916
 10
234.57854089100334
 20
319.0808971197509
 10
248.09891788760294
 20
319.0808971197509
 10
248.09891788760294
 20
320.4329348194109
 10
256.2111440855627
 20
320.4329348194109
 10
256.2111440855627
 20
319.0808971197509
 10
274.4636530309722
 20
319.0808971197509
 10
274.4636530309722
 20
333.26408947301974
 10
282.57587922893197
 20
333.26408947301974
 10
282.57587922893197
 20
333.26408947301974
 10
282.57587922893197
 20
319.0808971197509
 10
283.9279169285919
 20
319.0808971197509
 10
283.9279169285919
 20
310.96867092179116
 10
225.11427699338364
 20
310.96867092179116
 10
225.11427699338364
 20
319.0808971197509
 10
226.46631469304356
 20
319.0808971197509
 10
226.46631469304356
 20
381.27463130410916
 10
228.4943712425335
 20
381.27463130410916
 10
228.4943712425335
 20
389.38685750206895
 10
248.09891788760294
 20
389.38685750206895
 10
248.09891788760294
 20
456.31272363523703
 10
228.4943712425335
 20
456.31272363523703
 10
228.4943712425335
 20
500.25394887418577
 10
225.11427699338364
 20
500.25394887418577
 10
225.11427699338364
 20
508.3661750721455
 10
237.95863514015326
 20
508.3661750721455
 10
237.95863514015326
 20
509.7182127718054
 10
246.746880187943
 20
509.7182127718054
 10
246.746880187943
 20
508.3661750721455
 10
279.871803829612
 20
508.3661750721455
 10
279.871803829612
 20
500.25394887418577
 10
256.2111440855627
 20
500.25394887418577
 10
256.2111440855627
 20
389.38685750206895
 10
283.9279169285919
 20
389.38685750206895
 10
283.9279169285919
 20
381.27463130410916
 10
282.57587922893197
 20
381.27463130410916
  0
LWPOLYLINE
  5
97
330
17
100
AcDbEntity
  8
WALL
100
AcDbPolyline
 90
4
 70
1
 10
246.746880187943
 20
465.7769875328568
 10
246.746880187943
 20
501.6059865738457
 10
237.95863514015326
 20
501.6059865738457
 10
237.95863514015326
 20
465.7769875328568
  0
LWPOLYLINE
  5
98
330
17
100
AcDbEntity
  8
WALL
100
AcDbPolyline
 90
8
 70
1
 10
149.40016581242577
 20
500.25394887418577
 10
149.40016581242577
 20
508.3661750721455
 10
196.04546645069445
 20
508.3661750721455
 10
196.04546645069445
 20
500.25394887418577
 10
190.63731565205458
 20
500.25394887418577
 10
190.63731565205458
 20
381.27463130410916
 10
182.5250894540948
 20
381.27463130410916
 10
182.5250894540948
 20
500.25394887418577
  0
LWPOLYLINE
  5
99
330
17
100
AcDbEntity
  8
WALL
100
AcDbPolyline
 90
8
 70
1
 10
156.83637316055552
 20
110.19107252228686
 10
156.83637316055552
 20
118.30329872024662
 10
178.46897635511493
 20
118.30329872024662
 10
178.46897635511493
 20
221.0581638944037
 10
186.58120255307472
 20
221.0581638944037
 10
186.58120255307472
 20
118.30329872024662
 10
196.04546645069445
 20
118.30329872024662
 10
196.04546645069445
 20
110.19107252228686
  0
LWPOLYLINE
  5
9A
330
17
100
AcDbEntity
  8
WALL
100
AcDbPolyline
 90
8
 70
1
 10
29.068810542689175
 20
250.80299328692286
 10
20.956584344729404
 20
250.80299328692286
 10
20.956584344729404
 20
367.0782354576795
 10
29.068810542689175
 20
367.0782354576795
 10
29.068810542689175
 20
319.0808971197509
 10
186.58120255307472
 20
319.0808971197509
 10
186.58120255307472
 20
310.96867092179116
 10
29.068810542689175
 20
310.96867092179116
  0
LWPOLYLINE
  5
9B
330
17
100
AcDbEntity
  8
WALL
100
AcDbPolyline
 90
8
 70
1
 10
73.01003578163792
 20
118.30329872024662
 10
73.01003578163792
 20
110.19107252228686
 10
-6.760188498299808
 20
110.19107252228686
 10
-6.760188498299808
 20
195.36944760086445
 10
29.068810542689175
 20
195.36944760086445
 10
29.068810542689175
 20
187.25722140290466
 10
1.3520376996599615
 20
187.25722140290466
 10
1.3520376996599615
 20
118.30329872024662
  0
LWPOLYLINE
  5
9C
330
17
100
AcDbEntity
  8
WALL
100
AcDbPolyline
 90
8
 70
1
 10
29.068810542689175
 20
429.2719696420378
 10
29.068810542689175
 20
421.159743444078
 10
-6.760188498299808
 20
421.159743444078
 10
-6.760188498299808
 20
508.3661750721455
 10
65.57382843350813
 20
508.3661750721455
 10
65.57382843350813
 20
500.25394887418577
 10
1.3520376996599615
 20
500.25394887418577
 10
1.3520376996599615
 20
429.2719696420378
  0
LWPOLYLINE
  5
9D
330
17
100
AcDbEntity
  8
DOOR
100
AcDbPolyline
 90
4
 70
1
 10
327.8691421675407
 20
329.8971987170306
 10
327.8691421675407
 20
369.7823108569995
 10
319.75691596958086
 20
369.7823108569995
 10
319.75691596958086
 20
329.8971987170306
  0
ARC
  5
9E
330
17
100
AcDbEntity
  8
DOOR
100
AcDbCircle
 10
323.8130290685608
 20
329.8971987170306
 30
0.0
 40
39.88511213996889
100
AcDbArc
 50
90.0
 51
180.0
  0
LINE
  5
9F
330
17
100
AcDbEntity
  8
DOOR
100
AcDbLine
 10
323.8130290685608
 20
329.8971987170306
 30
0.0
 11
283.9279169285919
 21
329.8971987170306
 31
0.0
  0
LWPOLYLINE
  5
A0
330
17
100
AcDbEntity
  8
DOOR
100
AcDbPolyline
 90
4
 70
1
 10
283.92791692859197
 20
381.27463130410916
 10
319.75691596958086
 20
381.27463130410916
 10
319.75691596958086
 20
389.38685750206884
 10
283.92791692859197
 20
389.38685750206884
  0
ARC
  5
A1
330
17
100
AcDbEntity
  8
DOOR
100
AcDbCircle
 10
283.92791692859197
 20
385.330744403089
 30
0.0
 40
35.828999040988926
100
AcDbArc
 50
0.0
 51
90.0
  0
LINE
  5
A2
330
17
100
AcDbEntity
  8
DOOR
100
AcDbLine
 10
283.92791692859197
 20
385.330744403089
 30
0.0
 11
283.92791692859197
 21
421.1597434440779
 31
0.0
  0
LWPOLYLINE
  5
A3
330
17
100
AcDbEntity
  8
DOOR
100
AcDbPolyline
 90
4
 70
1
 10
190.63731565205458
 20
381.27463130410916
 10
228.49437124253348
 20
381.27463130410916
 10
228.49437124253348
 20
389.386857502069
 10
190.63731565205458
 20
389.386857502069
  0
ARC
  5
A4
330
17
100
AcDbEntity
  8
DOOR
100
AcDbCircle
 10
190.63731565205458
 20
385.33074440308906
 30
0.0
 40
37.85705559047893
100
AcDbArc
 50
0.0
 51
90.0
  0
LINE
  5
A5
330
17
100
AcDbEntity
  8
DOOR
100
AcDbLine
 10
190.63731565205458
 20
385.33074440308906
 30
0.0
 11
190.63731565205458
 21
423.18779999356804
 31
0.0
  0
LWPOLYLINE
  5
A6
330
17
100
AcDbEntity
  8
DOOR
100
AcDbPolyline
 90
4
 70
1
 10
186.58120255307472
 20
269.0555022323324
 10
186.58120255307472
 20
310.9686709217912
 10
178.46897635511493
 20
310.9686709217912
 10
178.46897635511493
 20
269.0555022323324
  0
ARC
  5
A7
330
17
100
AcDbEntity
  8
DOOR
100
AcDbCircle
 10
182.52508945409483
 20
269.0555022323324
 30
0.0
 40
41.913168689458814
100
AcDbArc
 50
90.0
 51
180.0
  0
LINE
  5
A8
330
17
100
AcDbEntity
  8
DOOR
100
AcDbLine
 10
182.52508945409483
 20
269.0555022323324
 30
0.0
 11
140.611920764636
 21
269.0555022323324
 31
0.0
  0
LWPOLYLINE
  5
A9
330
17
100
AcDbEntity
  8
DOOR
100
AcDbPolyline
 90
4
 70
1
 10
186.58120255307475
 20
310.9686709217912
 10
225.11427699338367
 20
310.9686709217912
 10
225.11427699338367
 20
319.0808971197509
 10
186.58120255307475
 20
319.0808971197509
  0
ARC
  5
AA
330
17
100
AcDbEntity
  8
DOOR
100
AcDbCircle
 10
186.58120255307475
 20
315.02478402077105
 30
0.0
 40
38.533074440308916
100
AcDbArc
 50
0.0
 51
90.0
  0
LINE
  5
AB
330
17
100
AcDbEntity
  8
DOOR
100
AcDbLine
 10
186.58120255307475
 20
315.02478402077105
 30
0.0
 11
186.58120255307475
 21
353.55785846107995
 31
0.0
  0
LWPOLYLINE
  5
AC
330
17
100
AcDbEntity
  8
DOOR
100
AcDbPolyline
 90
4
 70
1
 10
186.58120255307472
 20
221.05816389440375
 10
186.58120255307472
 20
256.21114408556275
 10
178.46897635511493
 20
256.21114408556275
 10
178.46897635511493
 20
221.05816389440375
  0
ARC
  5
AD
330
17
100
AcDbEntity
  8
DOOR
100
AcDbCircle
 10
182.52508945409483
 20
221.05816389440375
 30
0.0
 40
35.15298019115901
100
AcDbArc
 50
90.0
 51
180.0
  0
LINE
  5
AE
330
17
100
AcDbEntity
  8
DOOR
100
AcDbLine
 10
182.52508945409483
 20
221.05816389440375
 30
0.0
 11
147.37210926293582
 21
221.05816389440375
 31
0.0
  0
LWPOLYLINE
  5
AF
330
17
100
AcDbEntity
  8
DOOR
100
AcDbPolyline
 90
4
 70
1
 10
531.1818112539074
 20
456.3127236352371
 10
569.3768762693013
 20
456.3127236352371
 10
569.3768762693013
 20
464.4249498331968
 10
531.1818112539074
 20
464.4249498331968
  0
ARC
  5
B0
330
17
100
AcDbEntity
  8
DOOR
100
AcDbCircle
 10
531.1818112539074
 20
460.368836734217
 30
0.0
 40
38.195065015393936
100
AcDbArc
 50
0.0
 51
90.0
  0
LINE
  5
B1
330
17
100
AcDbEntity
  8
DOOR
100
AcDbLine
 10
531.1818112539074
 20
460.368836734217
 30
0.0
 11
531.1818112539074
 21
498.5639017496109
 31
0.0
  0
LWPOLYLINE
  5
B2
330
17
100
AcDbEntity
  8
DOOR
100
AcDbPolyline
 90
4
 70
1
 10
282.57587922893197
 20
333.2640894730196
 10
282.57587922893197
 20
367.0914389508402
 10
274.4636530309722
 20
367.0914389508402
 10
274.4636530309722
 20
333.2640894730196
  0
ARC
  5
B3
330
17
100
AcDbEntity
  8
DOOR
100
AcDbCircle
 10
278.5197661299521
 20
333.2640894730196
 30
0.0
 40
33.82734947782053
100
AcDbArc
 50
90.0
 51
180.0
  0
LINE
  5
B4
330
17
100
AcDbEntity
  8
DOOR
100
AcDbLine
 10
278.5197661299521
 20
333.2640894730196
 30
0.0
 11
244.69241665213156
 21
333.2640894730196
 31
0.0
  0
LWPOLYLINE
  5
B5
330
17
100
AcDbEntity
  8
DOOR
100
AcDbPolyline
 90
4
 70
1
 10
565.1517584578638
 20
110.19107252228685
 10
611.1210402463024
 20
110.19107252228685
 10
611.1210402463024
 20
118.30329872024662
 10
565.1517584578638
 20
118.30329872024662
  0
ARC
  5
B6
330
17
100
AcDbEntity
  8
DOOR
100
AcDbCircle
 10
565.1517584578638
 20
114.24718562126674
 30
0.0
 40
45.969281788438536
100
AcDbArc
 50
0.0
 51
90.0
  0
LINE
  5
B7
330
17
100
AcDbEntity
  8
DOOR
100
AcDbLine
 10
565.1517584578638
 20
114.24718562126674
 30
0.0
 11
565.1517584578638
 21
160.21646740970527
 31
0.0
  0
LWPOLYLINE
  5
B8
330
17
100
AcDbEntity
  8
WINDOW
100
AcDbPolyline
 90
4
 70
1
 10
262.2953137340325
 20
118.30329872024664
 10
325.5994616932091
 20
118.30329872024664
 10
325.5994616932091
 20
126.41552491820642
 10
262.2953137340325
 20
126.41552491820642
  0
LINE
  5
B9
330
17
100
AcDbEntity
  8
WINDOW
100
AcDbLine
 10
262.2953137340325
 20
122.35941181922654
 30
0.0
 11
325.5994616932091
 21
122.35941181922654
 31
0.0
  0
LWPOLYLINE
  5
BA
330
17
100
AcDbEntity
  8
WINDOW
100
AcDbPolyline
 90
4
 70
1
 10
29.068810542689167
 20
195.36944760086445
 10
29.068810542689167
 20
250.80299328692288
 10
20.956584344729404
 20
250.80299328692288
 10
20.956584344729404
 20
195.36944760086445
  0
LINE
  5
BB
330
17
100
AcDbEntity
  8
WINDOW
100
AcDbLine
 10
25.012697443709285
 20
195.36944760086445
 30
0.0
 11
25.012697443709285
 21
250.80299328692288
 31
0.0
  0
LWPOLYLINE
  5
BC
330
17
100
AcDbEntity
  8
WINDOW
100
AcDbPolyline
 90
4
 70
1
 10
196.0454664506944
 20
110.19107252228685
 10
225.11427699338364
 20
110.19107252228685
 10
225.11427699338364
 20
118.30329872024662
 10
196.0454664506944
 20
118.30329872024662
  0
LINE
  5
BD
330
17
100
AcDbEntity
  8
WINDOW
100
AcDbLine
 10
196.0454664506944
 20
114.24718562126674
 30
0.0
 11
225.11427699338364
 21
114.24718562126674
 31
0.0
  0
LWPOLYLINE
  5
BE
330
17
100
AcDbEntity
  8
WINDOW
100
AcDbPolyline
 90
4
 70
1
 10
73.01003578163795
 20
110.19107252228685
 10
156.83637316055555
 20
110.19107252228685
 10
156.83637316055555
 20
118.30329872024659
 10
73.01003578163795
 20
118.30329872024659
  0
LINE
  5
BF
330
17
100
AcDbEntity
  8
WINDOW
100
AcDbLine
 10
73.01003578163795
 20
114.24718562126671
 30
0.0
 11
156.83637316055555
 21
114.24718562126671
 31
0.0
  0
LWPOLYLINE
  5
C0
330
17
100
AcDbEntity
  8
WINDOW
100
AcDbPolyline
 90
4
 70
1
 10
29.068810542689164
 20
367.07823545767957
 10
29.068810542689164
 20
421.1597434440782
 10
20.9565843447294
 20
421.1597434440782
 10
20.9565843447294
 20
367.07823545767957
  0
LINE
  5
C1
330
17
100
AcDbEntity
  8
WINDOW
100
AcDbLine
 10
25.012697443709282
 20
367.07823545767957
 30
0.0
 11
25.012697443709282
 21
421.1597434440782
 31
0.0
  0
LWPOLYLINE
  5
C2
330
17
100
AcDbEntity
  8
WINDOW
100
AcDbPolyline
 90
4
 70
1
 10
374.5144428058093
 20
500.2539488741859
 10
459.6928178843869
 20
500.2539488741859
 10
459.6928178843869
 20
508.36617507214555
 10
374.5144428058093
 20
508.36617507214555
  0
LINE
  5
C3
330
17
100
AcDbEntity
  8
WINDOW
100
AcDbLine
 10
374.5144428058093
 20
504.3100619731657
 30
0.0
 11
459.6928178843869
 21
504.3100619731657
 31
0.0
  0
LWPOLYLINE
  5
C4
330
17
100
AcDbEntity
  8
WINDOW
100
AcDbPolyline
 90
4
 70
1
 10
279.871803829612
 20
500.2539488741859
 10
308.9406143723012
 20
500.2539488741859
 10
308.9406143723012
 20
508.36617507214555
 10
279.871803829612
 20
508.36617507214555
  0
LINE
  5
C5
330
17
100
AcDbEntity
  8
WINDOW
100
AcDbLine
 10
279.871803829612
 20
504.3100619731657
 30
0.0
 11
308.9406143723012
 21
504.3100619731657
 31
0.0
  0
LWPOLYLINE
  5
C6
330
17
100
AcDbEntity
  8
WINDOW
100
AcDbPolyline
 90
4
 70
1
 10
196.0454664506944
 20
500.25394887418577
 10
225.11427699338364
 20
500.25394887418577
 10
225.11427699338364
 20
508.3661750721455
 10
196.0454664506944
 20
508.3661750721455
  0
LINE
  5
C7
330
17
100
AcDbEntity
  8
WINDOW
100
AcDbLine
 10
196.0454664506944
 20
504.31006197316566
 30
0.0
 11
225.11427699338364
 21
504.31006197316566
 31
0.0
  0
LWPOLYLINE
  5
C8
330
17
100
AcDbEntity
  8
WINDOW
100
AcDbPolyline
 90
4
 70
1
 10
65.57382843350813
 20
500.2539488741859
 10
149.40016581242577
 20
500.2539488741859
 10
149.40016581242577
 20
508.36617507214555
 10
65.57382843350813
 20
508.36617507214555
  0
LINE
  5
C9
330
17
100
AcDbEntity
  8
WINDOW
100
AcDbLine
 10
65.57382843350813
 20
504.3100619731657
 30
0.0
 11
149.40016581242577
 21
504.3100619731657
 31
0.0
  0
TEXT
  5
CA
330
17
100
AcDbEntity
  8
ANNO
100
AcDbText
 10
403.24524392358353
 20
409.66742299696836
 30
0.0
 40
8.661417322834646
  1
BEDROOM
 11
403.24524392358353
 21
409.66742299696836
 31
0.0
100
AcDbText
  0
TEXT
  5
CB
330
17
100
AcDbEntity
  8
ANNO
100
AcDbText
 10
105.796949998392
 20
405.27330047307345
 30
0.0
 40
8.661417322834646
  1
BEDROOM
 11
105.796949998392
 21
405.27330047307345
 31
0.0
100
AcDbText
  0
TEXT
  5
CC
330
17
100
AcDbEntity
  8
ANNO
100
AcDbText
 10
103.76889344890206
 20
250.4649838620079
 30
0.0
 40
8.661417322834646
  1
BEDROOM
 11
103.76889344890206
 21
250.4649838620079
 31
0.0
100
AcDbText
  0
TEXT
  5
CD
330
17
100
AcDbEntity
  8
ANNO
100
AcDbText
 10
217.3400602203388
 20
204.83371149848418
 30
0.0
 40
8.661417322834646
  1
BATH
 11
217.3400602203388
 21
204.83371149848418
 31
0.0
100
AcDbText
  0
TEXT
  5
CE
330
17
100
AcDbEntity
  8
ANNO
100
AcDbText
 10
219.36811676982876
 20
422.84979056865296
 30
0.0
 40
8.661417322834646
  1
BATH
 11
219.36811676982876
 21
422.84979056865296
 31
0.0
100
AcDbText
  0
TEXT
  5
CF
330
17
100
AcDbEntity
  8
ANNO
100
AcDbText
 10
287.9840300275718
 20
444.82040318812733
 30
0.0
 40
8.661417322834646
  1
BATH
 11
287.9840300275718
 21
444.82040318812733
 31
0.0
100
AcDbText
  0
TEXT
  5
D0
330
17
100
AcDbEntity
  8
ANNO
100
AcDbText
 10
310.9683084859039
 20
194.01740990120447
 30
0.0
 40
8.661417322834646
  1
KITCHEN
 11
310.9683084859039
 21
194.01740990120447
 31
0.0
100
AcDbText
  0
TEXT
  5
D1
330
17
100
AcDbEntity
  8
ANNO
100
AcDbText
 10
401.8932062239235
 20
290.0120865770617
 30
0.0
 40
8.661417322834646
  1
LIVING
 11
401.8932062239235
 21
290.0120865770617
 31
0.0
100
AcDbText
  0
TEXT
  5
D2
330
17
100
AcDbEntity
  8
ANNO
100
AcDbText
 10
551.2933720363493
 20
498.22589232469585
 30
0.0
 40
8.661417322834646
  1
BALCONY
 11
551.2933720363493
 21
498.22589232469585
 31
0.0
100
AcDbText
  0
TEXT
  5
D3
330
17
100
AcDbEntity
  8
ANNO
100
AcDbText
 10
323.13701021873084
 20
250.4649838620079
 30
0.0
 40
8.661417322834646
  1
HALL
 11
323.13701021873084
 21
250.4649838620079
 31
0.0
100
AcDbText
  0
DIMENSION
  5
D4
330
17
100
AcDbEntity
  8
A-ANNO-DIMS
100
AcDbDimension
280
0
  2
*D1
  3
EZDXF
 10
-6.760188498299809
 20
69.46895608246942
 30
0.0
 11
309.27862379721626
 21
69.69395608246941
 31
0.0
 70
32
 71
5
  1
<>
100
AcDbAlignedDimension
 13
-6.760188498299809
 23
108.8390348226269
 33
0.0
 14
625.3174360927322
 24
108.8390348226269
 34
0.0
 50
0.0
100
AcDbRotatedDimension
  0
DIMENSION
  5
E3
330
17
100
AcDbEntity
  8
A-ANNO-DIMS
100
AcDbDimension
280
0
  2
*D2
  3
EZDXF
 10
-46.130267238457286
 20
108.8390348226269
 30
0.0
 11
-46.35526723845729
 21
309.27862379721614
 31
0.0
 70
32
 71
5
  1
<>
100
AcDbAlignedDimension
 13
-6.760188498299809
 23
108.8390348226269
 33
0.0
 14
-6.760188498299809
 24
509.7182127718054
 34
0.0
 50
90.0
100
AcDbRotatedDimension
  0
LWPOLYLINE
  5
F2
330
17
100
AcDbEntity
  8
A-FURN
100
AcDbPolyline
 90
4
 70
1
 10
371.7491809314575
 20
370.29734425681096
 10
434.7413069157095
 20
370.29734425681096
 10
434.7413069157095
 20
449.0375017371259
 10
371.7491809314575
 20
449.0375017371259
  0
LWPOLYLINE
  5
F3
330
17
100
AcDbEntity
  8
A-FURN
100
AcDbPolyline
 90
4
 70
1
 10
76.89322192466132
 20
368.74897270735744
 10
139.88534790891327
 20
368.74897270735744
 10
139.88534790891327
 20
447.4891301876724
 10
76.89322192466132
 20
447.4891301876724
  0
ENDSEC
  0
SECTION
  2
OBJECTS
  0
DICTIONARY
  5
A
330
0
100
AcDbDictionary
281
1
  3
ACAD_COLOR
350
B
  3
ACAD_GROUP
350
C
  3
ACAD_LAYOUT
350
D
  3
ACAD_MATERIAL
350
E
  3
ACAD_MLEADERSTYLE
350
F
  3
ACAD_MLINESTYLE
350
10
  3
ACAD_PLOTSETTINGS
350
11
  3
ACAD_PLOTSTYLENAME
350
12
  3
ACAD_SCALELIST
350
14
  3
ACAD_TABLESTYLE
350
15
  3
ACAD_VISUALSTYLE
350
16
  3
EZDXF_META
350
2D
  0
DICTIONARY
  5
B
330
A
100
AcDbDictionary
281
1
  0
DICTIONARY
  5
C
330
A
100
AcDbDictionary
281
1
  0
DICTIONARY
  5
D
330
A
100
AcDbDictionary
281
1
  3
Model
350
1A
  3
Layout1
350
1E
  0
DICTIONARY
  5
E
330
A
100
AcDbDictionary
281
1
  3
ByBlock
350
1F
  3
ByLayer
350
20
  3
Global
350
21
  0
DICTIONARY
  5
F
330
A
100
AcDbDictionary
281
1
  3
Standard
350
2C
  0
DICTIONARY
  5
10
330
A
100
AcDbDictionary
281
1
  3
Standard
350
22
  0
DICTIONARY
  5
11
330
A
100
AcDbDictionary
281
1
  0
ACDBDICTIONARYWDFLT
  5
12
330
A
100
AcDbDictionary
281
1
  3
Normal
350
13
100
AcDbDictionaryWithDefault
340
13
  0
ACDBPLACEHOLDER
  5
13
330
12
  0
DICTIONARY
  5
14
330
A
100
AcDbDictionary
281
1
  0
DICTIONARY
  5
15
330
A
100
AcDbDictionary
281
1
  0
DICTIONARY
  5
16
330
A
100
AcDbDictionary
281
1
  3
2dWireframe
350
5A
  3
Basic
350
5B
  3
Brighten
350
5C
  3
ColorChange
350
5D
  3
Conceptual
350
5E
  3
Dim
350
5F
  3
EdgeColorOff
350
60
  3
Facepattern
350
61
  3
Flat
350
62
  3
FlatWithEdges
350
63
  3
Gouraud
350
64
  3
GouraudWithEdges
350
65
  3
Hidden
350
66
  3
JitterOff
350
67
  3
Linepattern
350
68
  3
Modeling
350
69
  3
OverhangOff
350
6A
  3
Realistic
350
6B
  3
Shaded
350
6C
  3
Shaded with edges
350
6D
  3
Shades of Gray
350
6E
  3
Sketchy
350
6F
  3
Thicken
350
70
  3
Wireframe
350
71
  3
X-Ray
350
72
  0
LAYOUT
  5
1A
330
D
100
AcDbPlotSettings
  1

  4
A3
  6

 40
7.5
 41
20.0
 42
7.5
 43
20.0
 44
420.0
 45
297.0
 46
0.0
 47
0.0
 48
0.0
 49
0.0
140
0.0
141
0.0
142
1.0
143
1.0
 70
1024
 72
1
 73
0
 74
5
  7

 75
16
 76
0
 77
2
 78
300
147
1.0
148
0.0
149
0.0
100
AcDbLayout
  1
Model
 70
1
 71
0
 10
0.0
 20
0.0
 11
420.0
 21
297.0
 12
0.0
 22
0.0
 32
0.0
 14
1e+20
 24
1e+20
 34
1e+20
 15
-1e+20
 25
-1e+20
 35
-1e+20
146
0.0
 13
0.0
 23
0.0
 33
0.0
 16
1.0
 26
0.0
 36
0.0
 17
0.0
 27
1.0
 37
0.0
 76
1
330
17
  0
LAYOUT
  5
1E
330
D
100
AcDbPlotSettings
  1

  4
A3
  6

 40
7.5
 41
20.0
 42
7.5
 43
20.0
 44
420.0
 45
297.0
 46
0.0
 47
0.0
 48
0.0
 49
0.0
140
0.0
141
0.0
142
1.0
143
1.0
 70
0
 72
1
 73
0
 74
5
  7

 75
16
 76
0
 77
2
 78
300
147
1.0
148
0.0
149
0.0
100
AcDbLayout
  1
Layout1
 70
1
 71
1
 10
0.0
 20
0.0
 11
420.0
 21
297.0
 12
0.0
 22
0.0
 32
0.0
 14
1e+20
 24
1e+20
 34
1e+20
 15
-1e+20
 25
-1e+20
 35
-1e+20
146
0.0
 13
0.0
 23
0.0
 33
0.0
 16
1.0
 26
0.0
 36
0.0
 17
0.0
 27
1.0
 37
0.0
 76
1
330
1B
  0
MATERIAL
  5
1F
102
{ACAD_REACTORS
330
E
102
}
330
E
100
AcDbMaterial
  1
ByBlock
  2

 70
0
 40
1.0
 71
1
 41
1.0
 91
-1023410177
 42
1.0
 72
1
  3

 73
1
 74
1
 75
1
 44
0.5
 73
0
 45
1.0
 46
1.0
 77
1
  4

 78
1
 79
1
170
1
 48
1.0
171
1
  6

172
1
173
1
174
1
140
1.0
141
1.0
175
1
  7

176
1
177
1
178
1
143
1.0
179
1
  8

270
1
271
1
272
1
145
1.0
146
1.0
273
1
  9

274
1
275
1
276
1
 42
1.0
 72
1
  3

 73
1
 74
1
 75
1
 94
63
  0
MATERIAL
  5
20
102
{ACAD_REACTORS
330
E
102
}
330
E
100
AcDbMaterial
  1
ByLayer
  2

 70
0
 40
1.0
 71
1
 41
1.0
 91
-1023410177
 42
1.0
 72
1
  3

 73
1
 74
1
 75
1
 44
0.5
 73
0
 45
1.0
 46
1.0
 77
1
  4

 78
1
 79
1
170
1
 48
1.0
171
1
  6

172
1
173
1
174
1
140
1.0
141
1.0
175
1
  7

176
1
177
1
178
1
143
1.0
179
1
  8

270
1
271
1
272
1
145
1.0
146
1.0
273
1
  9

274
1
275
1
276
1
 42
1.0
 72
1
  3

 73
1
 74
1
 75
1
 94
63
  0
MATERIAL
  5
21
102
{ACAD_REACTORS
330
E
102
}
330
E
100
AcDbMaterial
  1
Global
  2

 70
0
 40
1.0
 71
1
 41
1.0
 91
-1023410177
 42
1.0
 72
1
  3

 73
1
 74
1
 75
1
 44
0.5
 73
0
 45
1.0
 46
1.0
 77
1
  4

 78
1
 79
1
170
1
 48
1.0
171
1
  6

172
1
173
1
174
1
140
1.0
141
1.0
175
1
  7

176
1
177
1
178
1
143
1.0
179
1
  8

270
1
271
1
272
1
145
1.0
146
1.0
273
1
  9

274
1
275
1
276
1
 42
1.0
 72
1
  3

 73
1
 74
1
 75
1
 94
63
  0
MLINESTYLE
  5
22
102
{ACAD_REACTORS
330
10
102
}
330
10
100
AcDbMlineStyle
  2
Standard
 70
0
  3

 62
256
 51
90.0
 52
90.0
 71
2
 49
0.5
 62
256
  6
BYLAYER
 49
-0.5
 62
256
  6
BYLAYER
  0
MLEADERSTYLE
  5
2C
102
{ACAD_REACTORS
330
F
102
}
330
F
100
AcDbMLeaderStyle
179
2
170
2
171
1
172
0
 90
2
 40
0.0
 41
0.0
173
1
 91
-1056964608
 92
-2
290
1
 42
2.0
291
1
 43
8.0
  3
Standard
 44
4.0
300

342
29
174
1
175
1
176
0
178
1
 93
-1056964608
 45
4.0
292
0
297
0
 46
4.0
 94
-1056964608
 47
1.0
 49
1.0
140
1.0
294
1
141
0.0
177
0
142
1.0
295
0
296
0
143
3.75
271
0
272
9
273
9
  0
DICTIONARY
  5
2D
330
A
100
AcDbDictionary
280
1
281
1
  3
CREATED_BY_EZDXF
350
2E
  3
WRITTEN_BY_EZDXF
350
F6
  0
DICTIONARYVAR
  5
2E
330
2D
100
DictionaryVariables
280
0
  1
1.4.3 @ 2026-09-13T07:01:30.471582+00:00
  0
VISUALSTYLE
  5
5A
102
{ACAD_REACTORS
330
16
102
}
330
16
100
AcDbVisualStyle
  2
2dWireframe
 70
4
 90
0
 40
0.6
 62
7
290
0
291
0
  0
VISUALSTYLE
  5
5B
102
{ACAD_REACTORS
330
16
102
}
330
16
100
AcDbVisualStyle
  2
Basic
 70
7
 90
1
 40
0.6
 62
7
290
0
291
1
  0
VISUALSTYLE
  5
5C
102
{ACAD_REACTORS
330
16
102
}
330
16
100
AcDbVisualStyle
  2
Brighten
 70
12
 90
2
 40
0.6
 62
7
290
0
291
1
  0
VISUALSTYLE
  5
5D
102
{ACAD_REACTORS
330
16
102
}
330
16
100
AcDbVisualStyle
  2
ColorChange
 70
16
 90
2
 40
0.6
 62
8
290
0
291
1
  0
VISUALSTYLE
  5
5E
102
{ACAD_REACTORS
330
16
102
}
330
16
100
AcDbVisualStyle
  2
Conceptual
 70
9
 90
3
 40
0.6
 62
7
290
0
291
0
  0
VISUALSTYLE
  5
5F
102
{ACAD_REACTORS
330
16
102
}
330
16
100
AcDbVisualStyle
  2
Dim
 70
11
 90
2
 40
0.6
 62
7
290
0
291
1
  0
VISUALSTYLE
  5
60
102
{ACAD_REACTORS
330
16
102
}
330
16
100
AcDbVisualStyle
  2
EdgeColorOff
 70
22
 90
2
 40
0.6
 62
7
290
0
291
1
  0
VISUALSTYLE
  5
61
102
{ACAD_REACTORS
330
16
102
}
330
16
100
AcDbVisualStyle
  2
Facepattern
 70
15
 90
2
 40
0.6
 62
7
290
0
291
1
  0
VISUALSTYLE
  5
62
102
{ACAD_REACTORS
330
16
102
}
330
16
100
AcDbVisualStyle
  2
Flat
 70
0
 90
2
 40
0.6
 62
7
290
0
291
1
  0
VISUALSTYLE
  5
63
102
{ACAD_REACTORS
330
16
102
}
330
16
100
AcDbVisualStyle
  2
FlatWithEdges
 70
1
 90
2
 40
0.6
 62
7
290
0
291
1
  0
VISUALSTYLE
  5
64
102
{ACAD_REACTORS
330
16
102
}
330
16
100
AcDbVisualStyle
  2
Gouraud
 70
2
 90
2
 40
0.6
 62
7
290
0
291
1
  0
VISUALSTYLE
  5
65
102
{ACAD_REACTORS
330
16
102
}
330
16
100
AcDbVisualStyle
  2
GouraudWithEdges
 70
3
 90
2
 40
0.6
 62
7
290
0
291
1
  0
VISUALSTYLE
  5
66
102
{ACAD_REACTORS
330
16
102
}
330
16
100
AcDbVisualStyle
  2
Hidden
 70
6
 90
1
 40
0.6
 62
7
290
0
291
0
  0
VISUALSTYLE
  5
67
102
{ACAD_REACTORS
330
16
102
}
330
16
100
AcDbVisualStyle
  2
JitterOff
 70
20
 90
2
 40
0.6
 62
7
290
0
291
1
  0
VISUALSTYLE
  5
68
102
{ACAD_REACTORS
330
16
102
}
330
16
100
AcDbVisualStyle
  2
Linepattern
 70
14
 90
2
 40
0.6
 62
7
290
0
291
1
  0
VISUALSTYLE
  5
69
102
{ACAD_REACTORS
330
16
102
}
330
16
100
AcDbVisualStyle
  2
Modeling
 70
10
 90
2
 40
0.6
 62
7
290
0
291
0
  0
VISUALSTYLE
  5
6A
102
{ACAD_REACTORS
330
16
102
}
330
16
100
AcDbVisualStyle
  2
OverhangOff
 70
21
 90
2
 40
0.6
 62
7
290
0
291
1
  0
VISUALSTYLE
  5
6B
102
{ACAD_REACTORS
330
16
102
}
330
16
100
AcDbVisualStyle
  2
Realistic
 70
8
 90
2
 40
0.6
 62
7
290
0
291
0
  0
VISUALSTYLE
  5
6C
102
{ACAD_REACTORS
330
16
102
}
330
16
100
AcDbVisualStyle
  2
Shaded
 70
27
 90
2
 40
0.6
 62
7
290
0
291
0
  0
VISUALSTYLE
  5
6D
102
{ACAD_REACTORS
330
16
102
}
330
16
100
AcDbVisualStyle
  2
Shaded with edges
 70
26
 90
2
 40
0.6
 62
7
290
0
291
0
  0
VISUALSTYLE
  5
6E
102
{ACAD_REACTORS
330
16
102
}
330
16
100
AcDbVisualStyle
  2
Shades of Gray
 70
23
 90
2
 40
0.6
 62
7
290
0
291
0
  0
VISUALSTYLE
  5
6F
102
{ACAD_REACTORS
330
16
102
}
330
16
100
AcDbVisualStyle
  2
Sketchy
 70
24
 90
1
 40
0.6
 62
7
290
0
291
0
  0
VISUALSTYLE
  5
70
102
{ACAD_REACTORS
330
16
102
}
330
16
100
AcDbVisualStyle
  2
Thicken
 70
13
 90
2
 40
0.6
 62
7
290
0
291
1
  0
VISUALSTYLE
  5
71
102
{ACAD_REACTORS
330
16
102
}
330
16
100
AcDbVisualStyle
  2
Wireframe
 70
5
 90
0
 40
0.6
 62
7
290
0
291
0
  0
VISUALSTYLE
  5
72
102
{ACAD_REACTORS
330
16
102
}
330
16
100
AcDbVisualStyle
  2
X-Ray
 70
25
 90
2
 40
0.5
 62
7
290
0
291
0
  0
DICTIONARYVAR
  5
F6
330
2D
100
DictionaryVariables
280
0
  1
1.4.3 @ 2026-09-13T07:01:30.545687+00:00
  0
ENDSEC
  0
EOF
