  0
SECTION
  2
HEADER
  9
$ACADVER
  1
AC1024
  9
$ACADMAINTVER
 70
6
  9
$DWGCODEPAGE
  3
ANSI_1252
  9
$LASTSAVEDBY
  1
ezdxf
  9
$INSBASE
 10
0.0
 20
0.0
 30
0.0
  9
$EXTMIN
 10
1e+20
 20
1e+20
 30
1e+20
  9
$EXTMAX
 10
-1e+20
 20
-1e+20
 30
-1e+20
  9
$LIMMIN
 10
0.0
 20
0.0
  9
$LIMMAX
 10
420.0
 20
297.0
  9
$ORTHOMODE
 70
0
  9
$REGENMODE
 70
1
  9
$FILLMODE
 70
1
  9
$QTEXTMODE
 70
0
  9
$MIRRTEXT
 70
1
  9
$LTSCALE
 40
1.0
  9
$ATTMODE
 70
1
  9
$TEXTSIZE
 40
2.5
  9
$TRACEWID
 40
1.0
  9
$TEXTSTYLE
  7
OpenSans
  9
$CLAYER
  8
0
  9
$CELTYPE
  6
ByLayer
  9
$CECOLOR
 62
256
  9
$CELTSCALE
 40
1.0
  9
$DISPSILH
 70
0
  9
$DIMSCALE
 40
1.0
  9
$DIMASZ
 40
0.175
  9
$DIMEXO
 40
0.125
  9
$DIMDLI
 40
3.75
  9
$DIMRND
 40
0.0
  9
$DIMDLE
 40
0.0
  9
$DIMEXE
 40
0.375
  9
$DIMTP
 40
0.0
  9
$DIMTM
 40
0.0
  9
$DIMTXT
 40
0.25
  9
$DIMCEN
 40
2.5
  9
$DIMTSZ
 40
0.0
  9
$DIMTOL
 70
0
  9
$DIMLIM
 70
0
  9
$DIMTIH
 70
0
  9
$DIMTOH
 70
0
  9
$DIMSE1
 70
0
  9
$DIMSE2
 70
0
  9
$DIMTAD
 70
1
  9
$DIMZIN
 70
12
  9
$DIMBLK
  1
ARCHTICK
  9
$DIMASO
 70
1
  9
$DIMSHO
 70
1
  9
$DIMPOST
  1

  9
$DIMAPOST
  1

  9
$DIMALT
 70
0
  9
$DIMALTD
 70
3
  9
$DIMALTF
 40
0.03937007874
  9
$DIMLFAC
 40
100.0
  9
$DIMTOFL
 70
1
  9
$DIMTVP
 40
0.0
  9
$DIMTIX
 70
0
  9
$DIMSOXD
 70
0
  9
$DIMSAH
 70
0
  9
$DIMBLK1
  1

  9
$DIMBLK2
  1

  9
$DIMSTYLE
  2
EZDXF
  9
$DIMCLRD
 70
0
  9
$DIMCLRE
 70
0
  9
$DIMCLRT
 70
0
  9
$DIMTFAC
 40
0.5
  9
$DIMGAP
 40
0.1
  9
$DIMJUST
 70
0
  9
$DIMSD1
 70
0
  9
$DIMSD2
 70
0
  9
$DIMTOLJ
 70
0
  9
$DIMTZIN
 70
8
  9
$DIMALTZ
 70
0
  9
$DIMALTTZ
 70
0
  9
$DIMUPT
 70
1
  9
$DIMDEC
 70
2
  9
$DIMTDEC
 70
2
  9
$DIMALTU
 70
2
  9
$DIMALTTD
 70
3
  9
$DIMTXSTY
  7
OpenSansCondensed-Light
  9
$DIMAUNIT
 70
0
  9
$DIMADEC
 70
2
  9
$DIMALTRND
 40
0.0
  9
$DIMAZIN
 70
3
  9
$DIMDSEP
 70
46
  9
$DIMATFIT
 70
3
  9
$DIMFRAC
 70
0
  9
$DIMLDRBLK
  1

  9
$DIMLUNIT
 70
2
  9
$DIMLWD
 70
-2
  9
$DIMLWE
 70
-2
  9
$DIMTMOVE
 70
2
  9
$DIMFXL
 40
1.0
  9
$DIMFXLON
 70
0
  9
$DIMJOGANG
 40
0.785398163397
  9
$DIMTFILL
 70
0
  9
$DIMTFILLCLR
 70
0
  9
$DIMARCSYM
 70
0
  9
$DIMLTYPE
  6

  9
$DIMLTEX1
  6

  9
$DIMLTEX2
  6

  9
$DIMTXTDIRECTION
 70
0
  9
$LUNITS
 70
2
  9
$LUPREC
 70
4
  9
$SKETCHINC
 40
1.0
  9
$FILLETRAD
 40
10.0
  9
$AUNITS
 70
0
  9
$AUPREC
 70
2
  9
$MENU
  1
.
  9
$ELEVATION
 40
0.0
  9
$PELEVATION
 40
0.0
  9
$THICKNESS
 40
0.0
  9
$LIMCHECK
 70
0
  9
$CHAMFERA
 40
0.0
  9
$CHAMFERB
 40
0.0
  9
$CHAMFERC
 40
0.0
  9
$CHAMFERD
 40
0.0
  9
$SKPOLY
 70
0
  9
$TDCREATE
 40
2461297.521875
  9
$TDUCREATE
 40
2458532.153996898
  9
$TDUPDATE
 40
2461297.521875
  9
$TDUUPDATE
 40
2458532.1544311
  9
$TDINDWG
 40
0.0
  9
$TDUSRTIMER
 40
0.0
  9
$USRTIMER
 70
1
  9
$ANGBASE
 50
0.0
  9
$ANGDIR
 70
0
  9
$PDMODE
 70
0
  9
$PDSIZE
 40
0.0
  9
$PLINEWID
 40
0.0
  9
$SPLFRAME
 70
0
  9
$SPLINETYPE
 70
6
  9
$SPLINESEGS
 70
8
  9
$HANDSEED
  5
FB
  9
$SURFTAB1
 70
6
  9
$SURFTAB2
 70
6
  9
$SURFTYPE
 70
6
  9
$SURFU
 70
6
  9
$SURFV
 70
6
  9
$UCSBASE
  2

  9
$UCSNAME
  2

  9
$UCSORG
 10
0.0
 20
0.0
 30
0.0
  9
$UCSXDIR
 10
1.0
 20
0.0
 30
0.0
  9
$UCSYDIR
 10
0.0
 20
1.0
 30
0.0
  9
$UCSORTHOREF
  2

  9
$UCSORTHOVIEW
 70
0
  9
$UCSORGTOP
 10
0.0
 20
0.0
 30
0.0
  9
$UCSORGBOTTOM
 10
0.0
 20
0.0
 30
0.0
  9
$UCSORGLEFT
 10
0.0
 20
0.0
 30
0.0
  9
$UCSORGRIGHT
 10
0.0
 20
0.0
 30
0.0
  9
$UCSORGFRONT
 10
0.0
 20
0.0
 30
0.0
  9
$UCSORGBACK
 10
0.0
 20
0.0
 30
0.0
  9
$PUCSBASE
  2

  9
$PUCSNAME
  2

  9
$PUCSORG
 10
0.0
 20
0.0
 30
0.0
  9
$PUCSXDIR
 10
1.0
 20
0.0
 30
0.0
  9
$PUCSYDIR
 10
0.0
 20
1.0
 30
0.0
  9
$PUCSORTHOREF
  2

  9
$PUCSORTHOVIEW
 70
0
  9
$PUCSORGTOP
 10
0.0
 20
0.0
 30
0.0
  9
$PUCSORGBOTTOM
 10
0.0
 20
0.0
 30
0.0
  9
$PUCSORGLEFT
 10
0.0
 20
0.0
 30
0.0
  9
$PUCSORGRIGHT
 10
0.0
 20
0.0
 30
0.0
  9
$PUCSORGFRONT
 10
0.0
 20
0.0
 30
0.0
  9
$PUCSORGBACK
 10
0.0
 20
0.0
 30
0.0
  9
$USERI1
 70
0
  9
$USERI2
 70
0
  9
$USERI3
 70
0
  9
$USERI4
 70
0
  9
$USERI5
 70
0
  9
$USERR1
 40
0.0
  9
$USERR2
 40
0.0
  9
$USERR3
 40
0.0
  9
$USERR4
 40
0.0
  9
$USERR5
 40
0.0
  9
$WORLDVIEW
 70
1
  9
$SHADEDGE
 70
3
  9
$SHADEDIF
 70
70
  9
$TILEMODE
 70
1
  9
$MAXACTVP
 70
64
  9
$PINSBASE
 10
0.0
 20
0.0
 30
0.0
  9
$PLIMCHECK
 70
0
  9
$PEXTMIN
 10
1e+20
 20
1e+20
 30
1e+20
  9
$PEXTMAX
 10
-1e+20
 20
-1e+20
 30
-1e+20
  9
$PLIMMIN
 10
0.0
 20
0.0
  9
$PLIMMAX
 10
420.0
 20
297.0
  9
$UNITMODE
 70
0
  9
$VISRETAIN
 70
1
  9
$PLINEGEN
 70
0
  9
$PSLTSCALE
 70
1
  9
$TREEDEPTH
 70
3020
  9
$CMLSTYLE
  2
Standard
  9
$CMLJUST
 70
0
  9
$CMLSCALE
 40
20.0
  9
$PROXYGRAPHICS
 70
1
  9
$MEASUREMENT
 70
1
  9
$CELWEIGHT
370
-1
  9
$ENDCAPS
280
0
  9
$JOINSTYLE
280
0
  9
$LWDISPLAY
290
0
  9
$INSUNITS
 70
0
  9
$HYPERLINKBASE
  1

  9
$STYLESHEET
  1

  9
$XEDIT
290
1
  9
$CEPSNTYPE
380
0
  9
$PSTYLEMODE
290
1
  9
$FINGERPRINTGUID
  2
{8BD75822-8E94-476C-9D56-FB06C21C6647}
  9
$VERSIONGUID
  2
{EA45298B-5F2B-4175-BC37-40BD977767FC}
  9
$EXTNAMES
290
1
  9
$PSVPSCALE
 40
0.0
  9
$OLESTARTUP
290
0
  9
$SORTENTS
280
127
  9
$INDEXCTL
280
0
  9
$HIDETEXT
280
1
  9
$XCLIPFRAME
280
1
  9
$HALOGAP
280
0
  9
$OBSCOLOR
 70
257
  9
$OBSLTYPE
280
0
  9
$INTERSECTIONDISPLAY
280
0
  9
$INTERSECTIONCOLOR
 70
257
  9
$DIMASSOC
280
2
  9
$PROJECTNAME
  1

  9
$CAMERADISPLAY
290
0
  9
$LENSLENGTH
 40
50.0
  9
$CAMERAHEIGHT
 40
0.0
  9
$STEPSPERSEC
 40
24.0
  9
$STEPSIZE
 40
100.0
  9
$3DDWFPREC
 40
2.0
  9
$PSOLWIDTH
 40
0.005
  9
$PSOLHEIGHT
 40
0.08
  9
$LOFTANG1
 40
1.570796326795
  9
$LOFTANG2
 40
1.570796326795
  9
$LOFTMAG1
 40
0.0
  9
$LOFTMAG2
 40
0.0
  9
$LOFTPARAM
 70
7
  9
$LOFTNORMALS
280
1
  9
$LATITUDE
 40
37.795
  9
$LONGITUDE
 40
-122.394
  9
$NORTHDIRECTION
 40
0.0
  9
$TIMEZONE
 70
-8000
  9
$LIGHTGLYPHDISPLAY
280
1
  9
$TILEMODELIGHTSYNCH
280
1
  9
$CMATERIAL
347
20
  9
$SOLIDHIST
280
0
  9
$SHOWHIST
280
1
  9
$DWFFRAME
280
2
  9
$DGNFRAME
280
2
  9
$REALWORLDSCALE
290
1
  9
$INTERFERECOLOR
 62
256
  9
$CSHADOW
280
0
  9
$SHADOWPLANELOCATION
 40
0.0
  0
ENDSEC
  0
SECTION
  2
CLASSES
  0
CLASS
  1
ACDBDICTIONARYWDFLT
  2
AcDbDictionaryWithDefault
  3
ObjectDBX Classes
 90
0
 91
0
280
0
281
0
  0
CLASS
  1
SUN
  2
AcDbSun
  3
SCENEOE
 90
1153
 91
0
280
0
281
0
  0
CLASS
  1
VISUALSTYLE
  2
AcDbVisualStyle
  3
ObjectDBX Classes
 90
4095
 91
0
280
0
281
0
  0
CLASS
  1
MATERIAL
  2
AcDbMaterial
  3
ObjectDBX Classes
 90
1153
 91
0
280
0
281
0
  0
CLASS
  1
SCALE
  2
AcDbScale
  3
ObjectDBX Classes
 90
1153
 91
0
280
0
281
0
  0
CLASS
  1
TABLESTYLE
  2
AcDbTableStyle
  3
ObjectDBX Classes
 90
4095
 91
0
280
0
281
0
  0
CLASS
  1
MLEADERSTYLE
  2
AcDbMLeaderStyle
  3
ACDB_MLEADERSTYLE_CLASS
 90
4095
 91
0
280
0
281
0
  0
CLASS
  1
DICTIONARYVAR
  2
AcDbDictionaryVar
  3
ObjectDBX Classes
 90
0
 91
0
280
0
281
0
  0
CLASS
  1
CELLSTYLEMAP
  2
AcDbCellStyleMap
  3
ObjectDBX Classes
 90
1152
 91
0
280
0
281
0
  0
CLASS
  1
MENTALRAYRENDERSETTINGS
  2
AcDbMentalRayRenderSettings
  3
SCENEOE
 90
1024
 91
0
280
0
281
0
  0
CLASS
  1
ACDBDETAILVIEWSTYLE
  2
AcDbDetailViewStyle
  3
ObjectDBX Classes
 90
1025
 91
0
280
0
281
0
  0
CLASS
  1
ACDBSECTIONVIEWSTYLE
  2
AcDbSectionViewStyle
  3
ObjectDBX Classes
 90
1025
 91
0
280
0
281
0
  0
CLASS
  1
RASTERVARIABLES
  2
AcDbRasterVariables
  3
ISM
 90
0
 91
0
280
0
281
0
  0
CLASS
  1
LAYOUT
  2
AcDbLayout
  3
ObjectDBX Classes
 90
0
 91
0
280
0
281
0
  0
CLASS
  1
ACDBPLACEHOLDER
  2
AcDbPlaceHolder
  3
ObjectDBX Classes
 90
0
 91
0
280
0
281
0
  0
ENDSEC
  0
SECTION
  2
TABLES
  0
TABLE
  2
VPORT
  5
8
330
0
100
AcDbSymbolTable
 70
1
  0
VPORT
  5
23
330
8
100
AcDbSymbolTableRecord
100
AcDbViewportTableRecord
  2
*Active
 70
0
 10
0.0
 20
0.0
 11
1.0
 21
1.0
 12
0.0
 22
0.0
 13
0.0
 23
0.0
 14
0.5
 24
0.5
 15
0.5
 25
0.5
 16
0.0
 26
0.0
 36
1.0
 17
0.0
 27
0.0
 37
0.0
 40
1000.0
 41
1.34
 42
50.0
 43
0.0
 44
0.0
 50
0.0
 51
0.0
 71
0
 72
1000
 73
1
 74
3
 75
0
 76
0
 77
0
 78
0
281
0
 65
0
146
0.0
  0
ENDTAB
  0
TABLE
  2
LTYPE
  5
2
330
0
100
AcDbSymbolTable
 70
21
  0
LTYPE
  5
24
330
2
100
AcDbSymbolTableRecord
100
AcDbLinetypeTableRecord
  2
ByBlock
 70
0
  3

 72
65
 73
0
 40
0.0
  0
LTYPE
  5
25
330
2
100
AcDbSymbolTableRecord
100
AcDbLinetypeTableRecord
  2
ByLayer
 70
0
  3

 72
65
 73
0
 40
0.0
  0
LTYPE
  5
26
330
2
100
AcDbSymbolTableRecord
100
AcDbLinetypeTableRecord
  2
Continuous
 70
0
  3

 72
65
 73
0
 40
0.0
  0
LTYPE
  5
2F
330
2
100
AcDbSymbolTableRecord
100
AcDbLinetypeTableRecord
  2
CENTER
 70
0
  3
Center ____ _ ____ _ ____ _ ____ _ ____ _ ____
 72
65
 73
4
 40
5.08
 49
3.175
 74
0
 49
-0.635
 74
0
 49
0.635
 74
0
 49
-0.635
 74
0
  0
LTYPE
  5
30
330
2
100
AcDbSymbolTableRecord
100
AcDbLinetypeTableRecord
  2
CENTERX2
 70
0
  3
Center (2x) ________  __  ________  __  ________
 72
65
 73
4
 40
8.89
 49
6.35
 74
0
 49
-0.635
 74
0
 49
1.27
 74
0
 49
-0.635
 74
0
  0
LTYPE
  5
31
330
2
100
AcDbSymbolTableRecord
100
AcDbLinetypeTableRecord
  2
CENTER2
 70
0
  3
Center (.5x) ____ _ ____ _ ____ _ ____ _ ____
 72
65
 73
4
 40
2.54
 49
1.587
 74
0
 49
-0.318
 74
0
 49
0.318
 74
0
 49
-0.318
 74
0
  0
LTYPE
  5
32
330
2
100
AcDbSymbolTableRecord
100
AcDbLinetypeTableRecord
  2
DASHED
 70
0
  3
Dashed __ __ __ __ __ __ __ __ __ __ __ __ __ _
 72
65
 73
2
 40
1.524
 49
1.27
 74
0
 49
-0.254
 74
0
  0
LTYPE
  5
33
330
2
100
AcDbSymbolTableRecord
100
AcDbLinetypeTableRecord
  2
DASHEDX2
 70
0
  3
Dashed (2x) ____  ____  ____  ____  ____  ____
 72
65
 73
2
 40
3.048
 49
2.54
 74
0
 49
-0.508
 74
0
  0
LTYPE
  5
34
330
2
100
AcDbSymbolTableRecord
100
AcDbLinetypeTableRecord
  2
DASHED2
 70
0
  3
Dashed (.5x) _ _ _ _ _ _ _ _ _ _ _ _ _ _
 72
65
 73
2
 40
0.762
 49
0.635
 74
0
 49
-0.127
 74
0
  0
LTYPE
  5
35
330
2
100
AcDbSymbolTableRecord
100
AcDbLinetypeTableRecord
  2
PHANTOM
 70
0
  3
Phantom ______  __  __  ______  __  __  ______
 72
65
 73
6
 40
6.35
 49
3.175
 74
0
 49
-0.635
 74
0
 49
0.635
 74
0
 49
-0.635
 74
0
 49
0.635
 74
0
 49
-0.635
 74
0
  0
LTYPE
  5
36
330
2
100
AcDbSymbolTableRecord
100
AcDbLinetypeTableRecord
  2
PHANTOMX2
 70
0
  3
Phantom (2x)____________    ____    ____    ____________
 72
65
 73
6
 40
10.795
 49
6.35
 74
0
 49
-0.635
 74
0
 49
1.27
 74
0
 49
-0.635
 74
0
 49
1.27
 74
0
 49
-0.635
 74
0
  0
LTYPE
  5
37
330
2
100
AcDbSymbolTableRecord
100
AcDbLinetypeTableRecord
  2
PHANTOM2
 70
0
  3
Phantom (.5x) ___ _ _ ___ _ _ ___ _ _ ___ _ _ ___
 72
65
 73
6
 40
3.175
 49
1.587
 74
0
 49
-0.318
 74
0
 49
0.318
 74
0
 49
-0.318
 74
0
 49
0.318
 74
0
 49
-0.318
 74
0
  0
LTYPE
  5
38
330
2
100
AcDbSymbolTableRecord
100
AcDbLinetypeTableRecord
  2
DASHDOT
 70
0
  3
Dash dot __ . __ . __ . __ . __ . __ . __ . __
 72
65
 73
4
 40
3.556
 49
2.54
 74
0
 49
-0.508
 74
0
 49
0.0
 74
0
 49
-0.508
 74
0
  0
LTYPE
  5
39
330
2
100
AcDbSymbolTableRecord
100
AcDbLinetypeTableRecord
  2
DASHDOTX2
 70
0
  3
Dash dot (2x) ____  .  ____  .  ____  .  ____
 72
65
 73
4
 40
6.096
 49
5.08
 74
0
 49
-0.508
 74
0
 49
0.0
 74
0
 49
-0.508
 74
0
  0
LTYPE
  5
3A
330
2
100
AcDbSymbolTableRecord
100
AcDbLinetypeTableRecord
  2
DASHDOT2
 70
0
  3
Dash dot (.5x) _ . _ . _ . _ . _ . _ . _ . _
 72
65
 73
4
 40
1.778
 49
1.27
 74
0
 49
-0.254
 74
0
 49
0.0
 74
0
 49
-0.254
 74
0
  0
LTYPE
  5
3B
330
2
100
AcDbSymbolTableRecord
100
AcDbLinetypeTableRecord
  2
DOT
 70
0
  3
Dot .  .  .  .  .  .  .  .  .  .  .  .  .  .  .  .
 72
65
 73
2
 40
0.508
 49
0.0
 74
0
 49
-0.508
 74
0
  0
LTYPE
  5
3C
330
2
100
AcDbSymbolTableRecord
100
AcDbLinetypeTableRecord
  2
DOTX2
 70
0
  3
Dot (2x) .    .    .    .    .    .    .    . 
 72
65
 73
2
 40
1.016
 49
0.0
 74
0
 49
-1.016
 74
0
  0
LTYPE
  5
3D
330
2
100
AcDbSymbolTableRecord
100
AcDbLinetypeTableRecord
  2
DOT2
 70
0
  3
Dot (.5) . . . . . . . . . . . . . . . . . . . 
 72
65
 73
2
 40
0.254
 49
0.0
 74
0
 49
-0.254
 74
0
  0
LTYPE
  5
3E
330
2
100
AcDbSymbolTableRecord
100
AcDbLinetypeTableRecord
  2
DIVIDE
 70
0
  3
Divide __ . . __ . . __ . . __ . . __ . . __
 72
65
 73
6
 40
4.064
 49
2.54
 74
0
 49
-0.508
 74
0
 49
0.0
 74
0
 49
-0.508
 74
0
 49
0.0
 74
0
 49
-0.508
 74
0
  0
LTYPE
  5
3F
330
2
100
AcDbSymbolTableRecord
100
AcDbLinetypeTableRecord
  2
DIVIDEX2
 70
0
  3
Divide (2x) ____  . .  ____  . .  ____  . .  ____
 72
65
 73
6
 40
6.604
 49
5.08
 74
0
 49
-0.508
 74
0
 49
0.0
 74
0
 49
-0.508
 74
0
 49
0.0
 74
0
 49
-0.508
 74
0
  0
LTYPE
  5
40
330
2
100
AcDbSymbolTableRecord
100
AcDbLinetypeTableRecord
  2
DIVIDE2
 70
0
  3
Divide(.5x) _ . _ . _ . _ . _ . _ . _ . _
 72
65
 73
6
 40
2.032
 49
1.27
 74
0
 49
-0.254
 74
0
 49
0.0
 74
0
 49
-0.254
 74
0
 49
0.0
 74
0
 49
-0.254
 74
0
  0
ENDTAB
  0
TABLE
  2
LAYER
  5
1
330
0
100
AcDbSymbolTable
 70
8
  0
LAYER
  5
27
330
1
100
AcDbSymbolTableRecord
100
AcDbLayerTableRecord
  2
0
 70
0
 62
7
  6
Continuous
370
-3
390
13
347
21
  0
LAYER
  5
28
330
1
100
AcDbSymbolTableRecord
100
AcDbLayerTableRecord
  2
Defpoints
 70
0
 62
7
  6
Continuous
290
0
370
-3
390
13
347
21
  0
LAYER
  5
8A
330
1
100
AcDbSymbolTableRecord
100
AcDbLayerTableRecord
  2
A-FURN
 70
0
 62
7
  6
Continuous
370
-3
390
13
347
21
  0
LAYER
  5
8B
330
1
100
AcDbSymbolTableRecord
100
AcDbLayerTableRecord
  2
A-ANNO-DIMS
 70
0
 62
7
  6
Continuous
370
-3
390
13
347
21
  0
LAYER
  5
8C
330
1
100
AcDbSymbolTableRecord
100
AcDbLayerTableRecord
  2
ANNO
 70
0
 62
7
  6
Continuous
370
-3
390
13
347
21
  0
LAYER
  5
8D
330
1
100
AcDbSymbolTableRecord
100
AcDbLayerTableRecord
  2
WALL
 70
0
 62
7
  6
Continuous
370
-3
390
13
347
21
  0
LAYER
  5
8E
330
1
100
AcDbSymbolTableRecord
100
AcDbLayerTableRecord
  2
DOOR
 70
0
 62
7
  6
Continuous
370
-3
390
13
347
21
  0
LAYER
  5
8F
330
1
100
AcDbSymbolTableRecord
100
AcDbLayerTableRecord
  2
WINDOW
 70
0
 62
7
  6
Continuous
370
-3
390
13
347
21
  0
ENDTAB
  0
TABLE
  2
STYLE
  5
5
330
0
100
AcDbSymbolTable
 70
26
  0
STYLE
  5
29
330
5
100
AcDbSymbolTableRecord
100
AcDbTextStyleTableRecord
  2
Standard
 70
0
 40
0.0
 41
1.0
 50
0.0
 71
0
 42
2.5
  3
txt
  4

  0
STYLE
  5
41
330
5
100
AcDbSymbolTableRecord
100
AcDbTextStyleTableRecord
  2
OpenSans-Light
 70
0
 40
0.0
 41
1.0
 50
0.0
 71
0
 42
2.5
  3
OpenSans-Light.ttf
  4

  0
STYLE
  5
42
330
5
100
AcDbSymbolTableRecord
100
AcDbTextStyleTableRecord
  2
OpenSans-Light-Italic
 70
0
 40
0.0
 41
1.0
 50
0.0
 71
0
 42
2.5
  3
OpenSans-LightItalic.ttf
  4

  0
STYLE
  5
43
330
5
100
AcDbSymbolTableRecord
100
AcDbTextStyleTableRecord
  2
OpenSans
 70
0
 40
0.0
 41
1.0
 50
0.0
 71
0
 42
2.5
  3
OpenSans-Regular.ttf
  4

  0
STYLE
  5
44
330
5
100
AcDbSymbolTableRecord
100
AcDbTextStyleTableRecord
  2
OpenSans-Italic
 70
0
 40
0.0
 41
1.0
 50
0.0
 71
0
 42
2.5
  3
OpenSans-Italic.ttf
  4

  0
STYLE
  5
45
330
5
100
AcDbSymbolTableRecord
100
AcDbTextStyleTableRecord
  2
OpenSans-SemiBold
 70
0
 40
0.0
 41
1.0
 50
0.0
 71
0
 42
2.5
  3
OpenSans-SemiBold.ttf
  4

  0
STYLE
  5
46
330
5
100
AcDbSymbolTableRecord
100
AcDbTextStyleTableRecord
  2
OpenSans-SemiBoldItalic
 70
0
 40
0.0
 41
1.0
 50
0.0
 71
0
 42
2.5
  3
OpenSans-SemiBoldItalic.ttf
  4

  0
STYLE
  5
47
330
5
100
AcDbSymbolTableRecord
100
AcDbTextStyleTableRecord
  2
OpenSans-Bold
 70
0
 40
0.0
 41
1.0
 50
0.0
 71
0
 42
2.5
  3
OpenSans-Bold.ttf
  4

  0
STYLE
  5
48
330
5
100
AcDbSymbolTableRecord
100
AcDbTextStyleTableRecord
  2
OpenSans-BoldItalic
 70
0
 40
0.0
 41
1.0
 50
0.0
 71
0
 42
2.5
  3
OpenSans-BoldItalic.ttf
  4

  0
STYLE
  5
49
330
5
100
AcDbSymbolTableRecord
100
AcDbTextStyleTableRecord
  2
OpenSans-ExtraBold
 70
0
 40
0.0
 41
1.0
 50
0.0
 71
0
 42
2.5
  3
OpenSans-ExtraBold.ttf
  4

  0
STYLE
  5
4A
330
5
100
AcDbSymbolTableRecord
100
AcDbTextStyleTableRecord
  2
OpenSans-ExtraBoldItalic
 70
0
 40
0.0
 41
1.0
 50
0.0
 71
0
 42
2.5
  3
OpenSans-ExtraBoldItalic.ttf
  4

  0
STYLE
  5
4B
330
5
100
AcDbSymbolTableRecord
100
AcDbTextStyleTableRecord
  2
OpenSansCondensed-Bold
 70
0
 40
0.0
 41
1.0
 50
0.0
 71
0
 42
2.5
  3
OpenSansCondensed-Bold.ttf
  4

  0
STYLE
  5
4C
330
5
100
AcDbSymbolTableRecord
100
AcDbTextStyleTableRecord
  2
OpenSansCondensed-Light
 70
0
 40
0.0
 41
1.0
 50
0.0
 71
0
 42
2.5
  3
OpenSansCondensed-Light.ttf
  4

  0
STYLE
  5
4D
330
5
100
AcDbSymbolTableRecord
100
AcDbTextStyleTableRecord
  2
OpenSansCondensed-Italic
 70
0
 40
0.0
 41
1.0
 50
0.0
 71
0
 42
2.5
  3
OpenSansCondensed-LightItalic.ttf
  4

  0
STYLE
  5
4E
330
5
100
AcDbSymbolTableRecord
100
AcDbTextStyleTableRecord
  2
LiberationSans
 70
0
 40
0.0
 41
1.0
 50
0.0
 71
0
 42
2.5
  3
LiberationSans-Regular.ttf
  4

  0
STYLE
  5
4F
330
5
100
AcDbSymbolTableRecord
100
AcDbTextStyleTableRecord
  2
LiberationSans-Bold
 70
0
 40
0.0
 41
1.0
 50
0.0
 71
0
 42
2.5
  3
LiberationSans-Bold.ttf
  4

  0
STYLE
  5
50
330
5
100
AcDbSymbolTableRecord
100
AcDbTextStyleTableRecord
  2
LiberationSans-BoldItalic
 70
0
 40
0.0
 41
1.0
 50
0.0
 71
0
 42
2.5
  3
LiberationSans-BoldItalic.ttf
  4

  0
STYLE
  5
51
330
5
100
AcDbSymbolTableRecord
100
AcDbTextStyleTableRecord
  2
LiberationSans-Italic
 70
0
 40
0.0
 41
1.0
 50
0.0
 71
0
 42
2.5
  3
LiberationSans-Italic.ttf
  4

  0
STYLE
  5
52
330
5
100
AcDbSymbolTableRecord
100
AcDbTextStyleTableRecord
  2
LiberationSerif
 70
0
 40
0.0
 41
1.0
 50
0.0
 71
0
 42
2.5
  3
LiberationSerif-Regular.ttf
  4

  0
STYLE
  5
53
330
5
100
AcDbSymbolTableRecord
100
AcDbTextStyleTableRecord
  2
LiberationSerif-Bold
 70
0
 40
0.0
 41
1.0
 50
0.0
 71
0
 42
2.5
  3
LiberationSerif-Bold.ttf
  4

  0
STYLE
  5
54
330
5
100
AcDbSymbolTableRecord
100
AcDbTextStyleTableRecord
  2
LiberationSerif-BoldItalic
 70
0
 40
0.0
 41
1.0
 50
0.0
 71
0
 42
2.5
  3
LiberationSerif-BoldItalic.ttf
  4

  0
STYLE
  5
55
330
5
100
AcDbSymbolTableRecord
100
AcDbTextStyleTableRecord
  2
LiberationSerif-Italic
 70
0
 40
0.0
 41
1.0
 50
0.0
 71
0
 42
2.5
  3
LiberationSerif-Italic.ttf
  4

  0
STYLE
  5
56
330
5
100
AcDbSymbolTableRecord
100
AcDbTextStyleTableRecord
  2
LiberationMono
 70
0
 40
0.0
 41
1.0
 50
0.0
 71
0
 42
2.5
  3
LiberationMono-Regular.ttf
  4

  0
STYLE
  5
57
330
5
100
AcDbSymbolTableRecord
100
AcDbTextStyleTableRecord
  2
LiberationMono-Bold
 70
0
 40
0.0
 41
1.0
 50
0.0
 71
0
 42
2.5
  3
LiberationMono-Bold.ttf
  4

  0
STYLE
  5
58
330
5
100
AcDbSymbolTableRecord
100
AcDbTextStyleTableRecord
  2
LiberationMono-BoldItalic
 70
0
 40
0.0
 41
1.0
 50
0.0
 71
0
 42
2.5
  3
LiberationMono-BoldItalic.ttf
  4

  0
STYLE
  5
59
330
5
100
AcDbSymbolTableRecord
100
AcDbTextStyleTableRecord
  2
LiberationMono-Italic
 70
0
 40
0.0
 41
1.0
 50
0.0
 71
0
 42
2.5
  3
LiberationMono-Italic.ttf
  4

  0
ENDTAB
  0
TABLE
  2
VIEW
  5
7
330
0
100
AcDbSymbolTable
 70
0
  0
ENDTAB
  0
TABLE
  2
UCS
  5
6
330
0
100
AcDbSymbolTable
 70
0
  0
ENDTAB
  0
TABLE
  2
APPID
  5
3
330
0
100
AcDbSymbolTable
 70
3
  0
APPID
  5
2A
330
3
100
AcDbSymbolTableRecord
100
AcDbRegAppTableRecord
  2
ACAD
 70
0
  0
APPID
  5
F8
330
3
100
AcDbSymbolTableRecord
100
AcDbRegAppTableRecord
  2
HATCHBACKGROUNDCOLOR
 70
0
  0
APPID
  5
F9
330
3
100
AcDbSymbolTableRecord
100
AcDbRegAppTableRecord
  2
EZDXF
 70
0
  0
ENDTAB
  0
TABLE
  2
DIMSTYLE
  5
4
330
0
100
AcDbSymbolTable
 70
12
100
AcDbDimStyleTable
  0
DIMSTYLE
105
2B
330
4
100
AcDbSymbolTableRecord
100
AcDbDimStyleTableRecord
  2
Standard
 70
0
 40
1.0
 41
2.5
 42
0.625
 43
3.75
 44
1.25
 45
0.0
 46
0.0
 47
0.0
 48
0.0
 49
2.5
140
2.5
141
2.5
142
0.0
143
0.03937007874
144
1.0
145
0.0
146
1.0
147
0.625
148
0.0
 69
0
 70
0
 71
0
 72
0
 73
0
 74
0
 75
0
 76
0
 77
1
 78
8
 79
3
170
0
171
3
172
1
173
0
174
0
175
0
176
0
177
0
178
0
179
2
271
2
272
2
273
2
274
3
275
0
276
0
277
2
278
44
279
0
280
0
281
0
282
0
283
0
284
8
285
0
286
0
288
0
289
3
290
0
371
-2
372
-2
  0
DIMSTYLE
105
73
330
4
100
AcDbSymbolTableRecord
100
AcDbDimStyleTableRecord
  2
EZDXF
 70
0
 40
1.0
 41
0.175
 42
0.125
 43
3.75
 44
0.375
 45
0.0
 46
0.0
 47
0.0
 48
0.0
 49
2.5
140
0.25
141
2.5
142
0.0
143
0.03937007874
144
100.0
145
0.0
146
0.5
147
0.1
148
0.0
 69
0
 70
0
 71
0
 72
0
 73
0
 74
0
 75
0
 76
0
 77
1
 78
12
 79
3
170
0
171
3
172
1
173
0
174
0
175
0
176
0
177
0
178
0
179
2
271
2
272
2
273
2
274
3
275
0
276
0
277
2
278
46
279
2
280
0
281
0
282
0
283
0
284
8
285
0
286
0
288
1
289
3
290
0
340
4C
342
74
371
-2
372
-2
  0
DIMSTYLE
105
7C
330
4
100
AcDbSymbolTableRecord
100
AcDbDimStyleTableRecord
  2
EZ_M_100_H25_CM
 70
0
 40
1.0
 41
0.25
 42
0.125
 43
3.75
 44
0.375
 45
0.0
 46
0.0
 47
0.0
 48
0.0
 49
2.5
140
0.25
141
2.5
142
0.125
143
0.03937007874
144
100.0
145
0.0
146
0.5
147
0.1
148
0.0
 69
0
 70
0
 71
0
 72
0
 73
0
 74
0
 75
0
 76
0
 77
1
 78
12
 79
3
170
0
171
3
172
1
173
0
174
0
175
0
176
0
177
0
178
0
179
2
271
2
272
2
273
2
274
3
275
0
276
0
277
2
278
46
279
2
280
0
281
0
282
0
283
0
284
8
285
0
286
0
288
1
289
3
290
0
340
4C
371
-2
372
-2
  0
DIMSTYLE
105
7D
330
4
100
AcDbSymbolTableRecord
100
AcDbDimStyleTableRecord
  2
EZ_M_50_H25_CM
 70
0
 40
1.0
 41
0.125
 42
0.0625
 43
3.75
 44
0.1875
 45
0.0
 46
0.0
 47
0.0
 48
0.0
 49
2.5
140
0.125
141
2.5
142
0.0625
143
0.03937007874
144
100.0
145
0.0
146
0.5
147
0.05
148
0.0
 69
0
 70
0
 71
0
 72
0
 73
0
 74
0
 75
0
 76
0
 77
1
 78
12
 79
3
170
0
171
3
172
1
173
0
174
0
175
0
176
0
177
0
178
0
179
2
271
2
272
2
273
2
274
3
275
0
276
0
277
2
278
46
279
2
280
0
281
0
282
0
283
0
284
8
285
0
286
0
288
1
289
3
290
0
340
4C
371
-2
372
-2
  0
DIMSTYLE
105
7E
330
4
100
AcDbSymbolTableRecord
100
AcDbDimStyleTableRecord
  2
EZ_M_25_H25_CM
 70
0
 40
1.0
 41
0.0625
 42
0.03125
 43
3.75
 44
0.09375
 45
0.0
 46
0.0
 47
0.0
 48
0.0
 49
2.5
140
0.0625
141
2.5
142
0.03125
143
0.03937007874
144
100.0
145
0.0
146
0.5
147
0.025
148
0.0
 69
0
 70
0
 71
0
 72
0
 73
0
 74
0
 75
0
 76
0
 77
1
 78
12
 79
3
170
0
171
3
172
1
173
0
174
0
175
0
176
0
177
0
178
0
179
2
271
2
272
2
273
2
274
3
275
0
276
0
277
2
278
46
279
2
280
0
281
0
282
0
283
0
284
8
285
0
286
0
288
1
289
3
290
0
340
4C
371
-2
372
-2
  0
DIMSTYLE
105
7F
330
4
100
AcDbSymbolTableRecord
100
AcDbDimStyleTableRecord
  2
EZ_M_20_H25_CM
 70
0
 40
1.0
 41
0.05
 42
0.025
 43
3.75
 44
0.07500000000000001
 45
0.0
 46
0.0
 47
0.0
 48
0.0
 49
2.5
140
0.05
141
2.5
142
0.025
143
0.03937007874
144
100.0
145
0.0
146
0.5
147
0.020000000000000004
148
0.0
 69
0
 70
0
 71
0
 72
0
 73
0
 74
0
 75
0
 76
0
 77
1
 78
12
 79
3
170
0
171
3
172
1
173
0
174
0
175
0
176
0
177
0
178
0
179
2
271
2
272
2
273
2
274
3
275
0
276
0
277
2
278
46
279
2
280
0
281
0
282
0
283
0
284
8
285
0
286
0
288
1
289
3
290
0
340
4C
371
-2
372
-2
  0
DIMSTYLE
105
80
330
4
100
AcDbSymbolTableRecord
100
AcDbDimStyleTableRecord
  2
EZ_M_10_H25_CM
 70
0
 40
1.0
 41
0.025
 42
0.0125
 43
3.75
 44
0.037500000000000006
 45
0.0
 46
0.0
 47
0.0
 48
0.0
 49
2.5
140
0.025
141
2.5
142
0.0125
143
0.03937007874
144
100.0
145
0.0
146
0.5
147
0.010000000000000002
148
0.0
 69
0
 70
0
 71
0
 72
0
 73
0
 74
0
 75
0
 76
0
 77
1
 78
12
 79
3
170
0
171
3
172
1
173
0
174
0
175
0
176
0
177
0
178
0
179
2
271
2
272
2
273
2
274
3
275
0
276
0
277
2
278
46
279
2
280
0
281
0
282
0
283
0
284
8
285
0
286
0
288
1
289
3
290
0
340
4C
371
-2
372
-2
  0
DIMSTYLE
105
81
330
4
100
AcDbSymbolTableRecord
100
AcDbDimStyleTableRecord
  2
EZ_M_5_H25_CM
 70
0
 40
1.0
 41
0.0125
 42
0.00625
 43
3.75
 44
0.018750000000000003
 45
0.0
 46
0.0
 47
0.0
 48
0.0
 49
2.5
140
0.0125
141
2.5
142
0.00625
143
0.03937007874
144
100.0
145
0.0
146
0.5
147
0.005000000000000001
148
0.0
 69
0
 70
0
 71
0
 72
0
 73
0
 74
0
 75
0
 76
0
 77
1
 78
12
 79
3
170
0
171
3
172
1
173
0
174
0
175
0
176
0
177
0
178
0
179
2
271
2
272
2
273
2
274
3
275
0
276
0
277
2
278
46
279
2
280
0
281
0
282
0
283
0
284
8
285
0
286
0
288
1
289
3
290
0
340
4C
371
-2
372
-2
  0
DIMSTYLE
105
82
330
4
100
AcDbSymbolTableRecord
100
AcDbDimStyleTableRecord
  2
EZ_M_1_H25_CM
 70
0
 40
1.0
 41
0.0025
 42
0.00125
 43
3.75
 44
0.00375
 45
0.0
 46
0.0
 47
0.0
 48
0.0
 49
2.5
140
0.0025
141
2.5
142
0.00125
143
0.03937007874
144
100.0
145
0.0
146
0.5
147
0.001
148
0.0
 69
0
 70
0
 71
0
 72
0
 73
0
 74
0
 75
0
 76
0
 77
1
 78
12
 79
3
170
0
171
3
172
1
173
0
174
0
175
0
176
0
177
0
178
0
179
2
271
2
272
2
273
2
274
3
275
0
276
0
277
2
278
46
279
2
280
0
281
0
282
0
283
0
284
8
285
0
286
0
288
1
289
3
290
0
340
4C
371
-2
372
-2
  0
DIMSTYLE
105
83
330
4
100
AcDbSymbolTableRecord
100
AcDbDimStyleTableRecord
  2
EZ_RADIUS
 70
0
 40
1.0
 41
0.25
 42
0.125
 43
3.75
 44
0.375
 45
0.0
 46
0.0
 47
0.0
 48
0.0
 49
2.5
140
0.25
141
0.0
142
0.0
143
0.03937007874
144
100.0
145
0.0
146
0.5
147
0.1
148
0.0
 69
0
 70
0
 71
0
 72
0
 73
0
 74
0
 75
0
 76
0
 77
1
 78
12
 79
3
170
0
171
3
172
0
173
0
174
0
175
0
176
0
177
0
178
0
179
2
271
2
272
2
273
2
274
3
275
0
276
0
277
2
278
46
279
1
280
0
281
0
282
0
283
0
284
8
285
0
286
0
288
1
289
3
290
0
340
4C
342
84
371
-2
372
-2
  0
DIMSTYLE
105
88
330
4
100
AcDbSymbolTableRecord
100
AcDbDimStyleTableRecord
  2
EZ_RADIUS_INSIDE
 70
0
 40
1.0
 41
0.25
 42
0.125
 43
3.75
 44
0.375
 45
0.0
 46
0.0
 47
0.0
 48
0.0
 49
2.5
140
0.25
141
0.0
142
0.0
143
0.03937007874
144
100.0
145
0.0
146
0.5
147
0.1
148
0.0
 69
0
 70
0
 71
0
 72
0
 73
0
 74
0
 75
0
 76
0
 77
0
 78
12
 79
3
170
0
171
3
172
0
173
0
174
1
175
0
176
0
177
0
178
0
179
2
271
2
272
2
273
2
274
3
275
0
276
0
277
2
278
46
279
0
280
0
281
0
282
0
283
0
284
8
285
0
286
0
288
1
289
0
290
0
340
4C
342
84
371
-2
372
-2
  0
DIMSTYLE
105
89
330
4
100
AcDbSymbolTableRecord
100
AcDbDimStyleTableRecord
  2
EZ_CURVED
 70
0
 40
1.0
 41
0.25
 42
0.125
 43
3.75
 44
0.375
 45
0.0
 46
0.0
 47
0.0
 48
0.0
 49
2.5
140
0.25
141
2.5
142
0.0
143
0.03937007874
144
100.0
145
0.0
146
0.5
147
0.1
148
0.0
 69
0
 70
0
 71
0
 72
0
 73
0
 74
0
 75
0
 76
0
 77
1
 78
12
 79
2
 90
2
170
0
171
3
172
1
173
0
174
0
175
0
176
0
177
0
178
0
179
2
271
2
272
2
273
2
274
3
275
0
276
0
277
2
278
46
279
2
280
0
281
0
282
0
283
0
284
8
285
0
286
0
288
1
289
3
290
0
340
4C
371
-2
372
-2
  0
ENDTAB
  0
TABLE
  2
BLOCK_RECORD
  5
9
330
0
100
AcDbSymbolTable
 70
7
  0
BLOCK_RECORD
  5
17
330
9
100
AcDbSymbolTableRecord
100
AcDbBlockTableRecord
  2
*Model_Space
340
1A
 70
0
280
1
281
0
  0
BLOCK_RECORD
  5
1B
330
9
100
AcDbSymbolTableRecord
100
AcDbBlockTableRecord
  2
*Paper_Space
340
1E
 70
0
280
1
281
0
  0
BLOCK_RECORD
  5
74
330
9
100
AcDbSymbolTableRecord
100
AcDbBlockTableRecord
  2
_ARCHTICK
340
0
 70
0
280
1
281
0
  0
BLOCK_RECORD
  5
78
330
9
100
AcDbSymbolTableRecord
100
AcDbBlockTableRecord
  2
_CLOSEDFILLED
340
0
 70
0
280
1
281
0
  0
BLOCK_RECORD
  5
84
330
9
100
AcDbSymbolTableRecord
100
AcDbBlockTableRecord
  2
_CLOSEDBLANK
340
0
 70
0
280
1
281
0
  0
BLOCK_RECORD
  5
D9
330
9
100
AcDbSymbolTableRecord
100
AcDbBlockTableRecord
  2
*D1
340
0
 70
0
280
1
281
0
  0
BLOCK_RECORD
  5
E8
330
9
100
AcDbSymbolTableRecord
100
AcDbBlockTableRecord
  2
*D2
340
0
 70
0
280
1
281
0
  0
ENDTAB
  0
ENDSEC
  0
SECTION
  2
BLOCKS
  0
BLOCK
  5
18
330
17
100
AcDbEntity
  8
0
100
AcDbBlockBegin
  2
*Model_Space
 70
0
 10
0.0
 20
0.0
 30
0.0
  3
*Model_Space
  1

  0
ENDBLK
  5
19
330
17
100
AcDbEntity
  8
0
100
AcDbBlockEnd
  0
BLOCK
  5
1C
330
1B
100
AcDbEntity
  8
0
100
AcDbBlockBegin
  2
*Paper_Space
 70
0
 10
0.0
 20
0.0
 30
0.0
  3
*Paper_Space
  1

  0
ENDBLK
  5
1D
330
1B
100
AcDbEntity
  8
0
100
AcDbBlockEnd
  0
BLOCK
  5
75
330
74
100
AcDbEntity
  8
0
100
AcDbBlockBegin
  2
_ARCHTICK
 70
0
 10
0.0
 20
0.0
 30
0.0
  3
_ARCHTICK
  1

  0
LWPOLYLINE
  5
77
330
74
100
AcDbEntity
  8
0
  6
BYBLOCK
 62
0
100
AcDbPolyline
 90
2
 70
0
 43
0.15
 10
-0.5
 20
-0.5
 10
0.5
 20
0.5
  0
ENDBLK
  5
76
330
74
100
AcDbEntity
  8
0
100
AcDbBlockEnd
  0
BLOCK
  5
79
330
78
100
AcDbEntity
  8
0
100
AcDbBlockBegin
  2
_CLOSEDFILLED
 70
0
 10
0.0
 20
0.0
 30
0.0
  3
_CLOSEDFILLED
  1

  0
SOLID
  5
7B
330
78
100
AcDbEntity
  8
0
  6
BYBLOCK
 62
0
100
AcDbTrace
 10
-1.0
 20
0.16439898372402537
 30
0.0
 11
0.0
 21
0.0
 31
0.0
 12
-1.0
 22
-0.16439898372402537
 32
0.0
 13
-1.0
 23
-0.16439898372402537
 33
0.0
  0
ENDBLK
  5
7A
330
78
100
AcDbEntity
  8
0
100
AcDbBlockEnd
  0
BLOCK
  5
85
330
84
100
AcDbEntity
  8
0
100
AcDbBlockBegin
  2
_CLOSEDBLANK
 70
0
 10
0.0
 20
0.0
 30
0.0
  3
_CLOSEDBLANK
  1

  0
LWPOLYLINE
  5
87
330
84
100
AcDbEntity
  8
0
  6
BYBLOCK
 62
0
100
AcDbPolyline
 90
3
 70
1
 10
-1.0
 20
0.16439898372402537
 10
0.0
 20
0.0
 10
-1.0
 20
-0.16439898372402537
  0
ENDBLK
  5
86
330
84
100
AcDbEntity
  8
0
100
AcDbBlockEnd
  0
BLOCK
  5
DA
330
D9
100
AcDbEntity
  8
0
100
AcDbBlockBegin
  2
*D1
 70
1
 10
0.0
 20
0.0
 30
0.0
  3
*D1
  1

  0
LINE
  5
DC
330
D9
100
AcDbEntity
  8
0
100
AcDbLine
 10
-8.100365896590763
 20
44.832030726078735
 30
0.0
 11
-8.100365896590763
 21
5.211951985921254
 31
0.0
  0
LINE
  5
DD
330
D9
100
AcDbEntity
  8
0
100
AcDbLine
 10
634.2586497030568
 20
44.832030726078735
 30
0.0
 11
634.2586497030568
 21
5.211951985921254
 31
0.0
  0
INSERT
  5
DE
330
D9
100
AcDbEntity
  8
A-ANNO-DIMS
100
AcDbBlockReference
  2
_ARCHTICK
 10
-8.100365896590763
 20
5.586951985921254
 30
0.0
 41
0.175
 42
0.175
 50
180.0
  0
INSERT
  5
E0
330
D9
100
AcDbEntity
  8
A-ANNO-DIMS
100
AcDbBlockReference
  2
_ARCHTICK
 10
634.2586497030568
 20
5.586951985921254
 30
0.0
 41
0.175
 42
0.175
  0
LINE
  5
E2
330
D9
100
AcDbEntity
  8
0
100
AcDbLine
 10
-8.100365896590763
 20
5.586951985921254
 30
0.0
 11
634.2586497030568
 21
5.586951985921254
 31
0.0
  0
MTEXT
  5
E3
330
D9
100
AcDbEntity
  8
A-ANNO-DIMS
100
AcDbMText
 10
313.07914190323305
 20
5.811951985921254
 30
0.0
 40
0.25
 71
5
  1
64235.9
  7
OpenSansCondensed-Light
  0
POINT
  5
E4
330
D9
100
AcDbEntity
  8
Defpoints
100
AcDbPoint
 10
-8.100365896590763
 20
5.586951985921254
 30
0.0
  0
POINT
  5
E5
330
D9
100
AcDbEntity
  8
Defpoints
100
AcDbPoint
 10
-8.100365896590763
 20
44.957030726078735
 30
0.0
  0
POINT
  5
E6
330
D9
100
AcDbEntity
  8
Defpoints
100
AcDbPoint
 10
634.2586497030568
 20
44.957030726078735
 30
0.0
  0
ENDBLK
  5
DB
330
D9
100
AcDbEntity
  8
0
100
AcDbBlockEnd
  0
BLOCK
  5
E9
330
E8
100
AcDbEntity
  8
0
100
AcDbBlockBegin
  2
*D2
 70
1
 10
0.0
 20
0.0
 30
0.0
  3
*D2
  1

  0
LINE
  5
EB
330
E8
100
AcDbEntity
  8
0
100
AcDbLine
 10
-8.225365896590763
 20
44.957030726078735
 30
0.0
 11
-47.84544463674824
 21
44.957030726078735
 31
0.0
  0
LINE
  5
EC
330
E8
100
AcDbEntity
  8
0
100
AcDbLine
 10
-8.225365896590763
 20
581.2012530803873
 30
0.0
 11
-47.84544463674824
 21
581.2012530803873
 31
0.0
  0
INSERT
  5
ED
330
E8
100
AcDbEntity
  8
A-ANNO-DIMS
100
AcDbBlockReference
  2
_ARCHTICK
 10
-47.47044463674824
 20
44.957030726078735
 30
0.0
 41
0.175
 42
0.175
 50
270.0
  0
INSERT
  5
EF
330
E8
100
AcDbEntity
  8
A-ANNO-DIMS
100
AcDbBlockReference
  2
_ARCHTICK
 10
-47.47044463674824
 20
581.2012530803873
 30
0.0
 41
0.175
 42
0.175
 50
90.0
  0
LINE
  5
F1
330
E8
100
AcDbEntity
  8
0
100
AcDbLine
 10
-47.47044463674824
 20
44.957030726078735
 30
0.0
 11
-47.47044463674824
 21
581.2012530803873
 31
0.0
  0
MTEXT
  5
F2
330
E8
100
AcDbEntity
  8
A-ANNO-DIMS
100
AcDbMText
 10
-47.69544463674824
 20
313.07914190323305
 30
0.0
 40
0.25
 71
5
  1
53624.42
  7
OpenSansCondensed-Light
 50
90.0
  0
POINT
  5
F3
330
E8
100
AcDbEntity
  8
Defpoints
100
AcDbPoint
 10
-47.47044463674824
 20
44.957030726078735
 30
0.0
  0
POINT
  5
F4
330
E8
100
AcDbEntity
  8
Defpoints
100
AcDbPoint
 10
-8.100365896590763
 20
44.957030726078735
 30
0.0
  0
POINT
  5
F5
330
E8
100
AcDbEntity
  8
Defpoints
100
AcDbPoint
 10
-8.100365896590763
 20
581.2012530803873
 30
0.0
  0
ENDBLK
  5
EA
330
E8
100
AcDbEntity
  8
0
100
AcDbBlockEnd
  0
ENDSEC
  0
SECTION
  2
ENTITIES
  0
LWPOLYLINE
  5
90
330
17
100
AcDbEntity
  8
WALL
100
AcDbPolyline
 90
6
 70
1
 10
624.5382106271479
 20
54.67746980198766
 10
624.5382106271479
 20
158.5646624257642
 10
634.2586497030568
 20
158.5646624257642
 10
634.2586497030568
 20
44.957030726078735
 10
520.8535271507861
 20
44.957030726078735
 10
520.8535271507861
 20
54.67746980198766
  0
LWPOLYLINE
  5
91
330
17
100
AcDbEntity
  8
WALL
100
AcDbPolyline
 90
10
 70
1
 10
624.5382106271479
 20
201.09158338286574
 10
624.5382106271479
 20
213.44464137516664
 10
413.9286973157881
 20
213.44464137516664
 10
413.9286973157881
 20
223.16508045107554
 10
575.1259786579442
 20
223.16508045107554
 10
575.1259786579442
 20
237.7457390649389
 10
584.8464177338532
 20
237.7457390649389
 10
584.8464177338532
 20
223.16508045107554
 10
634.2586497030568
 20
223.16508045107554
 10
634.2586497030568
 20
201.09158338286574
  0
LWPOLYLINE
  5
92
330
17
100
AcDbEntity
  8
WALL
100
AcDbPolyline
 90
12
 70
1
 10
586.4664909131714
 20
389.22258133118623
 10
584.8464177338532
 20
389.22258133118623
 10
584.8464177338532
 20
377.8820690759591
 10
575.1259786579442
 20
377.8820690759591
 10
575.1259786579442
 20
389.22258133118623
 10
480.35169766783235
 20
389.22258133118623
 10
480.35169766783235
 20
398.94302040709516
 10
543.5345516612402
 20
398.94302040709516
 10
543.5345516612402
 20
424.8641912761856
 10
553.2549907371491
 20
424.8641912761856
 10
553.2549907371491
 20
398.94302040709516
 10
586.4664909131714
 20
398.94302040709516
  0
LWPOLYLINE
  5
93
330
17
100
AcDbEntity
  8
WALL
100
AcDbPolyline
 90
6
 70
1
 10
551.634917557831
 20
581.2012530803873
 10
551.634917557831
 20
501.0076307041388
 10
541.9144784819222
 20
501.0076307041388
 10
541.9144784819222
 20
571.4808140044784
 10
490.0721367437412
 20
571.4808140044784
 10
490.0721367437412
 20
581.2012530803873
  0
LWPOLYLINE
  5
94
330
17
100
AcDbEntity
  8
WALL
100
AcDbPolyline
 90
8
 70
1
 10
452.81045361942375
 20
44.957030726078735
 10
388.8175630363567
 20
44.957030726078735
 10
388.8175630363567
 20
54.67746980198766
 10
413.9286973157881
 20
54.67746980198766
 10
413.9286973157881
 20
82.21871385039626
 10
423.64913639169697
 20
82.21871385039626
 10
423.64913639169697
 20
54.67746980198766
 10
452.81045361942375
 20
54.67746980198766
  0
LWPOLYLINE
  5
95
330
17
100
AcDbEntity
  8
WALL
100
AcDbPolyline
 90
8
 70
1
 10
362.89639216726624
 20
571.4808140044784
 10
362.89639216726624
 20
581.2012530803873
 10
449.57030726078744
 20
581.2012530803873
 10
449.57030726078744
 20
571.4808140044784
 10
404.2082582398791
 20
571.4808140044784
 10
404.2082582398791
 20
509.91803319038866
 10
394.4878191639702
 20
509.91803319038866
 10
394.4878191639702
 20
571.4808140044784
  0
LWPOLYLINE
  5
96
330
17
100
AcDbEntity
  8
WALL
100
AcDbPolyline
 90
16
 70
1
 10
423.64913639169697
 20
166.4625191749402
 10
423.64913639169697
 20
116.24025061607746
 10
413.9286973157881
 20
116.24025061607746
 10
413.9286973157881
 20
156.74208009903128
 10
324.8246724532896
 20
156.74208009903128
 10
324.8246724532896
 20
54.67746980198766
 10
361.27631898794806
 20
54.67746980198766
 10
361.27631898794806
 20
44.957030726078735
 10
294.04328204624477
 20
44.957030726078735
 10
294.04328204624477
 20
54.67746980198766
 10
315.1042333773807
 20
54.67746980198766
 10
315.1042333773807
 20
156.74208009903128
 10
227.62028169420046
 20
156.74208009903128
 10
227.62028169420046
 20
116.24025061607746
 10
217.89984261829156
 20
116.24025061607746
 10
217.89984261829156
 20
166.4625191749402
  0
LWPOLYLINE
  5
97
330
17
100
AcDbEntity
  8
WALL
100
AcDbPolyline
 90
28
 70
1
 10
373.42686783283426
 20
389.22258133118623
 10
373.42686783283426
 20
398.94302040709516
 10
394.4878191639702
 20
398.94302040709516
 10
394.4878191639702
 20
452.4054353245942
 10
324.8246724532896
 20
452.4054353245942
 10
324.8246724532896
 20
398.94302040709516
 10
330.4949285809032
 20
398.94302040709516
 10
330.4949285809032
 20
389.22258133118623
 10
294.04328204624477
 20
389.22258133118623
 10
294.04328204624477
 20
398.94302040709516
 10
315.1042333773807
 20
398.94302040709516
 10
315.1042333773807
 20
452.4054353245942
 10
233.29053782181398
 20
452.4054353245942
 10
233.29053782181398
 20
449.1652889659578
 10
223.57009874590509
 20
449.1652889659578
 10
223.57009874590509
 20
487.2370086799345
 10
233.29053782181398
 20
487.2370086799345
 10
233.29053782181398
 20
462.1258744005031
 10
315.1042333773807
 20
462.1258744005031
 10
315.1042333773807
 20
571.4808140044784
 10
281.08269661169953
 20
571.4808140044784
 10
281.08269661169953
 20
581.2012530803873
 10
336.9752212981758
 20
581.2012530803873
 10
336.9752212981758
 20
571.4808140044784
 10
324.8246724532896
 20
571.4808140044784
 10
324.8246724532896
 20
462.1258744005031
 10
404.2082582398791
 20
462.1258744005031
 10
404.2082582398791
 20
389.22258133118623
  0
LWPOLYLINE
  5
98
330
17
100
AcDbEntity
  8
WALL
100
AcDbPolyline
 90
8
 70
1
 10
267.3120745874952
 20
44.957030726078735
 10
147.4266593179519
 20
44.957030726078735
 10
147.4266593179519
 20
54.67746980198766
 10
217.89984261829156
 20
54.67746980198766
 10
217.89984261829156
 20
82.21871385039626
 10
227.62028169420046
 20
82.21871385039626
 10
227.62028169420046
 20
54.67746980198766
 10
267.3120745874952
 20
54.67746980198766
  0
LWPOLYLINE
  5
99
330
17
100
AcDbEntity
  8
WALL
100
AcDbPolyline
 90
6
 70
1
 10
223.57009874590509
 20
581.2012530803873
 10
255.1615257426091
 20
581.2012530803873
 10
255.1615257426091
 20
571.4808140044784
 10
233.29053782181398
 20
571.4808140044784
 10
233.29053782181398
 20
525.3087283939111
 10
223.57009874590509
 20
525.3087283939111
  0
LWPOLYLINE
  5
9A
330
17
100
AcDbEntity
  8
WALL
100
AcDbPolyline
 90
14
 70
1
 10
1.6200731793181529
 20
477.51656960402556
 10
1.6200731793181529
 20
398.94302040709516
 10
233.29053782181398
 20
398.94302040709516
 10
233.29053782181398
 20
389.22258133118623
 10
1.6200731793181529
 20
389.22258133118623
 10
1.6200731793181529
 20
374.64192271732287
 10
-8.100365896590764
 20
374.64192271732287
 10
-8.100365896590764
 20
581.2012530803873
 10
42.93193925193105
 20
581.2012530803873
 10
42.93193925193105
 20
571.4808140044784
 10
1.6200731793181529
 20
571.4808140044784
 10
1.6200731793181529
 20
487.2370086799345
 10
21.870987920795063
 20
487.2370086799345
 10
21.870987920795063
 20
477.51656960402556
  0
LWPOLYLINE
  5
9B
330
17
100
AcDbEntity
  8
WALL
100
AcDbPolyline
 90
14
 70
1
 10
21.870987920795063
 20
125.96068969198639
 10
1.6200731793181529
 20
125.96068969198639
 10
1.6200731793181529
 20
54.67746980198766
 10
80.19362237624857
 20
54.67746980198766
 10
80.19362237624857
 20
44.957030726078735
 10
-8.100365896590764
 20
44.957030726078735
 10
-8.100365896590764
 20
231.2654463476663
 10
1.6200731793181529
 20
231.2654463476663
 10
1.6200731793181529
 20
223.16508045107554
 10
227.62028169420046
 20
223.16508045107554
 10
227.62028169420046
 20
213.44464137516664
 10
1.6200731793181529
 20
213.44464137516664
 10
1.6200731793181529
 20
135.6811287678953
 10
21.870987920795063
 20
135.6811287678953
  0
LWPOLYLINE
  5
9C
330
17
100
AcDbEntity
  8
WALL
100
AcDbPolyline
 90
4
 70
1
 10
83.43376873488486
 20
571.4808140044784
 10
83.43376873488486
 20
581.2012530803873
 10
181.44819608363312
 20
581.2012530803873
 10
181.44819608363312
 20
571.4808140044784
  0
LWPOLYLINE
  5
9D
330
17
100
AcDbEntity
  8
WALL
100
AcDbPolyline
 90
4
 70
1
 10
-8.100365896590764
 20
321.1795077998238
 10
1.6200731793181529
 20
321.1795077998238
 10
1.6200731793181529
 20
275.8174587789155
 10
-8.100365896590764
 20
275.8174587789155
  0
LWPOLYLINE
  5
9E
330
17
100
AcDbEntity
  8
DOOR
100
AcDbPolyline
 90
4
 70
1
 10
423.64913639169686
 20
82.21871385039623
 10
423.649136391697
 20
116.24025061607745
 10
413.9286973157882
 20
116.24025061607749
 10
413.9286973157881
 20
82.21871385039627
  0
ARC
  5
9F
330
17
100
AcDbEntity
  8
DOOR
100
AcDbCircle
 10
418.7889168537425
 20
82.21871385039626
 30
0.0
 40
34.02153676568121
100
AcDbArc
 50
89.99999999999989
 51
179.9999999999999
  0
LINE
  5
A0
330
17
100
AcDbEntity
  8
DOOR
100
AcDbLine
 10
418.7889168537425
 20
82.21871385039626
 30
0.0
 11
384.76738008806126
 21
82.21871385039633
 31
0.0
  0
LWPOLYLINE
  5
A1
330
17
100
AcDbEntity
  8
DOOR
100
AcDbPolyline
 90
4
 70
1
 10
423.649136391697
 20
166.4625191749402
 10
423.649136391697
 20
213.44464137516664
 10
413.9286973157881
 20
213.44464137516664
 10
413.9286973157881
 20
166.4625191749402
  0
ARC
  5
A2
330
17
100
AcDbEntity
  8
DOOR
100
AcDbCircle
 10
418.78891685374253
 20
166.4625191749402
 30
0.0
 40
46.98212220022642
100
AcDbArc
 50
90.0
 51
180.0
  0
LINE
  5
A3
330
17
100
AcDbEntity
  8
DOOR
100
AcDbLine
 10
418.78891685374253
 20
166.4625191749402
 30
0.0
 11
371.80679465351614
 21
166.4625191749402
 31
0.0
  0
LWPOLYLINE
  5
A4
330
17
100
AcDbEntity
  8
DOOR
100
AcDbPolyline
 90
4
 70
1
 10
233.29053782181404
 20
398.94302040709516
 10
233.29053782181404
 20
449.16528896595776
 10
223.57009874590509
 20
449.16528896595776
 10
223.57009874590509
 20
398.94302040709516
  0
ARC
  5
A5
330
17
100
AcDbEntity
  8
DOOR
100
AcDbCircle
 10
228.43031828385958
 20
398.94302040709516
 30
0.0
 40
50.22226855886269
100
AcDbArc
 50
90.0
 51
180.0
  0
LINE
  5
A6
330
17
100
AcDbEntity
  8
DOOR
100
AcDbLine
 10
228.43031828385958
 20
398.94302040709516
 30
0.0
 11
178.20804972499687
 21
398.94302040709516
 31
0.0
  0
LWPOLYLINE
  5
A7
330
17
100
AcDbEntity
  8
DOOR
100
AcDbPolyline
 90
4
 70
1
 10
223.57009874590517
 20
525.3087283939111
 10
223.57009874590517
 20
487.2370086799345
 10
233.29053782181404
 20
487.2370086799345
 10
233.29053782181404
 20
525.3087283939111
  0
ARC
  5
A8
330
17
100
AcDbEntity
  8
DOOR
100
AcDbCircle
 10
228.4303182838596
 20
525.3087283939111
 30
0.0
 40
38.071719713976584
100
AcDbArc
 50
-90.0
 51
0.0
  0
LINE
  5
A9
330
17
100
AcDbEntity
  8
DOOR
100
AcDbLine
 10
228.4303182838596
 20
525.3087283939111
 30
0.0
 11
266.50203799783617
 21
525.3087283939111
 31
0.0
  0
LWPOLYLINE
  5
AA
330
17
100
AcDbEntity
  8
DOOR
100
AcDbPolyline
 90
4
 70
1
 10
227.62028169420046
 20
82.21871385039627
 10
227.62028169420046
 20
116.24025061607749
 10
217.89984261829153
 20
116.24025061607749
 10
217.89984261829153
 20
82.21871385039627
  0
ARC
  5
AB
330
17
100
AcDbEntity
  8
DOOR
100
AcDbCircle
 10
222.760062156246
 20
82.21871385039627
 30
0.0
 40
34.02153676568121
100
AcDbArc
 50
90.0
 51
180.0
  0
LINE
  5
AC
330
17
100
AcDbEntity
  8
DOOR
100
AcDbLine
 10
222.760062156246
 20
82.21871385039627
 30
0.0
 11
188.73852539056477
 21
82.21871385039627
 31
0.0
  0
LWPOLYLINE
  5
AD
330
17
100
AcDbEntity
  8
DOOR
100
AcDbPolyline
 90
4
 70
1
 10
227.62028169420046
 20
166.4625191749402
 10
227.62028169420046
 20
213.44464137516664
 10
217.89984261829153
 20
213.44464137516664
 10
217.89984261829153
 20
166.4625191749402
  0
ARC
  5
AE
330
17
100
AcDbEntity
  8
DOOR
100
AcDbCircle
 10
222.760062156246
 20
166.4625191749402
 30
0.0
 40
46.98212220022642
100
AcDbArc
 50
90.0
 51
180.0
  0
LINE
  5
AF
330
17
100
AcDbEntity
  8
DOOR
100
AcDbLine
 10
222.760062156246
 20
166.4625191749402
 30
0.0
 11
175.77793995601957
 21
166.4625191749402
 31
0.0
  0
LWPOLYLINE
  5
B0
330
17
100
AcDbEntity
  8
DOOR
100
AcDbPolyline
 90
4
 70
1
 10
634.2586497030571
 20
158.56466242576425
 10
634.258649703057
 20
201.0915833828658
 10
624.5382106271479
 20
201.0915833828658
 10
624.538210627148
 20
158.56466242576425
  0
ARC
  5
B1
330
17
100
AcDbEntity
  8
DOOR
100
AcDbCircle
 10
629.3984301651026
 20
158.56466242576425
 30
0.0
 40
42.52692095710154
100
AcDbArc
 50
90.0000000000001
 51
180.0000000000001
  0
LINE
  5
B2
330
17
100
AcDbEntity
  8
DOOR
100
AcDbLine
 10
629.3984301651026
 20
158.56466242576425
 30
0.0
 11
586.871509208001
 21
158.56466242576417
 31
0.0
  0
LWPOLYLINE
  5
B3
330
17
100
AcDbEntity
  8
DOOR
100
AcDbPolyline
 90
4
 70
1
 10
1.620073179318151
 20
231.2654463476664
 10
1.6200731793181533
 20
275.8174587789156
 10
-8.100365896590764
 20
275.8174587789156
 10
-8.100365896590766
 20
231.2654463476664
  0
ARC
  5
B4
330
17
100
AcDbEntity
  8
DOOR
100
AcDbCircle
 10
-3.240146358636307
 20
231.2654463476664
 30
0.0
 40
44.55201243124922
100
AcDbArc
 50
90.0
 51
180.0
  0
LINE
  5
B5
330
17
100
AcDbEntity
  8
DOOR
100
AcDbLine
 10
-3.240146358636307
 20
231.2654463476664
 30
0.0
 11
-47.79215878988553
 21
231.2654463476664
 31
0.0
  0
LWPOLYLINE
  5
B6
330
17
100
AcDbEntity
  8
WINDOW
100
AcDbPolyline
 90
4
 70
1
 10
575.1259786579441
 20
377.88206907595924
 10
575.1259786579441
 20
237.74573906493896
 10
584.8464177338531
 20
237.74573906493896
 10
584.8464177338531
 20
377.88206907595924
  0
LINE
  5
B7
330
17
100
AcDbEntity
  8
WINDOW
100
AcDbLine
 10
579.9861981958986
 20
377.88206907595924
 30
0.0
 11
579.9861981958986
 21
237.74573906493896
 31
0.0
  0
LWPOLYLINE
  5
B8
330
17
100
AcDbEntity
  8
WINDOW
100
AcDbPolyline
 90
4
 70
1
 10
541.9144784819222
 20
501.0076307041389
 10
541.9144784819222
 20
424.8641912761856
 10
551.6349175578312
 20
424.8641912761856
 10
551.6349175578312
 20
501.0076307041389
  0
LINE
  5
B9
330
17
100
AcDbEntity
  8
WINDOW
100
AcDbLine
 10
546.7746980198767
 20
501.0076307041389
 30
0.0
 11
546.7746980198767
 21
424.8641912761856
 31
0.0
  0
LWPOLYLINE
  5
BA
330
17
100
AcDbEntity
  8
WINDOW
100
AcDbPolyline
 90
4
 70
1
 10
452.8104536194237
 20
44.95703072607873
 10
520.8535271507861
 20
44.95703072607873
 10
520.8535271507861
 20
54.67746980198766
 10
452.8104536194237
 20
54.67746980198766
  0
LINE
  5
BB
330
17
100
AcDbEntity
  8
WINDOW
100
AcDbLine
 10
452.8104536194237
 20
49.8172502640332
 30
0.0
 11
520.8535271507861
 21
49.8172502640332
 31
0.0
  0
LWPOLYLINE
  5
BC
330
17
100
AcDbEntity
  8
WINDOW
100
AcDbPolyline
 90
4
 70
1
 10
449.5703072607875
 20
571.4808140044784
 10
490.0721367437413
 20
571.4808140044784
 10
490.0721367437413
 20
581.2012530803872
 10
449.5703072607875
 20
581.2012530803872
  0
LINE
  5
BD
330
17
100
AcDbEntity
  8
WINDOW
100
AcDbLine
 10
449.5703072607875
 20
576.3410335424328
 30
0.0
 11
490.0721367437413
 21
576.3410335424328
 31
0.0
  0
LWPOLYLINE
  5
BE
330
17
100
AcDbEntity
  8
WINDOW
100
AcDbPolyline
 90
4
 70
1
 10
361.27631898794806
 20
44.957030726078735
 10
388.8175630363567
 20
44.957030726078735
 10
388.8175630363567
 20
54.67746980198768
 10
361.27631898794806
 20
54.67746980198768
  0
LINE
  5
BF
330
17
100
AcDbEntity
  8
WINDOW
100
AcDbLine
 10
361.27631898794806
 20
49.817250264033206
 30
0.0
 11
388.8175630363567
 21
49.817250264033206
 31
0.0
  0
LWPOLYLINE
  5
C0
330
17
100
AcDbEntity
  8
WINDOW
100
AcDbPolyline
 90
4
 70
1
 10
336.97522129817577
 20
571.4808140044784
 10
362.89639216726613
 20
571.4808140044784
 10
362.89639216726613
 20
581.2012530803872
 10
336.97522129817577
 20
581.2012530803872
  0
LINE
  5
C1
330
17
100
AcDbEntity
  8
WINDOW
100
AcDbLine
 10
336.97522129817577
 20
576.3410335424328
 30
0.0
 11
362.89639216726613
 21
576.3410335424328
 31
0.0
  0
LWPOLYLINE
  5
C2
330
17
100
AcDbEntity
  8
WINDOW
100
AcDbPolyline
 90
4
 70
1
 10
267.3120745874952
 20
44.957030726078735
 10
294.04328204624477
 20
44.957030726078735
 10
294.04328204624477
 20
54.67746980198768
 10
267.3120745874952
 20
54.67746980198768
  0
LINE
  5
C3
330
17
100
AcDbEntity
  8
WINDOW
100
AcDbLine
 10
267.3120745874952
 20
49.817250264033206
 30
0.0
 11
294.04328204624477
 21
49.817250264033206
 31
0.0
  0
LWPOLYLINE
  5
C4
330
17
100
AcDbEntity
  8
WINDOW
100
AcDbPolyline
 90
4
 70
1
 10
255.1615257426091
 20
571.4808140044784
 10
281.0826966116995
 20
571.4808140044784
 10
281.0826966116995
 20
581.2012530803872
 10
255.1615257426091
 20
581.2012530803872
  0
LINE
  5
C5
330
17
100
AcDbEntity
  8
WINDOW
100
AcDbLine
 10
255.1615257426091
 20
576.3410335424328
 30
0.0
 11
281.0826966116995
 21
576.3410335424328
 31
0.0
  0
LWPOLYLINE
  5
C6
330
17
100
AcDbEntity
  8
WINDOW
100
AcDbPolyline
 90
4
 70
1
 10
181.44819608363306
 20
571.4808140044784
 10
223.57009874590509
 20
571.4808140044784
 10
223.57009874590509
 20
581.2012530803872
 10
181.44819608363306
 20
581.2012530803872
  0
LINE
  5
C7
330
17
100
AcDbEntity
  8
WINDOW
100
AcDbLine
 10
181.44819608363306
 20
576.3410335424328
 30
0.0
 11
223.57009874590509
 21
576.3410335424328
 31
0.0
  0
LWPOLYLINE
  5
C8
330
17
100
AcDbEntity
  8
WINDOW
100
AcDbPolyline
 90
4
 70
1
 10
80.19362237624857
 20
44.957030726078735
 10
147.4266593179519
 20
44.957030726078735
 10
147.4266593179519
 20
54.677469801987655
 10
80.19362237624857
 20
54.677469801987655
  0
LINE
  5
C9
330
17
100
AcDbEntity
  8
WINDOW
100
AcDbLine
 10
80.19362237624857
 20
49.8172502640332
 30
0.0
 11
147.4266593179519
 21
49.8172502640332
 31
0.0
  0
LWPOLYLINE
  5
CA
330
17
100
AcDbEntity
  8
WINDOW
100
AcDbPolyline
 90
4
 70
1
 10
42.93193925193105
 20
571.4808140044784
 10
83.43376873488486
 20
571.4808140044784
 10
83.43376873488486
 20
581.2012530803872
 10
42.93193925193105
 20
581.2012530803872
  0
LINE
  5
CB
330
17
100
AcDbEntity
  8
WINDOW
100
AcDbLine
 10
42.93193925193105
 20
576.3410335424328
 30
0.0
 11
83.43376873488486
 21
576.3410335424328
 31
0.0
  0
LWPOLYLINE
  5
CC
330
17
100
AcDbEntity
  8
WINDOW
100
AcDbPolyline
 90
4
 70
1
 10
1.620073179318151
 20
321.1795077998238
 10
1.6200731793181544
 20
374.6419227173228
 10
-8.10036589659076
 20
374.6419227173228
 10
-8.100365896590766
 20
321.1795077998238
  0
LINE
  5
CD
330
17
100
AcDbEntity
  8
WINDOW
100
AcDbLine
 10
-3.240146358636307
 20
321.1795077998238
 30
0.0
 11
-3.240146358636304
 21
374.6419227173228
 31
0.0
  0
TEXT
  5
CE
330
17
100
AcDbEntity
  8
ANNO
100
AcDbText
 10
524.0936735094225
 20
134.06105558857715
 30
0.0
 40
8.661417322834646
  1
BEDROOM
 11
524.0936735094225
 21
134.06105558857715
 31
0.0
100
AcDbText
  0
TEXT
  5
CF
330
17
100
AcDbEntity
  8
ANNO
100
AcDbText
 10
112.59508596261162
 20
485.2119172057868
 30
0.0
 40
8.661417322834646
  1
BEDROOM
 11
112.59508596261162
 21
485.2119172057868
 31
0.0
100
AcDbText
  0
TEXT
  5
D0
330
17
100
AcDbEntity
  8
ANNO
100
AcDbText
 10
109.75995789880484
 20
134.06105558857715
 30
0.0
 40
8.661417322834646
  1
BEDROOM
 11
109.75995789880484
 21
134.06105558857715
 31
0.0
100
AcDbText
  0
TEXT
  5
D1
330
17
100
AcDbEntity
  8
ANNO
100
AcDbText
 10
271.3622575357906
 20
105.70977495050948
 30
0.0
 40
8.661417322834646
  1
BATH
 11
271.3622575357906
 21
105.70977495050948
 31
0.0
100
AcDbText
  0
TEXT
  5
D2
330
17
100
AcDbEntity
  8
ANNO
100
AcDbText
 10
369.3766848845388
 20
105.70977495050948
 30
0.0
 40
8.661417322834646
  1
BATH
 11
369.3766848845388
 21
105.70977495050948
 31
0.0
100
AcDbText
  0
TEXT
  5
D3
330
17
100
AcDbEntity
  8
ANNO
100
AcDbText
 10
274.19738559959734
 20
516.8033442024907
 30
0.0
 40
8.661417322834646
  1
BATH
 11
274.19738559959734
 21
516.8033442024907
 31
0.0
100
AcDbText
  0
TEXT
  5
D4
330
17
100
AcDbEntity
  8
ANNO
100
AcDbText
 10
434.17961205726493
 20
481.56675255232096
 30
0.0
 40
8.661417322834646
  1
KITCHEN
 11
434.17961205726493
 21
481.56675255232096
 31
0.0
100
AcDbText
  0
TEXT
  5
D5
330
17
100
AcDbEntity
  8
ANNO
100
AcDbText
 10
288.3730259186312
 20
332.5202646481305
 30
0.0
 40
8.661417322834646
  1
LIVING
 11
288.3730259186312
 21
332.5202646481305
 31
0.0
100
AcDbText
  0
TEXT
  5
D6
330
17
100
AcDbEntity
  8
ANNO
100
AcDbText
 10
641.4110944492077
 20
279.4809637910296
 30
0.0
 40
8.661417322834646
  1
BALCONY
 11
641.4110944492077
 21
279.4809637910296
 31
0.0
100
AcDbText
  0
TEXT
  5
D7
330
17
100
AcDbEntity
  8
ANNO
100
AcDbText
 10
288.3730259186312
 20
302.9536845324946
 30
0.0
 40
8.661417322834646
  1
HALL
 11
288.3730259186312
 21
302.9536845324946
 31
0.0
100
AcDbText
  0
DIMENSION
  5
D8
330
17
100
AcDbEntity
  8
A-ANNO-DIMS
100
AcDbDimension
280
0
  2
*D1
  3
EZDXF
 10
-8.100365896590763
 20
5.586951985921254
 30
0.0
 11
313.07914190323305
 21
5.811951985921254
 31
0.0
 70
32
 71
5
  1
<>
100
AcDbAlignedDimension
 13
-8.100365896590763
 23
44.957030726078735
 33
0.0
 14
634.2586497030568
 24
44.957030726078735
 34
0.0
 50
0.0
100
AcDbRotatedDimension
  0
DIMENSION
  5
E7
330
17
100
AcDbEntity
  8
A-ANNO-DIMS
100
AcDbDimension
280
0
  2
*D2
  3
EZDXF
 10
-47.47044463674824
 20
44.957030726078735
 30
0.0
 11
-47.69544463674824
 21
313.07914190323305
 31
0.0
 70
32
 71
5
  1
<>
100
AcDbAlignedDimension
 13
-8.100365896590763
 23
44.957030726078735
 33
0.0
 14
-8.100365896590763
 24
581.2012530803873
 34
0.0
 50
90.0
100
AcDbRotatedDimension
  0
LWPOLYLINE
  5
F6
330
17
100
AcDbEntity
  8
A-FURN
100
AcDbPolyline
 90
4
 70
1
 10
492.59761051729646
 20
94.69097684841968
 10
555.5897365015485
 20
94.69097684841968
 10
555.5897365015485
 20
173.43113432873463
 10
492.59761051729646
 20
173.43113432873463
  0
LWPOLYLINE
  5
F7
330
17
100
AcDbEntity
  8
A-FURN
100
AcDbPolyline
 90
4
 70
1
 10
81.0990229704856
 20
445.8418384656293
 10
144.0911489547376
 20
445.8418384656293
 10
144.0911489547376
 20
524.5819959459443
 10
81.0990229704856
 20
524.5819959459443
  0
ENDSEC
  0
SECTION
  2
OBJECTS
  0
DICTIONARY
  5
A
330
0
100
AcDbDictionary
281
1
  3
ACAD_COLOR
350
B
  3
ACAD_GROUP
350
C
  3
ACAD_LAYOUT
350
D
  3
ACAD_MATERIAL
350
E
  3
ACAD_MLEADERSTYLE
350
F
  3
ACAD_MLINESTYLE
350
10
  3
ACAD_PLOTSETTINGS
350
11
  3
ACAD_PLOTSTYLENAME
350
12
  3
ACAD_SCALELIST
350
14
  3
ACAD_TABLESTYLE
350
15
  3
ACAD_VISUALSTYLE
350
16
  3
EZDXF_META
350
2D
  0
DICTIONARY
  5
B
330
A
100
AcDbDictionary
281
1
  0
DICTIONARY
  5
C
330
A
100
AcDbDictionary
281
1
  0
DICTIONARY
  5
D
330
A
100
AcDbDictionary
281
1
  3
Model
350
1A
  3
Layout1
350
1E
  0
DICTIONARY
  5
E
330
A
100
AcDbDictionary
281
1
  3
ByBlock
350
1F
  3
ByLayer
350
20
  3
Global
350
21
  0
DICTIONARY
  5
F
330
A
100
AcDbDictionary
281
1
  3
Standard
350
2C
  0
DICTIONARY
  5
10
330
A
100
AcDbDictionary
281
1
  3
Standard
350
22
  0
DICTIONARY
  5
11
330
A
100
AcDbDictionary
281
1
  0
ACDBDICTIONARYWDFLT
  5
12
330
A
100
AcDbDictionary
281
1
  3
Normal
350
13
100
AcDbDictionaryWithDefault
340
13
  0
ACDBPLACEHOLDER
  5
13
330
12
  0
DICTIONARY
  5
14
330
A
100
AcDbDictionary
281
1
  0
DICTIONARY
  5
15
330
A
100
AcDbDictionary
281
1
  0
DICTIONARY
  5
16
330
A
100
AcDbDictionary
281
1
  3
2dWireframe
350
5A
  3
Basic
350
5B
  3
Brighten
350
5C
  3
ColorChange
350
5D
  3
Conceptual
350
5E
  3
Dim
350
5F
  3
EdgeColorOff
350
60
  3
Facepattern
350
61
  3
Flat
350
62
  3
FlatWithEdges
350
63
  3
Gouraud
350
64
  3
GouraudWithEdges
350
65
  3
Hidden
350
66
  3
JitterOff
350
67
  3
Linepattern
350
68
  3
Modeling
350
69
  3
OverhangOff
350
6A
  3
Realistic
350
6B
  3
Shaded
350
6C
  3
Shaded with edges
350
6D
  3
Shades of Gray
350
6E
  3
Sketchy
350
6F
  3
Thicken
350
70
  3
Wireframe
350
71
  3
X-Ray
350
72
  0
LAYOUT
  5
1A
330
D
100
AcDbPlotSettings
  1

  4
A3
  6

 40
7.5
 41
20.0
 42
7.5
 43
20.0
 44
420.0
 45
297.0
 46
0.0
 47
0.0
 48
0.0
 49
0.0
140
0.0
141
0.0
142
1.0
143
1.0
 70
1024
 72
1
 73
0
 74
5
  7

 75
16
 76
0
 77
2
 78
300
147
1.0
148
0.0
149
0.0
100
AcDbLayout
  1
Model
 70
1
 71
0
 10
0.0
 20
0.0
 11
420.0
 21
297.0
 12
0.0
 22
0.0
 32
0.0
 14
1e+20
 24
1e+20
 34
1e+20
 15
-1e+20
 25
-1e+20
 35
-1e+20
146
0.0
 13
0.0
 23
0.0
 33
0.0
 16
1.0
 26
0.0
 36
0.0
 17
0.0
 27
1.0
 37
0.0
 76
1
330
17
  0
LAYOUT
  5
1E
330
D
100
AcDbPlotSettings
  1

  4
A3
  6

 40
7.5
 41
20.0
 42
7.5
 43
20.0
 44
420.0
 45
297.0
 46
0.0
 47
0.0
 48
0.0
 49
0.0
140
0.0
141
0.0
142
1.0
143
1.0
 70
0
 72
1
 73
0
 74
5
  7

 75
16
 76
0
 77
2
 78
300
147
1.0
148
0.0
149
0.0
100
AcDbLayout
  1
Layout1
 70
1
 71
1
 10
0.0
 20
0.0
 11
420.0
 21
297.0
 12
0.0
 22
0.0
 32
0.0
 14
1e+20
 24
1e+20
 34
1e+20
 15
-1e+20
 25
-1e+20
 35
-1e+20
146
0.0
 13
0.0
 23
0.0
 33
0.0
 16
1.0
 26
0.0
 36
0.0
 17
0.0
 27
1.0
 37
0.0
 76
1
330
1B
  0
MATERIAL
  5
1F
102
{ACAD_REACTORS
330
E
102
}
330
E
100
AcDbMaterial
  1
ByBlock
  2

 70
0
 40
1.0
 71
1
 41
1.0
 91
-1023410177
 42
1.0
 72
1
  3

 73
1
 74
1
 75
1
 44
0.5
 73
0
 45
1.0
 46
1.0
 77
1
  4

 78
1
 79
1
170
1
 48
1.0
171
1
  6

172
1
173
1
174
1
140
1.0
141
1.0
175
1
  7

176
1
177
1
178
1
143
1.0
179
1
  8

270
1
271
1
272
1
145
1.0
146
1.0
273
1
  9

274
1
275
1
276
1
 42
1.0
 72
1
  3

 73
1
 74
1
 75
1
 94
63
  0
MATERIAL
  5
20
102
{ACAD_REACTORS
330
E
102
}
330
E
100
AcDbMaterial
  1
ByLayer
  2

 70
0
 40
1.0
 71
1
 41
1.0
 91
-1023410177
 42
1.0
 72
1
  3

 73
1
 74
1
 75
1
 44
0.5
 73
0
 45
1.0
 46
1.0
 77
1
  4

 78
1
 79
1
170
1
 48
1.0
171
1
  6

172
1
173
1
174
1
140
1.0
141
1.0
175
1
  7

176
1
177
1
178
1
143
1.0
179
1
  8

270
1
271
1
272
1
145
1.0
146
1.0
273
1
  9

274
1
275
1
276
1
 42
1.0
 72
1
  3

 73
1
 74
1
 75
1
 94
63
  0
MATERIAL
  5
21
102
{ACAD_REACTORS
330
E
102
}
330
E
100
AcDbMaterial
  1
Global
  2

 70
0
 40
1.0
 71
1
 41
1.0
 91
-1023410177
 42
1.0
 72
1
  3

 73
1
 74
1
 75
1
 44
0.5
 73
0
 45
1.0
 46
1.0
 77
1
  4

 78
1
 79
1
170
1
 48
1.0
171
1
  6

172
1
173
1
174
1
140
1.0
141
1.0
175
1
  7

176
1
177
1
178
1
143
1.0
179
1
  8

270
1
271
1
272
1
145
1.0
146
1.0
273
1
  9

274
1
275
1
276
1
 42
1.0
 72
1
  3

 73
1
 74
1
 75
1
 94
63
  0
MLINESTYLE
  5
22
102
{ACAD_REACTORS
330
10
102
}
330
10
100
AcDbMlineStyle
  2
Standard
 70
0
  3

 62
256
 51
90.0
 52
90.0
 71
2
 49
0.5
 62
256
  6
BYLAYER
 49
-0.5
 62
256
  6
BYLAYER
  0
MLEADERSTYLE
  5
2C
102
{ACAD_REACTORS
330
F
102
}
330
F
100
AcDbMLeaderStyle
179
2
170
2
171
1
172
0
 90
2
 40
0.0
 41
0.0
173
1
 91
-1056964608
 92
-2
290
1
 42
2.0
291
1
 43
8.0
  3
Standard
 44
4.0
300

342
29
174
1
175
1
176
0
178
1
 93
-1056964608
 45
4.0
292
0
297
0
 46
4.0
 94
-1056964608
 47
1.0
 49
1.0
140
1.0
294
1
141
0.0
177
0
142
1.0
295
0
296
0
143
3.75
271
0
272
9
273
9
  0
DICTIONARY
  5
2D
330
A
100
AcDbDictionary
280
1
281
1
  3
CREATED_BY_EZDXF
350
2E
  3
WRITTEN_BY_EZDXF
350
FA
  0
DICTIONARYVAR
  5
2E
330
2D
100
DictionaryVariables
280
0
  1
1.4.3 @ 2026-09-13T07:01:30.002334+00:00
  0
VISUALSTYLE
  5
5A
102
{ACAD_REACTORS
330
16
102
}
330
16
100
AcDbVisualStyle
  2
2dWireframe
 70
4
 90
0
 40
0.6
 62
7
290
0
291
0
  0
VISUALSTYLE
  5
5B
102
{ACAD_REACTORS
330
16
102
}
330
16
100
AcDbVisualStyle
  2
Basic
 70
7
 90
1
 40
0.6
 62
7
290
0
291
1
  0
VISUALSTYLE
  5
5C
102
{ACAD_REACTORS
330
16
102
}
330
16
100
AcDbVisualStyle
  2
Brighten
 70
12
 90
2
 40
0.6
 62
7
290
0
291
1
  0
VISUALSTYLE
  5
5D
102
{ACAD_REACTORS
330
16
102
}
330
16
100
AcDbVisualStyle
  2
ColorChange
 70
16
 90
2
 40
0.6
 62
8
290
0
291
1
  0
VISUALSTYLE
  5
5E
102
{ACAD_REACTORS
330
16
102
}
330
16
100
AcDbVisualStyle
  2
Conceptual
 70
9
 90
3
 40
0.6
 62
7
290
0
291
0
  0
VISUALSTYLE
  5
5F
102
{ACAD_REACTORS
330
16
102
}
330
16
100
AcDbVisualStyle
  2
Dim
 70
11
 90
2
 40
0.6
 62
7
290
0
291
1
  0
VISUALSTYLE
  5
60
102
{ACAD_REACTORS
330
16
102
}
330
16
100
AcDbVisualStyle
  2
EdgeColorOff
 70
22
 90
2
 40
0.6
 62
7
290
0
291
1
  0
VISUALSTYLE
  5
61
102
{ACAD_REACTORS
330
16
102
}
330
16
100
AcDbVisualStyle
  2
Facepattern
 70
15
 90
2
 40
0.6
 62
7
290
0
291
1
  0
VISUALSTYLE
  5
62
102
{ACAD_REACTORS
330
16
102
}
330
16
100
AcDbVisualStyle
  2
Flat
 70
0
 90
2
 40
0.6
 62
7
290
0
291
1
  0
VISUALSTYLE
  5
63
102
{ACAD_REACTORS
330
16
102
}
330
16
100
AcDbVisualStyle
  2
FlatWithEdges
 70
1
 90
2
 40
0.6
 62
7
290
0
291
1
  0
VISUALSTYLE
  5
64
102
{ACAD_REACTORS
330
16
102
}
330
16
100
AcDbVisualStyle
  2
Gouraud
 70
2
 90
2
 40
0.6
 62
7
290
0
291
1
  0
VISUALSTYLE
  5
65
102
{ACAD_REACTORS
330
16
102
}
330
16
100
AcDbVisualStyle
  2
GouraudWithEdges
 70
3
 90
2
 40
0.6
 62
7
290
0
291
1
  0
VISUALSTYLE
  5
66
102
{ACAD_REACTORS
330
16
102
}
330
16
100
AcDbVisualStyle
  2
Hidden
 70
6
 90
1
 40
0.6
 62
7
290
0
291
0
  0
VISUALSTYLE
  5
67
102
{ACAD_REACTORS
330
16
102
}
330
16
100
AcDbVisualStyle
  2
JitterOff
 70
20
 90
2
 40
0.6
 62
7
290
0
291
1
  0
VISUALSTYLE
  5
68
102
{ACAD_REACTORS
330
16
102
}
330
16
100
AcDbVisualStyle
  2
Linepattern
 70
14
 90
2
 40
0.6
 62
7
290
0
291
1
  0
VISUALSTYLE
  5
69
102
{ACAD_REACTORS
330
16
102
}
330
16
100
AcDbVisualStyle
  2
Modeling
 70
10
 90
2
 40
0.6
 62
7
290
0
291
0
  0
VISUALSTYLE
  5
6A
102
{ACAD_REACTORS
330
16
102
}
330
16
100
AcDbVisualStyle
  2
OverhangOff
 70
21
 90
2
 40
0.6
 62
7
290
0
291
1
  0
VISUALSTYLE
  5
6B
102
{ACAD_REACTORS
330
16
102
}
330
16
100
AcDbVisualStyle
  2
Realistic
 70
8
 90
2
 40
0.6
 62
7
290
0
291
0
  0
VISUALSTYLE
  5
6C
102
{ACAD_REACTORS
330
16
102
}
330
16
100
AcDbVisualStyle
  2
Shaded
 70
27
 90
2
 40
0.6
 62
7
290
0
291
0
  0
VISUALSTYLE
  5
6D
102
{ACAD_REACTORS
330
16
102
}
330
16
100
AcDbVisualStyle
  2
Shaded with edges
 70
26
 90
2
 40
0.6
 62
7
290
0
291
0
  0
VISUALSTYLE
  5
6E
102
{ACAD_REACTORS
330
16
102
}
330
16
100
AcDbVisualStyle
  2
Shades of Gray
 70
23
 90
2
 40
0.6
 62
7
290
0
291
0
  0
VISUALSTYLE
  5
6F
102
{ACAD_REACTORS
330
16
102
}
330
16
100
AcDbVisualStyle
  2
Sketchy
 70
24
 90
1
 40
0.6
 62
7
290
0
291
0
  0
VISUALSTYLE
  5
70
102
{ACAD_REACTORS
330
16
102
}
330
16
100
AcDbVisualStyle
  2
Thicken
 70
13
 90
2
 40
0.6
 62
7
290
0
291
1
  0
VISUALSTYLE
  5
71
102
{ACAD_REACTORS
330
16
102
}
330
16
100
AcDbVisualStyle
  2
Wireframe
 70
5
 90
0
 40
0.6
 62
7
290
0
291
0
  0
VISUALSTYLE
  5
72
102
{ACAD_REACTORS
330
16
102
}
330
16
100
AcDbVisualStyle
  2
X-Ray
 70
25
 90
2
 40
0.5
 62
7
290
0
291
0
  0
DICTIONARYVAR
  5
FA
330
2D
100
DictionaryVariables
280
0
  1
1.4.3 @ 2026-09-13T07:01:30.033237+00:00
  0
ENDSEC
  0
EOF
