  0
SECTION
  2
HEADER
  9
$ACADVER
  1
AC1027
  9
$ACADMAINTVER
 70
105
  9
$DWGCODEPAGE
  3
ANSI_1252
  9
$LASTSAVEDBY
  1
ezdxf
  9
$REQUIREDVERSIONS
160
0
  9
$INSBASE
 10
0.0
 20
0.0
 30
0.0
  9
$EXTMIN
 10
1e+20
 20
1e+20
 30
1e+20
  9
$EXTMAX
 10
-1e+20
 20
-1e+20
 30
-1e+20
  9
$LIMMIN
 10
0.0
 20
0.0
  9
$LIMMAX
 10
420.0
 20
297.0
  9
$ORTHOMODE
 70
0
  9
$REGENMODE
 70
1
  9
$FILLMODE
 70
1
  9
$QTEXTMODE
 70
0
  9
$MIRRTEXT
 70
1
  9
$LTSCALE
 40
1.0
  9
$ATTMODE
 70
1
  9
$TEXTSIZE
 40
2.5
  9
$TRACEWID
 40
1.0
  9
$TEXTSTYLE
  7
OpenSans
  9
$CLAYER
  8
0
  9
$CELTYPE
  6
ByLayer
  9
$CECOLOR
 62
256
  9
$CELTSCALE
 40
1.0
  9
$DISPSILH
 70
0
  9
$DIMSCALE
 40
1.0
  9
$DIMASZ
 40
0.175
  9
$DIMEXO
 40
0.125
  9
$DIMDLI
 40
3.75
  9
$DIMRND
 40
0.0
  9
$DIMDLE
 40
0.0
  9
$DIMEXE
 40
0.375
  9
$DIMTP
 40
0.0
  9
$DIMTM
 40
0.0
  9
$DIMTXT
 40
0.25
  9
$DIMCEN
 40
2.5
  9
$DIMTSZ
 40
0.0
  9
$DIMTOL
 70
0
  9
$DIMLIM
 70
0
  9
$DIMTIH
 70
0
  9
$DIMTOH
 70
0
  9
$DIMSE1
 70
0
  9
$DIMSE2
 70
0
  9
$DIMTAD
 70
1
  9
$DIMZIN
 70
12
  9
$DIMBLK
  1
ARCHTICK
  9
$DIMASO
 70
1
  9
$DIMSHO
 70
1
  9
$DIMPOST
  1

  9
$DIMAPOST
  1

  9
$DIMALT
 70
0
  9
$DIMALTD
 70
3
  9
$DIMALTF
 40
0.03937007874
  9
$DIMLFAC
 40
100.0
  9
$DIMTOFL
 70
1
  9
$DIMTVP
 40
0.0
  9
$DIMTIX
 70
0
  9
$DIMSOXD
 70
0
  9
$DIMSAH
 70
0
  9
$DIMBLK1
  1

  9
$DIMBLK2
  1

  9
$DIMSTYLE
  2
EZDXF
  9
$DIMCLRD
 70
0
  9
$DIMCLRE
 70
0
  9
$DIMCLRT
 70
0
  9
$DIMTFAC
 40
0.5
  9
$DIMGAP
 40
0.1
  9
$DIMJUST
 70
0
  9
$DIMSD1
 70
0
  9
$DIMSD2
 70
0
  9
$DIMTOLJ
 70
0
  9
$DIMTZIN
 70
8
  9
$DIMALTZ
 70
0
  9
$DIMALTTZ
 70
0
  9
$DIMUPT
 70
1
  9
$DIMDEC
 70
2
  9
$DIMTDEC
 70
2
  9
$DIMALTU
 70
2
  9
$DIMALTTD
 70
3
  9
$DIMTXSTY
  7
OpenSansCondensed-Light
  9
$DIMAUNIT
 70
0
  9
$DIMADEC
 70
2
  9
$DIMALTRND
 40
0.0
  9
$DIMAZIN
 70
3
  9
$DIMDSEP
 70
46
  9
$DIMATFIT
 70
3
  9
$DIMFRAC
 70
0
  9
$DIMLDRBLK
  1

  9
$DIMLUNIT
 70
2
  9
$DIMLWD
 70
-2
  9
$DIMLWE
 70
-2
  9
$DIMTMOVE
 70
2
  9
$DIMFXL
 40
1.0
  9
$DIMFXLON
 70
0
  9
$DIMJOGANG
 40
0.785398163397
  9
$DIMTFILL
 70
0
  9
$DIMTFILLCLR
 70
0
  9
$DIMARCSYM
 70
0
  9
$DIMLTYPE
  6

  9
$DIMLTEX1
  6

  9
$DIMLTEX2
  6

  9
$DIMTXTDIRECTION
 70
0
  9
$LUNITS
 70
2
  9
$LUPREC
 70
4
  9
$SKETCHINC
 40
1.0
  9
$FILLETRAD
 40
10.0
  9
$AUNITS
 70
0
  9
$AUPREC
 70
2
  9
$MENU
  1
.
  9
$ELEVATION
 40
0.0
  9
$PELEVATION
 40
0.0
  9
$THICKNESS
 40
0.0
  9
$LIMCHECK
 70
0
  9
$CHAMFERA
 40
0.0
  9
$CHAMFERB
 40
0.0
  9
$CHAMFERC
 40
0.0
  9
$CHAMFERD
 40
0.0
  9
$SKPOLY
 70
0
  9
$TDCREATE
 40
2461297.7463425924
  9
$TDUCREATE
 40
2458532.153996898
  9
$TDUPDATE
 40
2461297.746354167
  9
$TDUUPDATE
 40
2458532.1544311
  9
$TDINDWG
 40
0.0
  9
$TDUSRTIMER
 40
0.0
  9
$USRTIMER
 70
1
  9
$ANGBASE
 50
0.0
  9
$ANGDIR
 70
0
  9
$PDMODE
 70
0
  9
$PDSIZE
 40
0.0
  9
$PLINEWID
 40
0.0
  9
$SPLFRAME
 70
0
  9
$SPLINETYPE
 70
6
  9
$SPLINESEGS
 70
8
  9
$HANDSEED
  5
210
  9
$SURFTAB1
 70
6
  9
$SURFTAB2
 70
6
  9
$SURFTYPE
 70
6
  9
$SURFU
 70
6
  9
$SURFV
 70
6
  9
$UCSBASE
  2

  9
$UCSNAME
  2

  9
$UCSORG
 10
0.0
 20
0.0
 30
0.0
  9
$UCSXDIR
 10
1.0
 20
0.0
 30
0.0
  9
$UCSYDIR
 10
0.0
 20
1.0
 30
0.0
  9
$UCSORTHOREF
  2

  9
$UCSORTHOVIEW
 70
0
  9
$UCSORGTOP
 10
0.0
 20
0.0
 30
0.0
  9
$UCSORGBOTTOM
 10
0.0
 20
0.0
 30
0.0
  9
$UCSORGLEFT
 10
0.0
 20
0.0
 30
0.0
  9
$UCSORGRIGHT
 10
0.0
 20
0.0
 30
0.0
  9
$UCSORGFRONT
 10
0.0
 20
0.0
 30
0.0
  9
$UCSORGBACK
 10
0.0
 20
0.0
 30
0.0
  9
$PUCSBASE
  2

  9
$PUCSNAME
  2

  9
$PUCSORG
 10
0.0
 20
0.0
 30
0.0
  9
$PUCSXDIR
 10
1.0
 20
0.0
 30
0.0
  9
$PUCSYDIR
 10
0.0
 20
1.0
 30
0.0
  9
$PUCSORTHOREF
  2

  9
$PUCSORTHOVIEW
 70
0
  9
$PUCSORGTOP
 10
0.0
 20
0.0
 30
0.0
  9
$PUCSORGBOTTOM
 10
0.0
 20
0.0
 30
0.0
  9
$PUCSORGLEFT
 10
0.0
 20
0.0
 30
0.0
  9
$PUCSORGRIGHT
 10
0.0
 20
0.0
 30
0.0
  9
$PUCSORGFRONT
 10
0.0
 20
0.0
 30
0.0
  9
$PUCSORGBACK
 10
0.0
 20
0.0
 30
0.0
  9
$USERI1
 70
0
  9
$USERI2
 70
0
  9
$USERI3
 70
0
  9
$USERI4
 70
0
  9
$USERI5
 70
0
  9
$USERR1
 40
0.0
  9
$USERR2
 40
0.0
  9
$USERR3
 40
0.0
  9
$USERR4
 40
0.0
  9
$USERR5
 40
0.0
  9
$WORLDVIEW
 70
1
  9
$SHADEDGE
 70
3
  9
$SHADEDIF
 70
70
  9
$TILEMODE
 70
1
  9
$MAXACTVP
 70
64
  9
$PINSBASE
 10
0.0
 20
0.0
 30
0.0
  9
$PLIMCHECK
 70
0
  9
$PEXTMIN
 10
1e+20
 20
1e+20
 30
1e+20
  9
$PEXTMAX
 10
-1e+20
 20
-1e+20
 30
-1e+20
  9
$PLIMMIN
 10
0.0
 20
0.0
  9
$PLIMMAX
 10
420.0
 20
297.0
  9
$UNITMODE
 70
0
  9
$VISRETAIN
 70
1
  9
$PLINEGEN
 70
0
  9
$PSLTSCALE
 70
1
  9
$TREEDEPTH
 70
3020
  9
$CMLSTYLE
  2
Standard
  9
$CMLJUST
 70
0
  9
$CMLSCALE
 40
20.0
  9
$PROXYGRAPHICS
 70
1
  9
$MEASUREMENT
 70
1
  9
$CELWEIGHT
370
-1
  9
$ENDCAPS
280
0
  9
$JOINSTYLE
280
0
  9
$LWDISPLAY
290
0
  9
$INSUNITS
 70
0
  9
$HYPERLINKBASE
  1

  9
$STYLESHEET
  1

  9
$XEDIT
290
1
  9
$CEPSNTYPE
380
0
  9
$PSTYLEMODE
290
1
  9
$FINGERPRINTGUID
  2
{695519D3-D2AF-4CB0-B90A-3A15C753C8D1}
  9
$VERSIONGUID
  2
{E3CF89B5-4EC0-4836-822A-80D6C840D5AC}
  9
$EXTNAMES
290
1
  9
$PSVPSCALE
 40
0.0
  9
$OLESTARTUP
290
0
  9
$SORTENTS
280
127
  9
$INDEXCTL
280
0
  9
$HIDETEXT
280
1
  9
$XCLIPFRAME
280
1
  9
$HALOGAP
280
0
  9
$OBSCOLOR
 70
257
  9
$OBSLTYPE
280
0
  9
$INTERSECTIONDISPLAY
280
0
  9
$INTERSECTIONCOLOR
 70
257
  9
$DIMASSOC
280
2
  9
$PROJECTNAME
  1

  9
$CAMERADISPLAY
290
0
  9
$LENSLENGTH
 40
50.0
  9
$CAMERAHEIGHT
 40
0.0
  9
$STEPSPERSEC
 40
24.0
  9
$STEPSIZE
 40
100.0
  9
$3DDWFPREC
 40
2.0
  9
$PSOLWIDTH
 40
0.005
  9
$PSOLHEIGHT
 40
0.08
  9
$LOFTANG1
 40
1.570796326795
  9
$LOFTANG2
 40
1.570796326795
  9
$LOFTMAG1
 40
0.0
  9
$LOFTMAG2
 40
0.0
  9
$LOFTPARAM
 70
7
  9
$LOFTNORMALS
280
1
  9
$LATITUDE
 40
37.795
  9
$LONGITUDE
 40
-122.394
  9
$NORTHDIRECTION
 40
0.0
  9
$TIMEZONE
 70
-8000
  9
$LIGHTGLYPHDISPLAY
280
1
  9
$TILEMODELIGHTSYNCH
280
1
  9
$CMATERIAL
347
20
  9
$SOLIDHIST
280
0
  9
$SHOWHIST
280
1
  9
$DWFFRAME
280
2
  9
$DGNFRAME
280
2
  9
$REALWORLDSCALE
290
1
  9
$INTERFERECOLOR
 62
256
  9
$CSHADOW
280
0
  9
$SHADOWPLANELOCATION
 40
0.0
  0
ENDSEC
  0
SECTION
  2
CLASSES
  0
CLASS
  1
ACDBDICTIONARYWDFLT
  2
AcDbDictionaryWithDefault
  3
ObjectDBX Classes
 90
0
 91
0
280
0
281
0
  0
CLASS
  1
SUN
  2
AcDbSun
  3
SCENEOE
 90
1153
 91
0
280
0
281
0
  0
CLASS
  1
VISUALSTYLE
  2
AcDbVisualStyle
  3
ObjectDBX Classes
 90
4095
 91
0
280
0
281
0
  0
CLASS
  1
MATERIAL
  2
AcDbMaterial
  3
ObjectDBX Classes
 90
1153
 91
0
280
0
281
0
  0
CLASS
  1
SCALE
  2
AcDbScale
  3
ObjectDBX Classes
 90
1153
 91
0
280
0
281
0
  0
CLASS
  1
TABLESTYLE
  2
AcDbTableStyle
  3
ObjectDBX Classes
 90
4095
 91
0
280
0
281
0
  0
CLASS
  1
MLEADERSTYLE
  2
AcDbMLeaderStyle
  3
ACDB_MLEADERSTYLE_CLASS
 90
4095
 91
0
280
0
281
0
  0
CLASS
  1
DICTIONARYVAR
  2
AcDbDictionaryVar
  3
ObjectDBX Classes
 90
0
 91
0
280
0
281
0
  0
CLASS
  1
CELLSTYLEMAP
  2
AcDbCellStyleMap
  3
ObjectDBX Classes
 90
1152
 91
0
280
0
281
0
  0
CLASS
  1
MENTALRAYRENDERSETTINGS
  2
AcDbMentalRayRenderSettings
  3
SCENEOE
 90
1024
 91
0
280
0
281
0
  0
CLASS
  1
ACDBDETAILVIEWSTYLE
  2
AcDbDetailViewStyle
  3
ObjectDBX Classes
 90
1025
 91
0
280
0
281
0
  0
CLASS
  1
ACDBSECTIONVIEWSTYLE
  2
AcDbSectionViewStyle
  3
ObjectDBX Classes
 90
1025
 91
0
280
0
281
0
  0
CLASS
  1
RASTERVARIABLES
  2
AcDbRasterVariables
  3
ISM
 90
0
 91
0
280
0
281
0
  0
CLASS
  1
LAYOUT
  2
AcDbLayout
  3
ObjectDBX Classes
 90
0
 91
0
280
0
281
0
  0
CLASS
  1
ACDBPLACEHOLDER
  2
AcDbPlaceHolder
  3
ObjectDBX Classes
 90
0
 91
0
280
0
281
0
  0
ENDSEC
  0
SECTION
  2
TABLES
  0
TABLE
  2
VPORT
  5
8
330
0
100
AcDbSymbolTable
 70
1
  0
VPORT
  5
23
330
8
100
AcDbSymbolTableRecord
100
AcDbViewportTableRecord
  2
*Active
 70
0
 10
0.0
 20
0.0
 11
1.0
 21
1.0
 12
0.0
 22
0.0
 13
0.0
 23
0.0
 14
0.5
 24
0.5
 15
0.5
 25
0.5
 16
0.0
 26
0.0
 36
1.0
 17
0.0
 27
0.0
 37
0.0
 40
1000.0
 41
1.34
 42
50.0
 43
0.0
 44
0.0
 50
0.0
 51
0.0
 71
0
 72
1000
 73
1
 74
3
 75
0
 76
0
 77
0
 78
0
281
0
 65
0
146
0.0
  0
ENDTAB
  0
TABLE
  2
LTYPE
  5
2
330
0
100
AcDbSymbolTable
 70
21
  0
LTYPE
  5
24
330
2
100
AcDbSymbolTableRecord
100
AcDbLinetypeTableRecord
  2
ByBlock
 70
0
  3

 72
65
 73
0
 40
0.0
  0
LTYPE
  5
25
330
2
100
AcDbSymbolTableRecord
100
AcDbLinetypeTableRecord
  2
ByLayer
 70
0
  3

 72
65
 73
0
 40
0.0
  0
LTYPE
  5
26
330
2
100
AcDbSymbolTableRecord
100
AcDbLinetypeTableRecord
  2
Continuous
 70
0
  3

 72
65
 73
0
 40
0.0
  0
LTYPE
  5
2F
330
2
100
AcDbSymbolTableRecord
100
AcDbLinetypeTableRecord
  2
CENTER
 70
0
  3
Center ____ _ ____ _ ____ _ ____ _ ____ _ ____
 72
65
 73
4
 40
5.08
 49
3.175
 74
0
 49
-0.635
 74
0
 49
0.635
 74
0
 49
-0.635
 74
0
  0
LTYPE
  5
30
330
2
100
AcDbSymbolTableRecord
100
AcDbLinetypeTableRecord
  2
CENTERX2
 70
0
  3
Center (2x) ________  __  ________  __  ________
 72
65
 73
4
 40
8.89
 49
6.35
 74
0
 49
-0.635
 74
0
 49
1.27
 74
0
 49
-0.635
 74
0
  0
LTYPE
  5
31
330
2
100
AcDbSymbolTableRecord
100
AcDbLinetypeTableRecord
  2
CENTER2
 70
0
  3
Center (.5x) ____ _ ____ _ ____ _ ____ _ ____
 72
65
 73
4
 40
2.54
 49
1.587
 74
0
 49
-0.318
 74
0
 49
0.318
 74
0
 49
-0.318
 74
0
  0
LTYPE
  5
32
330
2
100
AcDbSymbolTableRecord
100
AcDbLinetypeTableRecord
  2
DASHED
 70
0
  3
Dashed __ __ __ __ __ __ __ __ __ __ __ __ __ _
 72
65
 73
2
 40
1.524
 49
1.27
 74
0
 49
-0.254
 74
0
  0
LTYPE
  5
33
330
2
100
AcDbSymbolTableRecord
100
AcDbLinetypeTableRecord
  2
DASHEDX2
 70
0
  3
Dashed (2x) ____  ____  ____  ____  ____  ____
 72
65
 73
2
 40
3.048
 49
2.54
 74
0
 49
-0.508
 74
0
  0
LTYPE
  5
34
330
2
100
AcDbSymbolTableRecord
100
AcDbLinetypeTableRecord
  2
DASHED2
 70
0
  3
Dashed (.5x) _ _ _ _ _ _ _ _ _ _ _ _ _ _
 72
65
 73
2
 40
0.762
 49
0.635
 74
0
 49
-0.127
 74
0
  0
LTYPE
  5
35
330
2
100
AcDbSymbolTableRecord
100
AcDbLinetypeTableRecord
  2
PHANTOM
 70
0
  3
Phantom ______  __  __  ______  __  __  ______
 72
65
 73
6
 40
6.35
 49
3.175
 74
0
 49
-0.635
 74
0
 49
0.635
 74
0
 49
-0.635
 74
0
 49
0.635
 74
0
 49
-0.635
 74
0
  0
LTYPE
  5
36
330
2
100
AcDbSymbolTableRecord
100
AcDbLinetypeTableRecord
  2
PHANTOMX2
 70
0
  3
Phantom (2x)____________    ____    ____    ____________
 72
65
 73
6
 40
10.795
 49
6.35
 74
0
 49
-0.635
 74
0
 49
1.27
 74
0
 49
-0.635
 74
0
 49
1.27
 74
0
 49
-0.635
 74
0
  0
LTYPE
  5
37
330
2
100
AcDbSymbolTableRecord
100
AcDbLinetypeTableRecord
  2
PHANTOM2
 70
0
  3
Phantom (.5x) ___ _ _ ___ _ _ ___ _ _ ___ _ _ ___
 72
65
 73
6
 40
3.175
 49
1.587
 74
0
 49
-0.318
 74
0
 49
0.318
 74
0
 49
-0.318
 74
0
 49
0.318
 74
0
 49
-0.318
 74
0
  0
LTYPE
  5
38
330
2
100
AcDbSymbolTableRecord
100
AcDbLinetypeTableRecord
  2
DASHDOT
 70
0
  3
Dash dot __ . __ . __ . __ . __ . __ . __ . __
 72
65
 73
4
 40
3.556
 49
2.54
 74
0
 49
-0.508
 74
0
 49
0.0
 74
0
 49
-0.508
 74
0
  0
LTYPE
  5
39
330
2
100
AcDbSymbolTableRecord
100
AcDbLinetypeTableRecord
  2
DASHDOTX2
 70
0
  3
Dash dot (2x) ____  .  ____  .  ____  .  ____
 72
65
 73
4
 40
6.096
 49
5.08
 74
0
 49
-0.508
 74
0
 49
0.0
 74
0
 49
-0.508
 74
0
  0
LTYPE
  5
3A
330
2
100
AcDbSymbolTableRecord
100
AcDbLinetypeTableRecord
  2
DASHDOT2
 70
0
  3
Dash dot (.5x) _ . _ . _ . _ . _ . _ . _ . _
 72
65
 73
4
 40
1.778
 49
1.27
 74
0
 49
-0.254
 74
0
 49
0.0
 74
0
 49
-0.254
 74
0
  0
LTYPE
  5
3B
330
2
100
AcDbSymbolTableRecord
100
AcDbLinetypeTableRecord
  2
DOT
 70
0
  3
Dot .  .  .  .  .  .  .  .  .  .  .  .  .  .  .  .
 72
65
 73
2
 40
0.508
 49
0.0
 74
0
 49
-0.508
 74
0
  0
LTYPE
  5
3C
330
2
100
AcDbSymbolTableRecord
100
AcDbLinetypeTableRecord
  2
DOTX2
 70
0
  3
Dot (2x) .    .    .    .    .    .    .    . 
 72
65
 73
2
 40
1.016
 49
0.0
 74
0
 49
-1.016
 74
0
  0
LTYPE
  5
3D
330
2
100
AcDbSymbolTableRecord
100
AcDbLinetypeTableRecord
  2
DOT2
 70
0
  3
Dot (.5) . . . . . . . . . . . . . . . . . . . 
 72
65
 73
2
 40
0.254
 49
0.0
 74
0
 49
-0.254
 74
0
  0
LTYPE
  5
3E
330
2
100
AcDbSymbolTableRecord
100
AcDbLinetypeTableRecord
  2
DIVIDE
 70
0
  3
Divide __ . . __ . . __ . . __ . . __ . . __
 72
65
 73
6
 40
4.064
 49
2.54
 74
0
 49
-0.508
 74
0
 49
0.0
 74
0
 49
-0.508
 74
0
 49
0.0
 74
0
 49
-0.508
 74
0
  0
LTYPE
  5
3F
330
2
100
AcDbSymbolTableRecord
100
AcDbLinetypeTableRecord
  2
DIVIDEX2
 70
0
  3
Divide (2x) ____  . .  ____  . .  ____  . .  ____
 72
65
 73
6
 40
6.604
 49
5.08
 74
0
 49
-0.508
 74
0
 49
0.0
 74
0
 49
-0.508
 74
0
 49
0.0
 74
0
 49
-0.508
 74
0
  0
LTYPE
  5
40
330
2
100
AcDbSymbolTableRecord
100
AcDbLinetypeTableRecord
  2
DIVIDE2
 70
0
  3
Divide(.5x) _ . _ . _ . _ . _ . _ . _ . _
 72
65
 73
6
 40
2.032
 49
1.27
 74
0
 49
-0.254
 74
0
 49
0.0
 74
0
 49
-0.254
 74
0
 49
0.0
 74
0
 49
-0.254
 74
0
  0
ENDTAB
  0
TABLE
  2
LAYER
  5
1
330
0
100
AcDbSymbolTable
 70
9
  0
LAYER
  5
27
330
1
100
AcDbSymbolTableRecord
100
AcDbLayerTableRecord
  2
0
 70
0
 62
7
  6
Continuous
370
-3
390
13
347
21
  0
LAYER
  5
28
330
1
100
AcDbSymbolTableRecord
100
AcDbLayerTableRecord
  2
Defpoints
 70
0
 62
7
  6
Continuous
290
0
370
-3
390
13
347
21
  0
LAYER
  5
8A
330
1
100
AcDbSymbolTableRecord
100
AcDbLayerTableRecord
  2
A-WALL
 70
0
 62
7
  6
Continuous
370
-3
390
13
347
21
  0
LAYER
  5
8B
330
1
100
AcDbSymbolTableRecord
100
AcDbLayerTableRecord
  2
A-COLS
 70
0
 62
7
  6
Continuous
370
-3
390
13
347
21
  0
LAYER
  5
8C
330
1
100
AcDbSymbolTableRecord
100
AcDbLayerTableRecord
  2
A-DOOR
 70
0
 62
7
  6
Continuous
370
-3
390
13
347
21
  0
LAYER
  5
8D
330
1
100
AcDbSymbolTableRecord
100
AcDbLayerTableRecord
  2
A-GLAZ
 70
0
 62
7
  6
Continuous
370
-3
390
13
347
21
  0
LAYER
  5
8E
330
1
100
AcDbSymbolTableRecord
100
AcDbLayerTableRecord
  2
A-GLAZ-CURT
 70
0
 62
7
  6
Continuous
370
-3
390
13
347
21
  0
LAYER
  5
8F
330
1
100
AcDbSymbolTableRecord
100
AcDbLayerTableRecord
  2
A-AREA-IDEN
 70
0
 62
7
  6
Continuous
370
-3
390
13
347
21
  0
LAYER
  5
90
330
1
100
AcDbSymbolTableRecord
100
AcDbLayerTableRecord
  2
A-ANNO-TTLB
 70
0
 62
7
  6
Continuous
370
-3
390
13
347
21
  0
ENDTAB
  0
TABLE
  2
STYLE
  5
5
330
0
100
AcDbSymbolTable
 70
26
  0
STYLE
  5
29
330
5
100
AcDbSymbolTableRecord
100
AcDbTextStyleTableRecord
  2
Standard
 70
0
 40
0.0
 41
1.0
 50
0.0
 71
0
 42
2.5
  3
txt
  4

  0
STYLE
  5
41
330
5
100
AcDbSymbolTableRecord
100
AcDbTextStyleTableRecord
  2
OpenSans-Light
 70
0
 40
0.0
 41
1.0
 50
0.0
 71
0
 42
2.5
  3
OpenSans-Light.ttf
  4

  0
STYLE
  5
42
330
5
100
AcDbSymbolTableRecord
100
AcDbTextStyleTableRecord
  2
OpenSans-Light-Italic
 70
0
 40
0.0
 41
1.0
 50
0.0
 71
0
 42
2.5
  3
OpenSans-LightItalic.ttf
  4

  0
STYLE
  5
43
330
5
100
AcDbSymbolTableRecord
100
AcDbTextStyleTableRecord
  2
OpenSans
 70
0
 40
0.0
 41
1.0
 50
0.0
 71
0
 42
2.5
  3
OpenSans-Regular.ttf
  4

  0
STYLE
  5
44
330
5
100
AcDbSymbolTableRecord
100
AcDbTextStyleTableRecord
  2
OpenSans-Italic
 70
0
 40
0.0
 41
1.0
 50
0.0
 71
0
 42
2.5
  3
OpenSans-Italic.ttf
  4

  0
STYLE
  5
45
330
5
100
AcDbSymbolTableRecord
100
AcDbTextStyleTableRecord
  2
OpenSans-SemiBold
 70
0
 40
0.0
 41
1.0
 50
0.0
 71
0
 42
2.5
  3
OpenSans-SemiBold.ttf
  4

  0
STYLE
  5
46
330
5
100
AcDbSymbolTableRecord
100
AcDbTextStyleTableRecord
  2
OpenSans-SemiBoldItalic
 70
0
 40
0.0
 41
1.0
 50
0.0
 71
0
 42
2.5
  3
OpenSans-SemiBoldItalic.ttf
  4

  0
STYLE
  5
47
330
5
100
AcDbSymbolTableRecord
100
AcDbTextStyleTableRecord
  2
OpenSans-Bold
 70
0
 40
0.0
 41
1.0
 50
0.0
 71
0
 42
2.5
  3
OpenSans-Bold.ttf
  4

  0
STYLE
  5
48
330
5
100
AcDbSymbolTableRecord
100
AcDbTextStyleTableRecord
  2
OpenSans-BoldItalic
 70
0
 40
0.0
 41
1.0
 50
0.0
 71
0
 42
2.5
  3
OpenSans-BoldItalic.ttf
  4

  0
STYLE
  5
49
330
5
100
AcDbSymbolTableRecord
100
AcDbTextStyleTableRecord
  2
OpenSans-ExtraBold
 70
0
 40
0.0
 41
1.0
 50
0.0
 71
0
 42
2.5
  3
OpenSans-ExtraBold.ttf
  4

  0
STYLE
  5
4A
330
5
100
AcDbSymbolTableRecord
100
AcDbTextStyleTableRecord
  2
OpenSans-ExtraBoldItalic
 70
0
 40
0.0
 41
1.0
 50
0.0
 71
0
 42
2.5
  3
OpenSans-ExtraBoldItalic.ttf
  4

  0
STYLE
  5
4B
330
5
100
AcDbSymbolTableRecord
100
AcDbTextStyleTableRecord
  2
OpenSansCondensed-Bold
 70
0
 40
0.0
 41
1.0
 50
0.0
 71
0
 42
2.5
  3
OpenSansCondensed-Bold.ttf
  4

  0
STYLE
  5
4C
330
5
100
AcDbSymbolTableRecord
100
AcDbTextStyleTableRecord
  2
OpenSansCondensed-Light
 70
0
 40
0.0
 41
1.0
 50
0.0
 71
0
 42
2.5
  3
OpenSansCondensed-Light.ttf
  4

  0
STYLE
  5
4D
330
5
100
AcDbSymbolTableRecord
100
AcDbTextStyleTableRecord
  2
OpenSansCondensed-Italic
 70
0
 40
0.0
 41
1.0
 50
0.0
 71
0
 42
2.5
  3
OpenSansCondensed-LightItalic.ttf
  4

  0
STYLE
  5
4E
330
5
100
AcDbSymbolTableRecord
100
AcDbTextStyleTableRecord
  2
LiberationSans
 70
0
 40
0.0
 41
1.0
 50
0.0
 71
0
 42
2.5
  3
LiberationSans-Regular.ttf
  4

  0
STYLE
  5
4F
330
5
100
AcDbSymbolTableRecord
100
AcDbTextStyleTableRecord
  2
LiberationSans-Bold
 70
0
 40
0.0
 41
1.0
 50
0.0
 71
0
 42
2.5
  3
LiberationSans-Bold.ttf
  4

  0
STYLE
  5
50
330
5
100
AcDbSymbolTableRecord
100
AcDbTextStyleTableRecord
  2
LiberationSans-BoldItalic
 70
0
 40
0.0
 41
1.0
 50
0.0
 71
0
 42
2.5
  3
LiberationSans-BoldItalic.ttf
  4

  0
STYLE
  5
51
330
5
100
AcDbSymbolTableRecord
100
AcDbTextStyleTableRecord
  2
LiberationSans-Italic
 70
0
 40
0.0
 41
1.0
 50
0.0
 71
0
 42
2.5
  3
LiberationSans-Italic.ttf
  4

  0
STYLE
  5
52
330
5
100
AcDbSymbolTableRecord
100
AcDbTextStyleTableRecord
  2
LiberationSerif
 70
0
 40
0.0
 41
1.0
 50
0.0
 71
0
 42
2.5
  3
LiberationSerif-Regular.ttf
  4

  0
STYLE
  5
53
330
5
100
AcDbSymbolTableRecord
100
AcDbTextStyleTableRecord
  2
LiberationSerif-Bold
 70
0
 40
0.0
 41
1.0
 50
0.0
 71
0
 42
2.5
  3
LiberationSerif-Bold.ttf
  4

  0
STYLE
  5
54
330
5
100
AcDbSymbolTableRecord
100
AcDbTextStyleTableRecord
  2
LiberationSerif-BoldItalic
 70
0
 40
0.0
 41
1.0
 50
0.0
 71
0
 42
2.5
  3
LiberationSerif-BoldItalic.ttf
  4

  0
STYLE
  5
55
330
5
100
AcDbSymbolTableRecord
100
AcDbTextStyleTableRecord
  2
LiberationSerif-Italic
 70
0
 40
0.0
 41
1.0
 50
0.0
 71
0
 42
2.5
  3
LiberationSerif-Italic.ttf
  4

  0
STYLE
  5
56
330
5
100
AcDbSymbolTableRecord
100
AcDbTextStyleTableRecord
  2
LiberationMono
 70
0
 40
0.0
 41
1.0
 50
0.0
 71
0
 42
2.5
  3
LiberationMono-Regular.ttf
  4

  0
STYLE
  5
57
330
5
100
AcDbSymbolTableRecord
100
AcDbTextStyleTableRecord
  2
LiberationMono-Bold
 70
0
 40
0.0
 41
1.0
 50
0.0
 71
0
 42
2.5
  3
LiberationMono-Bold.ttf
  4

  0
STYLE
  5
58
330
5
100
AcDbSymbolTableRecord
100
AcDbTextStyleTableRecord
  2
LiberationMono-BoldItalic
 70
0
 40
0.0
 41
1.0
 50
0.0
 71
0
 42
2.5
  3
LiberationMono-BoldItalic.ttf
  4

  0
STYLE
  5
59
330
5
100
AcDbSymbolTableRecord
100
AcDbTextStyleTableRecord
  2
LiberationMono-Italic
 70
0
 40
0.0
 41
1.0
 50
0.0
 71
0
 42
2.5
  3
LiberationMono-Italic.ttf
  4

  0
ENDTAB
  0
TABLE
  2
VIEW
  5
7
330
0
100
AcDbSymbolTable
 70
0
  0
ENDTAB
  0
TABLE
  2
UCS
  5
6
330
0
100
AcDbSymbolTable
 70
0
  0
ENDTAB
  0
TABLE
  2
APPID
  5
3
330
0
100
AcDbSymbolTable
 70
3
  0
APPID
  5
2A
330
3
100
AcDbSymbolTableRecord
100
AcDbRegAppTableRecord
  2
ACAD
 70
0
  0
APPID
  5
20D
330
3
100
AcDbSymbolTableRecord
100
AcDbRegAppTableRecord
  2
HATCHBACKGROUNDCOLOR
 70
0
  0
APPID
  5
20E
330
3
100
AcDbSymbolTableRecord
100
AcDbRegAppTableRecord
  2
EZDXF
 70
0
  0
ENDTAB
  0
TABLE
  2
DIMSTYLE
  5
4
330
0
100
AcDbSymbolTable
 70
12
100
AcDbDimStyleTable
  0
DIMSTYLE
105
2B
330
4
100
AcDbSymbolTableRecord
100
AcDbDimStyleTableRecord
  2
Standard
 70
0
 40
1.0
 41
2.5
 42
0.625
 43
3.75
 44
1.25
 45
0.0
 46
0.0
 47
0.0
 48
0.0
 49
2.5
140
2.5
141
2.5
142
0.0
143
0.03937007874
144
1.0
145
0.0
146
1.0
147
0.625
148
0.0
 69
0
 70
0
 71
0
 72
0
 73
0
 74
0
 75
0
 76
0
 77
1
 78
8
 79
3
170
0
171
3
172
1
173
0
174
0
175
0
176
0
177
0
178
0
179
2
271
2
272
2
273
2
274
3
275
0
276
0
277
2
278
44
279
0
280
0
281
0
282
0
283
0
284
8
285
0
286
0
288
0
289
3
290
0
371
-2
372
-2
  0
DIMSTYLE
105
73
330
4
100
AcDbSymbolTableRecord
100
AcDbDimStyleTableRecord
  2
EZDXF
 70
0
 40
1.0
 41
0.175
 42
0.125
 43
3.75
 44
0.375
 45
0.0
 46
0.0
 47
0.0
 48
0.0
 49
2.5
140
0.25
141
2.5
142
0.0
143
0.03937007874
144
100.0
145
0.0
146
0.5
147
0.1
148
0.0
 69
0
 70
0
 71
0
 72
0
 73
0
 74
0
 75
0
 76
0
 77
1
 78
12
 79
3
170
0
171
3
172
1
173
0
174
0
175
0
176
0
177
0
178
0
179
2
271
2
272
2
273
2
274
3
275
0
276
0
277
2
278
46
279
2
280
0
281
0
282
0
283
0
284
8
285
0
286
0
288
1
289
3
290
0
340
4C
342
74
371
-2
372
-2
  0
DIMSTYLE
105
7C
330
4
100
AcDbSymbolTableRecord
100
AcDbDimStyleTableRecord
  2
EZ_M_100_H25_CM
 70
0
 40
1.0
 41
0.25
 42
0.125
 43
3.75
 44
0.375
 45
0.0
 46
0.0
 47
0.0
 48
0.0
 49
2.5
140
0.25
141
2.5
142
0.125
143
0.03937007874
144
100.0
145
0.0
146
0.5
147
0.1
148
0.0
 69
0
 70
0
 71
0
 72
0
 73
0
 74
0
 75
0
 76
0
 77
1
 78
12
 79
3
170
0
171
3
172
1
173
0
174
0
175
0
176
0
177
0
178
0
179
2
271
2
272
2
273
2
274
3
275
0
276
0
277
2
278
46
279
2
280
0
281
0
282
0
283
0
284
8
285
0
286
0
288
1
289
3
290
0
340
4C
371
-2
372
-2
  0
DIMSTYLE
105
7D
330
4
100
AcDbSymbolTableRecord
100
AcDbDimStyleTableRecord
  2
EZ_M_50_H25_CM
 70
0
 40
1.0
 41
0.125
 42
0.0625
 43
3.75
 44
0.1875
 45
0.0
 46
0.0
 47
0.0
 48
0.0
 49
2.5
140
0.125
141
2.5
142
0.0625
143
0.03937007874
144
100.0
145
0.0
146
0.5
147
0.05
148
0.0
 69
0
 70
0
 71
0
 72
0
 73
0
 74
0
 75
0
 76
0
 77
1
 78
12
 79
3
170
0
171
3
172
1
173
0
174
0
175
0
176
0
177
0
178
0
179
2
271
2
272
2
273
2
274
3
275
0
276
0
277
2
278
46
279
2
280
0
281
0
282
0
283
0
284
8
285
0
286
0
288
1
289
3
290
0
340
4C
371
-2
372
-2
  0
DIMSTYLE
105
7E
330
4
100
AcDbSymbolTableRecord
100
AcDbDimStyleTableRecord
  2
EZ_M_25_H25_CM
 70
0
 40
1.0
 41
0.0625
 42
0.03125
 43
3.75
 44
0.09375
 45
0.0
 46
0.0
 47
0.0
 48
0.0
 49
2.5
140
0.0625
141
2.5
142
0.03125
143
0.03937007874
144
100.0
145
0.0
146
0.5
147
0.025
148
0.0
 69
0
 70
0
 71
0
 72
0
 73
0
 74
0
 75
0
 76
0
 77
1
 78
12
 79
3
170
0
171
3
172
1
173
0
174
0
175
0
176
0
177
0
178
0
179
2
271
2
272
2
273
2
274
3
275
0
276
0
277
2
278
46
279
2
280
0
281
0
282
0
283
0
284
8
285
0
286
0
288
1
289
3
290
0
340
4C
371
-2
372
-2
  0
DIMSTYLE
105
7F
330
4
100
AcDbSymbolTableRecord
100
AcDbDimStyleTableRecord
  2
EZ_M_20_H25_CM
 70
0
 40
1.0
 41
0.05
 42
0.025
 43
3.75
 44
0.07500000000000001
 45
0.0
 46
0.0
 47
0.0
 48
0.0
 49
2.5
140
0.05
141
2.5
142
0.025
143
0.03937007874
144
100.0
145
0.0
146
0.5
147
0.020000000000000004
148
0.0
 69
0
 70
0
 71
0
 72
0
 73
0
 74
0
 75
0
 76
0
 77
1
 78
12
 79
3
170
0
171
3
172
1
173
0
174
0
175
0
176
0
177
0
178
0
179
2
271
2
272
2
273
2
274
3
275
0
276
0
277
2
278
46
279
2
280
0
281
0
282
0
283
0
284
8
285
0
286
0
288
1
289
3
290
0
340
4C
371
-2
372
-2
  0
DIMSTYLE
105
80
330
4
100
AcDbSymbolTableRecord
100
AcDbDimStyleTableRecord
  2
EZ_M_10_H25_CM
 70
0
 40
1.0
 41
0.025
 42
0.0125
 43
3.75
 44
0.037500000000000006
 45
0.0
 46
0.0
 47
0.0
 48
0.0
 49
2.5
140
0.025
141
2.5
142
0.0125
143
0.03937007874
144
100.0
145
0.0
146
0.5
147
0.010000000000000002
148
0.0
 69
0
 70
0
 71
0
 72
0
 73
0
 74
0
 75
0
 76
0
 77
1
 78
12
 79
3
170
0
171
3
172
1
173
0
174
0
175
0
176
0
177
0
178
0
179
2
271
2
272
2
273
2
274
3
275
0
276
0
277
2
278
46
279
2
280
0
281
0
282
0
283
0
284
8
285
0
286
0
288
1
289
3
290
0
340
4C
371
-2
372
-2
  0
DIMSTYLE
105
81
330
4
100
AcDbSymbolTableRecord
100
AcDbDimStyleTableRecord
  2
EZ_M_5_H25_CM
 70
0
 40
1.0
 41
0.0125
 42
0.00625
 43
3.75
 44
0.018750000000000003
 45
0.0
 46
0.0
 47
0.0
 48
0.0
 49
2.5
140
0.0125
141
2.5
142
0.00625
143
0.03937007874
144
100.0
145
0.0
146
0.5
147
0.005000000000000001
148
0.0
 69
0
 70
0
 71
0
 72
0
 73
0
 74
0
 75
0
 76
0
 77
1
 78
12
 79
3
170
0
171
3
172
1
173
0
174
0
175
0
176
0
177
0
178
0
179
2
271
2
272
2
273
2
274
3
275
0
276
0
277
2
278
46
279
2
280
0
281
0
282
0
283
0
284
8
285
0
286
0
288
1
289
3
290
0
340
4C
371
-2
372
-2
  0
DIMSTYLE
105
82
330
4
100
AcDbSymbolTableRecord
100
AcDbDimStyleTableRecord
  2
EZ_M_1_H25_CM
 70
0
 40
1.0
 41
0.0025
 42
0.00125
 43
3.75
 44
0.00375
 45
0.0
 46
0.0
 47
0.0
 48
0.0
 49
2.5
140
0.0025
141
2.5
142
0.00125
143
0.03937007874
144
100.0
145
0.0
146
0.5
147
0.001
148
0.0
 69
0
 70
0
 71
0
 72
0
 73
0
 74
0
 75
0
 76
0
 77
1
 78
12
 79
3
170
0
171
3
172
1
173
0
174
0
175
0
176
0
177
0
178
0
179
2
271
2
272
2
273
2
274
3
275
0
276
0
277
2
278
46
279
2
280
0
281
0
282
0
283
0
284
8
285
0
286
0
288
1
289
3
290
0
340
4C
371
-2
372
-2
  0
DIMSTYLE
105
83
330
4
100
AcDbSymbolTableRecord
100
AcDbDimStyleTableRecord
  2
EZ_RADIUS
 70
0
 40
1.0
 41
0.25
 42
0.125
 43
3.75
 44
0.375
 45
0.0
 46
0.0
 47
0.0
 48
0.0
 49
2.5
140
0.25
141
0.0
142
0.0
143
0.03937007874
144
100.0
145
0.0
146
0.5
147
0.1
148
0.0
 69
0
 70
0
 71
0
 72
0
 73
0
 74
0
 75
0
 76
0
 77
1
 78
12
 79
3
170
0
171
3
172
0
173
0
174
0
175
0
176
0
177
0
178
0
179
2
271
2
272
2
273
2
274
3
275
0
276
0
277
2
278
46
279
1
280
0
281
0
282
0
283
0
284
8
285
0
286
0
288
1
289
3
290
0
340
4C
342
84
371
-2
372
-2
  0
DIMSTYLE
105
88
330
4
100
AcDbSymbolTableRecord
100
AcDbDimStyleTableRecord
  2
EZ_RADIUS_INSIDE
 70
0
 40
1.0
 41
0.25
 42
0.125
 43
3.75
 44
0.375
 45
0.0
 46
0.0
 47
0.0
 48
0.0
 49
2.5
140
0.25
141
0.0
142
0.0
143
0.03937007874
144
100.0
145
0.0
146
0.5
147
0.1
148
0.0
 69
0
 70
0
 71
0
 72
0
 73
0
 74
0
 75
0
 76
0
 77
0
 78
12
 79
3
170
0
171
3
172
0
173
0
174
1
175
0
176
0
177
0
178
0
179
2
271
2
272
2
273
2
274
3
275
0
276
0
277
2
278
46
279
0
280
0
281
0
282
0
283
0
284
8
285
0
286
0
288
1
289
0
290
0
340
4C
342
84
371
-2
372
-2
  0
DIMSTYLE
105
89
330
4
100
AcDbSymbolTableRecord
100
AcDbDimStyleTableRecord
  2
EZ_CURVED
 70
0
 40
1.0
 41
0.25
 42
0.125
 43
3.75
 44
0.375
 45
0.0
 46
0.0
 47
0.0
 48
0.0
 49
2.5
140
0.25
141
2.5
142
0.0
143
0.03937007874
144
100.0
145
0.0
146
0.5
147
0.1
148
0.0
 69
0
 70
0
 71
0
 72
0
 73
0
 74
0
 75
0
 76
0
 77
1
 78
12
 79
2
 90
2
170
0
171
3
172
1
173
0
174
0
175
0
176
0
177
0
178
0
179
2
271
2
272
2
273
2
274
3
275
0
276
0
277
2
278
46
279
2
280
0
281
0
282
0
283
0
284
8
285
0
286
0
288
1
289
3
290
0
340
4C
371
-2
372
-2
  0
ENDTAB
  0
TABLE
  2
BLOCK_RECORD
  5
9
330
0
100
AcDbSymbolTable
 70
5
  0
BLOCK_RECORD
  5
17
330
9
100
AcDbSymbolTableRecord
100
AcDbBlockTableRecord
  2
*Model_Space
340
1A
 70
0
280
1
281
0
  0
BLOCK_RECORD
  5
1B
330
9
100
AcDbSymbolTableRecord
100
AcDbBlockTableRecord
  2
*Paper_Space
340
1E
 70
0
280
1
281
0
  0
BLOCK_RECORD
  5
74
330
9
100
AcDbSymbolTableRecord
100
AcDbBlockTableRecord
  2
_ARCHTICK
340
0
 70
0
280
1
281
0
  0
BLOCK_RECORD
  5
78
330
9
100
AcDbSymbolTableRecord
100
AcDbBlockTableRecord
  2
_CLOSEDFILLED
340
0
 70
0
280
1
281
0
  0
BLOCK_RECORD
  5
84
330
9
100
AcDbSymbolTableRecord
100
AcDbBlockTableRecord
  2
_CLOSEDBLANK
340
0
 70
0
280
1
281
0
  0
ENDTAB
  0
ENDSEC
  0
SECTION
  2
BLOCKS
  0
BLOCK
  5
18
330
17
100
AcDbEntity
  8
0
100
AcDbBlockBegin
  2
*Model_Space
 70
0
 10
0.0
 20
0.0
 30
0.0
  3
*Model_Space
  1

  0
ENDBLK
  5
19
330
17
100
AcDbEntity
  8
0
100
AcDbBlockEnd
  0
BLOCK
  5
1C
330
1B
100
AcDbEntity
  8
0
100
AcDbBlockBegin
  2
*Paper_Space
 70
0
 10
0.0
 20
0.0
 30
0.0
  3
*Paper_Space
  1

  0
ENDBLK
  5
1D
330
1B
100
AcDbEntity
  8
0
100
AcDbBlockEnd
  0
BLOCK
  5
75
330
74
100
AcDbEntity
  8
0
100
AcDbBlockBegin
  2
_ARCHTICK
 70
0
 10
0.0
 20
0.0
 30
0.0
  3
_ARCHTICK
  1

  0
LWPOLYLINE
  5
77
330
74
100
AcDbEntity
  8
0
  6
BYBLOCK
 62
0
100
AcDbPolyline
 90
2
 70
0
 43
0.15
 10
-0.5
 20
-0.5
 10
0.5
 20
0.5
  0
ENDBLK
  5
76
330
74
100
AcDbEntity
  8
0
100
AcDbBlockEnd
  0
BLOCK
  5
79
330
78
100
AcDbEntity
  8
0
100
AcDbBlockBegin
  2
_CLOSEDFILLED
 70
0
 10
0.0
 20
0.0
 30
0.0
  3
_CLOSEDFILLED
  1

  0
SOLID
  5
7B
330
78
100
AcDbEntity
  8
0
  6
BYBLOCK
 62
0
100
AcDbTrace
 10
-1.0
 20
0.16439898372402537
 30
0.0
 11
0.0
 21
0.0
 31
0.0
 12
-1.0
 22
-0.16439898372402537
 32
0.0
 13
-1.0
 23
-0.16439898372402537
 33
0.0
  0
ENDBLK
  5
7A
330
78
100
AcDbEntity
  8
0
100
AcDbBlockEnd
  0
BLOCK
  5
85
330
84
100
AcDbEntity
  8
0
100
AcDbBlockBegin
  2
_CLOSEDBLANK
 70
0
 10
0.0
 20
0.0
 30
0.0
  3
_CLOSEDBLANK
  1

  0
LWPOLYLINE
  5
87
330
84
100
AcDbEntity
  8
0
  6
BYBLOCK
 62
0
100
AcDbPolyline
 90
3
 70
1
 10
-1.0
 20
0.16439898372402537
 10
0.0
 20
0.0
 10
-1.0
 20
-0.16439898372402537
  0
ENDBLK
  5
86
330
84
100
AcDbEntity
  8
0
100
AcDbBlockEnd
  0
ENDSEC
  0
SECTION
  2
ENTITIES
  0
LINE
  5
91
330
17
100
AcDbEntity
  8
A-WALL
100
AcDbLine
 10
16.41732283464567
 20
292.51968503937013
 30
0.0
 11
16.41732283464567
 21
234.05511811023624
 31
0.0
  0
LINE
  5
92
330
17
100
AcDbEntity
  8
A-WALL
100
AcDbLine
 10
16.41732283464567
 20
234.05511811023624
 30
0.0
 11
0.0
 21
234.05511811023624
 31
0.0
  0
LINE
  5
93
330
17
100
AcDbEntity
  8
A-WALL
100
AcDbLine
 10
0.0
 20
234.05511811023624
 30
0.0
 11
0.0
 21
612.3228346456693
 31
0.0
  0
LINE
  5
94
330
17
100
AcDbEntity
  8
A-WALL
100
AcDbLine
 10
0.0
 20
612.3228346456693
 30
0.0
 11
16.41732283464567
 21
612.3228346456693
 31
0.0
  0
LINE
  5
95
330
17
100
AcDbEntity
  8
A-WALL
100
AcDbLine
 10
16.41732283464567
 20
612.3228346456693
 30
0.0
 11
16.41732283464567
 21
317.91338582677173
 31
0.0
  0
LINE
  5
96
330
17
100
AcDbEntity
  8
A-WALL
100
AcDbLine
 10
16.41732283464567
 20
317.91338582677173
 30
0.0
 11
96.45669291338584
 21
317.91338582677173
 31
0.0
  0
LINE
  5
97
330
17
100
AcDbEntity
  8
A-WALL
100
AcDbLine
 10
96.45669291338584
 20
317.91338582677173
 30
0.0
 11
96.45669291338584
 21
365.7086614173229
 31
0.0
  0
LINE
  5
98
330
17
100
AcDbEntity
  8
A-WALL
100
AcDbLine
 10
96.45669291338584
 20
365.7086614173229
 30
0.0
 11
101.33858267716535
 21
365.7086614173229
 31
0.0
  0
LINE
  5
99
330
17
100
AcDbEntity
  8
A-WALL
100
AcDbLine
 10
101.33858267716535
 20
365.7086614173229
 30
0.0
 11
101.33858267716535
 21
317.91338582677173
 31
0.0
  0
LINE
  5
9A
330
17
100
AcDbEntity
  8
A-WALL
100
AcDbLine
 10
101.33858267716535
 20
317.91338582677173
 30
0.0
 11
158.66141732283467
 21
317.91338582677173
 31
0.0
  0
LINE
  5
9B
330
17
100
AcDbEntity
  8
A-WALL
100
AcDbLine
 10
158.66141732283467
 20
317.91338582677173
 30
0.0
 11
158.66141732283467
 21
403.38582677165357
 31
0.0
  0
LINE
  5
9C
330
17
100
AcDbEntity
  8
A-WALL
100
AcDbLine
 10
158.66141732283467
 20
403.38582677165357
 30
0.0
 11
101.33858267716535
 21
403.38582677165357
 31
0.0
  0
LINE
  5
9D
330
17
100
AcDbEntity
  8
A-WALL
100
AcDbLine
 10
101.33858267716535
 20
403.38582677165357
 30
0.0
 11
101.33858267716535
 21
395.7086614173229
 31
0.0
  0
LINE
  5
9E
330
17
100
AcDbEntity
  8
A-WALL
100
AcDbLine
 10
101.33858267716535
 20
395.7086614173229
 30
0.0
 11
96.45669291338584
 21
395.7086614173229
 31
0.0
  0
LINE
  5
9F
330
17
100
AcDbEntity
  8
A-WALL
100
AcDbLine
 10
96.45669291338584
 20
395.7086614173229
 30
0.0
 11
96.45669291338584
 21
432.8740157480315
 31
0.0
  0
LINE
  5
A0
330
17
100
AcDbEntity
  8
A-WALL
100
AcDbLine
 10
96.45669291338584
 20
432.8740157480315
 30
0.0
 11
101.33858267716535
 21
432.8740157480315
 31
0.0
  0
LINE
  5
A1
330
17
100
AcDbEntity
  8
A-WALL
100
AcDbLine
 10
101.33858267716535
 20
432.8740157480315
 30
0.0
 11
101.33858267716535
 21
408.2677165354331
 31
0.0
  0
LINE
  5
A2
330
17
100
AcDbEntity
  8
A-WALL
100
AcDbLine
 10
101.33858267716535
 20
408.2677165354331
 30
0.0
 11
330.03937007874015
 21
408.2677165354331
 31
0.0
  0
LINE
  5
A3
330
17
100
AcDbEntity
  8
A-WALL
100
AcDbLine
 10
330.03937007874015
 20
408.2677165354331
 30
0.0
 11
330.03937007874015
 21
466.73228346456693
 31
0.0
  0
LINE
  5
A4
330
17
100
AcDbEntity
  8
A-WALL
100
AcDbLine
 10
330.03937007874015
 20
466.73228346456693
 30
0.0
 11
346.45669291338584
 21
466.73228346456693
 31
0.0
  0
LINE
  5
A5
330
17
100
AcDbEntity
  8
A-WALL
100
AcDbLine
 10
346.45669291338584
 20
466.73228346456693
 30
0.0
 11
346.45669291338584
 21
88.46456692913385
 31
0.0
  0
LINE
  5
A6
330
17
100
AcDbEntity
  8
A-WALL
100
AcDbLine
 10
346.45669291338584
 20
88.46456692913385
 30
0.0
 11
330.03937007874015
 21
88.46456692913385
 31
0.0
  0
LINE
  5
A7
330
17
100
AcDbEntity
  8
A-WALL
100
AcDbLine
 10
330.03937007874015
 20
88.46456692913385
 30
0.0
 11
330.03937007874015
 21
382.8740157480316
 31
0.0
  0
LINE
  5
A8
330
17
100
AcDbEntity
  8
A-WALL
100
AcDbLine
 10
330.03937007874015
 20
382.8740157480316
 30
0.0
 11
250.0
 21
382.8740157480316
 31
0.0
  0
LINE
  5
A9
330
17
100
AcDbEntity
  8
A-WALL
100
AcDbLine
 10
250.0
 20
382.8740157480316
 30
0.0
 11
250.0
 21
335.0
 31
0.0
  0
LINE
  5
AA
330
17
100
AcDbEntity
  8
A-WALL
100
AcDbLine
 10
250.0
 20
335.0
 30
0.0
 11
245.11811023622047
 21
335.0
 31
0.0
  0
LINE
  5
AB
330
17
100
AcDbEntity
  8
A-WALL
100
AcDbLine
 10
245.11811023622047
 20
335.0
 30
0.0
 11
245.11811023622047
 21
382.8740157480316
 31
0.0
  0
LINE
  5
AC
330
17
100
AcDbEntity
  8
A-WALL
100
AcDbLine
 10
245.11811023622047
 20
382.8740157480316
 30
0.0
 11
187.79527559055117
 21
382.8740157480316
 31
0.0
  0
LINE
  5
AD
330
17
100
AcDbEntity
  8
A-WALL
100
AcDbLine
 10
187.79527559055117
 20
382.8740157480316
 30
0.0
 11
187.79527559055117
 21
297.40157480314963
 31
0.0
  0
LINE
  5
AE
330
17
100
AcDbEntity
  8
A-WALL
100
AcDbLine
 10
187.79527559055117
 20
297.40157480314963
 30
0.0
 11
245.11811023622047
 21
297.40157480314963
 31
0.0
  0
LINE
  5
AF
330
17
100
AcDbEntity
  8
A-WALL
100
AcDbLine
 10
245.11811023622047
 20
297.40157480314963
 30
0.0
 11
245.11811023622047
 21
305.0
 31
0.0
  0
LINE
  5
B0
330
17
100
AcDbEntity
  8
A-WALL
100
AcDbLine
 10
245.11811023622047
 20
305.0
 30
0.0
 11
250.0
 21
305.0
 31
0.0
  0
LINE
  5
B1
330
17
100
AcDbEntity
  8
A-WALL
100
AcDbLine
 10
250.0
 20
305.0
 30
0.0
 11
250.0
 21
267.91338582677173
 31
0.0
  0
LINE
  5
B2
330
17
100
AcDbEntity
  8
A-WALL
100
AcDbLine
 10
250.0
 20
267.91338582677173
 30
0.0
 11
245.11811023622047
 21
267.91338582677173
 31
0.0
  0
LINE
  5
B3
330
17
100
AcDbEntity
  8
A-WALL
100
AcDbLine
 10
245.11811023622047
 20
267.91338582677173
 30
0.0
 11
245.11811023622047
 21
292.51968503937013
 31
0.0
  0
LINE
  5
B4
330
17
100
AcDbEntity
  8
A-WALL
100
AcDbLine
 10
245.11811023622047
 20
292.51968503937013
 30
0.0
 11
16.41732283464567
 21
292.51968503937013
 31
0.0
  0
LINE
  5
B5
330
17
100
AcDbEntity
  8
A-WALL
100
AcDbLine
 10
242.71653543307087
 20
16.41732283464573
 30
0.0
 11
244.09448818897638
 21
16.41732283464573
 31
0.0
  0
LINE
  5
B6
330
17
100
AcDbEntity
  8
A-WALL
100
AcDbLine
 10
244.09448818897638
 20
16.41732283464573
 30
0.0
 11
244.09448818897638
 21
157.48031496062993
 31
0.0
  0
LINE
  5
B7
330
17
100
AcDbEntity
  8
A-WALL
100
AcDbLine
 10
244.09448818897638
 20
157.48031496062993
 30
0.0
 11
248.9763779527559
 21
157.48031496062993
 31
0.0
  0
LINE
  5
B8
330
17
100
AcDbEntity
  8
A-WALL
100
AcDbLine
 10
248.9763779527559
 20
157.48031496062993
 30
0.0
 11
248.9763779527559
 21
16.41732283464573
 31
0.0
  0
LINE
  5
B9
330
17
100
AcDbEntity
  8
A-WALL
100
AcDbLine
 10
248.9763779527559
 20
16.41732283464573
 30
0.0
 11
330.03937007874015
 21
16.41732283464573
 31
0.0
  0
LINE
  5
BA
330
17
100
AcDbEntity
  8
A-WALL
100
AcDbLine
 10
330.03937007874015
 20
16.41732283464573
 30
0.0
 11
330.03937007874015
 21
39.25196850393701
 31
0.0
  0
LINE
  5
BB
330
17
100
AcDbEntity
  8
A-WALL
100
AcDbLine
 10
330.03937007874015
 20
39.25196850393701
 30
0.0
 11
346.45669291338584
 21
39.25196850393701
 31
0.0
  0
LINE
  5
BC
330
17
100
AcDbEntity
  8
A-WALL
100
AcDbLine
 10
346.45669291338584
 20
39.25196850393701
 30
0.0
 11
346.45669291338584
 21
0.0
 31
0.0
  0
LINE
  5
BD
330
17
100
AcDbEntity
  8
A-WALL
100
AcDbLine
 10
346.45669291338584
 20
0.0
 30
0.0
 11
242.71653543307087
 21
0.0
 31
0.0
  0
LINE
  5
BE
330
17
100
AcDbEntity
  8
A-WALL
100
AcDbLine
 10
242.71653543307087
 20
0.0
 30
0.0
 11
242.71653543307087
 21
16.41732283464573
 31
0.0
  0
LINE
  5
BF
330
17
100
AcDbEntity
  8
A-WALL
100
AcDbLine
 10
346.45669291338584
 20
700.7874015748032
 30
0.0
 11
346.45669291338584
 21
496.2598425196851
 31
0.0
  0
LINE
  5
C0
330
17
100
AcDbEntity
  8
A-WALL
100
AcDbLine
 10
346.45669291338584
 20
496.2598425196851
 30
0.0
 11
330.03937007874015
 21
496.2598425196851
 31
0.0
  0
LINE
  5
C1
330
17
100
AcDbEntity
  8
A-WALL
100
AcDbLine
 10
330.03937007874015
 20
496.2598425196851
 30
0.0
 11
330.03937007874015
 21
700.7874015748032
 31
0.0
  0
LINE
  5
C2
330
17
100
AcDbEntity
  8
A-WALL
100
AcDbLine
 10
330.03937007874015
 20
700.7874015748032
 30
0.0
 11
346.45669291338584
 21
700.7874015748032
 31
0.0
  0
LINE
  5
C3
330
17
100
AcDbEntity
  8
A-WALL
100
AcDbLine
 10
210.70866141732284
 20
0.0
 30
0.0
 11
206.77165354330708
 21
0.0
 31
0.0
  0
LINE
  5
C4
330
17
100
AcDbEntity
  8
A-WALL
100
AcDbLine
 10
206.77165354330708
 20
0.0
 30
0.0
 11
206.77165354330708
 21
16.41732283464573
 31
0.0
  0
LINE
  5
C5
330
17
100
AcDbEntity
  8
A-WALL
100
AcDbLine
 10
206.77165354330708
 20
16.41732283464573
 30
0.0
 11
210.70866141732284
 21
16.41732283464573
 31
0.0
  0
LINE
  5
C6
330
17
100
AcDbEntity
  8
A-WALL
100
AcDbLine
 10
210.70866141732284
 20
16.41732283464573
 30
0.0
 11
210.70866141732284
 21
0.0
 31
0.0
  0
LINE
  5
C7
330
17
100
AcDbEntity
  8
A-WALL
100
AcDbLine
 10
139.68503937007875
 20
684.3700787401575
 30
0.0
 11
135.7468503937008
 21
684.3700787401575
 31
0.0
  0
LINE
  5
C8
330
17
100
AcDbEntity
  8
A-WALL
100
AcDbLine
 10
135.7468503937008
 20
684.3700787401575
 30
0.0
 11
135.7468503937008
 21
700.7874015748032
 31
0.0
  0
LINE
  5
C9
330
17
100
AcDbEntity
  8
A-WALL
100
AcDbLine
 10
135.7468503937008
 20
700.7874015748032
 30
0.0
 11
139.68503937007875
 21
700.7874015748032
 31
0.0
  0
LINE
  5
CA
330
17
100
AcDbEntity
  8
A-WALL
100
AcDbLine
 10
139.68503937007875
 20
700.7874015748032
 30
0.0
 11
139.68503937007875
 21
684.3700787401575
 31
0.0
  0
LINE
  5
CB
330
17
100
AcDbEntity
  8
A-WALL
100
AcDbLine
 10
97.48031496062993
 20
543.3070866141733
 30
0.0
 11
97.48031496062993
 21
684.3700787401575
 31
0.0
  0
LINE
  5
CC
330
17
100
AcDbEntity
  8
A-WALL
100
AcDbLine
 10
97.48031496062993
 20
684.3700787401575
 30
0.0
 11
16.41732283464567
 21
684.3700787401575
 31
0.0
  0
LINE
  5
CD
330
17
100
AcDbEntity
  8
A-WALL
100
AcDbLine
 10
16.41732283464567
 20
684.3700787401575
 30
0.0
 11
16.41732283464567
 21
661.5354330708662
 31
0.0
  0
LINE
  5
CE
330
17
100
AcDbEntity
  8
A-WALL
100
AcDbLine
 10
16.41732283464567
 20
661.5354330708662
 30
0.0
 11
0.0
 21
661.5354330708662
 31
0.0
  0
LINE
  5
CF
330
17
100
AcDbEntity
  8
A-WALL
100
AcDbLine
 10
0.0
 20
661.5354330708662
 30
0.0
 11
0.0
 21
700.7874015748032
 31
0.0
  0
LINE
  5
D0
330
17
100
AcDbEntity
  8
A-WALL
100
AcDbLine
 10
0.0
 20
700.7874015748032
 30
0.0
 11
103.73897637795277
 21
700.7874015748032
 31
0.0
  0
LINE
  5
D1
330
17
100
AcDbEntity
  8
A-WALL
100
AcDbLine
 10
103.73897637795277
 20
700.7874015748032
 30
0.0
 11
103.73897637795277
 21
684.3700787401575
 31
0.0
  0
LINE
  5
D2
330
17
100
AcDbEntity
  8
A-WALL
100
AcDbLine
 10
103.73897637795277
 20
684.3700787401575
 30
0.0
 11
102.36220472440945
 21
684.3700787401575
 31
0.0
  0
LINE
  5
D3
330
17
100
AcDbEntity
  8
A-WALL
100
AcDbLine
 10
102.36220472440945
 20
684.3700787401575
 30
0.0
 11
102.36220472440945
 21
543.3070866141733
 31
0.0
  0
LINE
  5
D4
330
17
100
AcDbEntity
  8
A-WALL
100
AcDbLine
 10
102.36220472440945
 20
543.3070866141733
 30
0.0
 11
97.48031496062993
 21
543.3070866141733
 31
0.0
  0
LINE
  5
D5
330
17
100
AcDbEntity
  8
A-WALL
100
AcDbLine
 10
16.41732283464567
 20
204.52755905511813
 30
0.0
 11
16.41732283464567
 21
0.0
 31
0.0
  0
LINE
  5
D6
330
17
100
AcDbEntity
  8
A-WALL
100
AcDbLine
 10
16.41732283464567
 20
0.0
 30
0.0
 11
0.0
 21
0.0
 31
0.0
  0
LINE
  5
D7
330
17
100
AcDbEntity
  8
A-WALL
100
AcDbLine
 10
0.0
 20
0.0
 30
0.0
 11
0.0
 21
204.52755905511813
 31
0.0
  0
LINE
  5
D8
330
17
100
AcDbEntity
  8
A-WALL
100
AcDbLine
 10
0.0
 20
204.52755905511813
 30
0.0
 11
16.41732283464567
 21
204.52755905511813
 31
0.0
  0
LINE
  5
D9
330
17
100
AcDbEntity
  8
A-DOOR
100
AcDbLine
 10
346.4566929133858
 20
88.464566929134
 30
0.0
 11
395.66929133858264
 21
88.464566929134
 31
0.0
  0
LINE
  5
DA
330
17
100
AcDbEntity
  8
A-DOOR
100
AcDbLine
 10
395.66929133858264
 20
88.464566929134
 30
0.0
 11
395.66929133858264
 21
86.88976377952773
 31
0.0
  0
LINE
  5
DB
330
17
100
AcDbEntity
  8
A-DOOR
100
AcDbLine
 10
395.66929133858264
 20
86.88976377952773
 30
0.0
 11
346.4566929133858
 21
86.88976377952773
 31
0.0
  0
LINE
  5
DC
330
17
100
AcDbEntity
  8
A-DOOR
100
AcDbLine
 10
346.4566929133858
 20
86.88976377952773
 30
0.0
 11
346.4566929133858
 21
88.464566929134
 31
0.0
  0
ARC
  5
DD
330
17
100
AcDbEntity
  8
A-DOOR
100
AcDbCircle
 10
346.4566929133858
 20
88.464566929134
 30
0.0
 40
49.21259842519685
100
AcDbArc
 50
-90.0
 51
-0.0
  0
LINE
  5
DE
330
17
100
AcDbEntity
  8
A-DOOR
100
AcDbLine
 10
-1.0927391974657053e-15
 20
612.3228346456689
 30
0.0
 11
-49.21259842519685
 21
612.3228346456689
 31
0.0
  0
LINE
  5
DF
330
17
100
AcDbEntity
  8
A-DOOR
100
AcDbLine
 10
-49.21259842519685
 20
612.3228346456689
 30
0.0
 11
-49.21259842519685
 21
613.8976377952753
 31
0.0
  0
LINE
  5
E0
330
17
100
AcDbEntity
  8
A-DOOR
100
AcDbLine
 10
-49.21259842519685
 20
613.8976377952753
 30
0.0
 11
-1.0927391974657053e-15
 21
613.8976377952753
 31
0.0
  0
LINE
  5
E1
330
17
100
AcDbEntity
  8
A-DOOR
100
AcDbLine
 10
-1.0927391974657053e-15
 20
613.8976377952753
 30
0.0
 11
-1.0927391974657053e-15
 21
612.3228346456689
 31
0.0
  0
ARC
  5
E2
330
17
100
AcDbEntity
  8
A-DOOR
100
AcDbCircle
 10
-1.0927391974657053e-15
 20
612.3228346456689
 30
0.0
 40
49.21259842519685
100
AcDbArc
 50
90.0
 51
180.0
  0
LINE
  5
E3
330
17
100
AcDbEntity
  8
A-DOOR
100
AcDbLine
 10
245.1181102362205
 20
304.9999999999991
 30
0.0
 11
215.11811023622056
 21
304.9999999999991
 31
0.0
  0
LINE
  5
E4
330
17
100
AcDbEntity
  8
A-DOOR
100
AcDbLine
 10
215.11811023622056
 20
304.9999999999991
 30
0.0
 11
215.11811023622056
 21
306.5748031496054
 31
0.0
  0
LINE
  5
E5
330
17
100
AcDbEntity
  8
A-DOOR
100
AcDbLine
 10
215.11811023622056
 20
306.5748031496054
 30
0.0
 11
245.1181102362205
 21
306.5748031496054
 31
0.0
  0
LINE
  5
E6
330
17
100
AcDbEntity
  8
A-DOOR
100
AcDbLine
 10
245.1181102362205
 20
306.5748031496054
 30
0.0
 11
245.1181102362205
 21
304.9999999999991
 31
0.0
  0
ARC
  5
E7
330
17
100
AcDbEntity
  8
A-DOOR
100
AcDbCircle
 10
245.1181102362205
 20
304.9999999999991
 30
0.0
 40
29.999999999999957
100
AcDbArc
 50
90.0
 51
180.0
  0
LINE
  5
E8
330
17
100
AcDbEntity
  8
A-DOOR
100
AcDbLine
 10
101.33858267716535
 20
395.70866141732364
 30
0.0
 11
131.33858267716536
 21
395.70866141732364
 31
0.0
  0
LINE
  5
E9
330
17
100
AcDbEntity
  8
A-DOOR
100
AcDbLine
 10
131.33858267716536
 20
395.70866141732364
 30
0.0
 11
131.33858267716536
 21
394.13385826771736
 31
0.0
  0
LINE
  5
EA
330
17
100
AcDbEntity
  8
A-DOOR
100
AcDbLine
 10
131.33858267716536
 20
394.13385826771736
 30
0.0
 11
101.33858267716535
 21
394.13385826771736
 31
0.0
  0
LINE
  5
EB
330
17
100
AcDbEntity
  8
A-DOOR
100
AcDbLine
 10
101.33858267716535
 20
394.13385826771736
 30
0.0
 11
101.33858267716535
 21
395.70866141732364
 31
0.0
  0
ARC
  5
EC
330
17
100
AcDbEntity
  8
A-DOOR
100
AcDbCircle
 10
101.33858267716535
 20
395.70866141732364
 30
0.0
 40
30.0
100
AcDbArc
 50
-90.0
 51
-0.0
  0
LINE
  5
ED
330
17
100
AcDbEntity
  8
A-DOOR
100
AcDbLine
 10
103.73894350562266
 20
700.7874015748032
 30
0.0
 11
103.73894350562266
 21
732.7952755905512
 31
0.0
  0
LINE
  5
EE
330
17
100
AcDbEntity
  8
A-DOOR
100
AcDbLine
 10
103.73894350562266
 20
732.7952755905512
 30
0.0
 11
105.31374665522895
 21
732.7952755905512
 31
0.0
  0
LINE
  5
EF
330
17
100
AcDbEntity
  8
A-DOOR
100
AcDbLine
 10
105.31374665522895
 20
732.7952755905512
 30
0.0
 11
105.31374665522895
 21
700.7874015748032
 31
0.0
  0
LINE
  5
F0
330
17
100
AcDbEntity
  8
A-DOOR
100
AcDbLine
 10
105.31374665522895
 20
700.7874015748032
 30
0.0
 11
103.73894350562266
 21
700.7874015748032
 31
0.0
  0
ARC
  5
F1
330
17
100
AcDbEntity
  8
A-DOOR
100
AcDbCircle
 10
103.73894350562266
 20
700.7874015748032
 30
0.0
 40
32.00787401574802
100
AcDbArc
 50
0.0
 51
90.0
  0
LINE
  5
F2
330
17
100
AcDbEntity
  8
A-DOOR
100
AcDbLine
 10
242.71653543307062
 20
0.0
 30
0.0
 11
242.71653543307062
 21
-32.00787401574799
 31
0.0
  0
LINE
  5
F3
330
17
100
AcDbEntity
  8
A-DOOR
100
AcDbLine
 10
242.71653543307062
 20
-32.00787401574799
 30
0.0
 11
241.14173228346434
 21
-32.00787401574799
 31
0.0
  0
LINE
  5
F4
330
17
100
AcDbEntity
  8
A-DOOR
100
AcDbLine
 10
241.14173228346434
 20
-32.00787401574799
 30
0.0
 11
241.14173228346434
 21
0.0
 31
0.0
  0
LINE
  5
F5
330
17
100
AcDbEntity
  8
A-DOOR
100
AcDbLine
 10
241.14173228346434
 20
0.0
 30
0.0
 11
242.71653543307062
 21
0.0
 31
0.0
  0
ARC
  5
F6
330
17
100
AcDbEntity
  8
A-DOOR
100
AcDbCircle
 10
242.71653543307062
 20
0.0
 30
0.0
 40
32.007874015748
100
AcDbArc
 50
-180.0
 51
-90.0
  0
LINE
  5
F7
330
17
100
AcDbEntity
  8
A-GLAZ
100
AcDbLine
 10
139.68503937007915
 20
684.3700787401575
 30
0.0
 11
330.0393700787405
 21
684.3700787401575
 31
0.0
  0
LINE
  5
F8
330
17
100
AcDbEntity
  8
A-GLAZ
100
AcDbLine
 10
330.0393700787405
 20
684.3700787401575
 30
0.0
 11
330.0393700787405
 21
700.7874015748032
 31
0.0
  0
LINE
  5
F9
330
17
100
AcDbEntity
  8
A-GLAZ
100
AcDbLine
 10
330.0393700787405
 20
700.7874015748032
 30
0.0
 11
139.68503937007915
 21
700.7874015748032
 31
0.0
  0
LINE
  5
FA
330
17
100
AcDbEntity
  8
A-GLAZ
100
AcDbLine
 10
139.68503937007915
 20
700.7874015748032
 30
0.0
 11
139.68503937007915
 21
684.3700787401575
 31
0.0
  0
LINE
  5
FB
330
17
100
AcDbEntity
  8
A-GLAZ
100
AcDbLine
 10
139.68503937007915
 20
691.7913385826772
 30
0.0
 11
330.0393700787405
 21
691.7913385826772
 31
0.0
  0
LINE
  5
FC
330
17
100
AcDbEntity
  8
A-GLAZ
100
AcDbLine
 10
139.68503937007915
 20
693.3661417322835
 30
0.0
 11
330.0393700787405
 21
693.3661417322835
 31
0.0
  0
LINE
  5
FD
330
17
100
AcDbEntity
  8
A-GLAZ
100
AcDbLine
 10
16.417322834645294
 20
0.0
 30
0.0
 11
206.77165354330657
 21
0.0
 31
0.0
  0
LINE
  5
FE
330
17
100
AcDbEntity
  8
A-GLAZ
100
AcDbLine
 10
206.77165354330657
 20
0.0
 30
0.0
 11
206.77165354330657
 21
16.41732283464573
 31
0.0
  0
LINE
  5
FF
330
17
100
AcDbEntity
  8
A-GLAZ
100
AcDbLine
 10
206.77165354330657
 20
16.41732283464573
 30
0.0
 11
16.417322834645294
 21
16.41732283464573
 31
0.0
  0
LINE
  5
100
330
17
100
AcDbEntity
  8
A-GLAZ
100
AcDbLine
 10
16.417322834645294
 20
16.41732283464573
 30
0.0
 11
16.417322834645294
 21
0.0
 31
0.0
  0
LINE
  5
101
330
17
100
AcDbEntity
  8
A-GLAZ
100
AcDbLine
 10
16.417322834645294
 20
7.421259842519733
 30
0.0
 11
206.77165354330657
 21
7.421259842519733
 31
0.0
  0
LINE
  5
102
330
17
100
AcDbEntity
  8
A-GLAZ
100
AcDbLine
 10
16.417322834645294
 20
8.996062992126
 30
0.0
 11
206.77165354330657
 21
8.996062992126
 31
0.0
  0
LINE
  5
103
330
17
100
AcDbEntity
  8
A-GLAZ
100
AcDbLine
 10
346.4566929133858
 20
466.73228346456654
 30
0.0
 11
346.4566929133858
 21
496.25984251968464
 31
0.0
  0
LINE
  5
104
330
17
100
AcDbEntity
  8
A-GLAZ
100
AcDbLine
 10
346.4566929133858
 20
496.25984251968464
 30
0.0
 11
330.03937007874003
 21
496.25984251968464
 31
0.0
  0
LINE
  5
105
330
17
100
AcDbEntity
  8
A-GLAZ
100
AcDbLine
 10
330.03937007874003
 20
496.25984251968464
 30
0.0
 11
330.03937007874003
 21
466.73228346456654
 31
0.0
  0
LINE
  5
106
330
17
100
AcDbEntity
  8
A-GLAZ
100
AcDbLine
 10
330.03937007874003
 20
466.73228346456654
 30
0.0
 11
346.4566929133858
 21
466.73228346456654
 31
0.0
  0
LINE
  5
107
330
17
100
AcDbEntity
  8
A-GLAZ
100
AcDbLine
 10
339.0354330708661
 20
466.73228346456654
 30
0.0
 11
339.0354330708661
 21
496.25984251968464
 31
0.0
  0
LINE
  5
108
330
17
100
AcDbEntity
  8
A-GLAZ
100
AcDbLine
 10
337.4606299212598
 20
466.73228346456654
 30
0.0
 11
337.4606299212598
 21
496.25984251968464
 31
0.0
  0
LINE
  5
109
330
17
100
AcDbEntity
  8
A-GLAZ
100
AcDbLine
 10
16.417322834645667
 20
204.52755905511856
 30
0.0
 11
16.417322834645667
 21
234.05511811023666
 31
0.0
  0
LINE
  5
10A
330
17
100
AcDbEntity
  8
A-GLAZ
100
AcDbLine
 10
16.417322834645667
 20
234.05511811023666
 30
0.0
 11
-1.0927391974657053e-15
 21
234.05511811023666
 31
0.0
  0
LINE
  5
10B
330
17
100
AcDbEntity
  8
A-GLAZ
100
AcDbLine
 10
-1.0927391974657053e-15
 20
234.05511811023666
 30
0.0
 11
-1.0927391974657053e-15
 21
204.52755905511856
 31
0.0
  0
LINE
  5
10C
330
17
100
AcDbEntity
  8
A-GLAZ
100
AcDbLine
 10
-1.0927391974657053e-15
 20
204.52755905511856
 30
0.0
 11
16.417322834645667
 21
204.52755905511856
 31
0.0
  0
LINE
  5
10D
330
17
100
AcDbEntity
  8
A-GLAZ
100
AcDbLine
 10
8.996062992125983
 20
204.52755905511856
 30
0.0
 11
8.996062992125983
 21
234.05511811023666
 31
0.0
  0
LINE
  5
10E
330
17
100
AcDbEntity
  8
A-GLAZ
100
AcDbLine
 10
7.421259842519684
 20
204.52755905511856
 30
0.0
 11
7.421259842519684
 21
234.05511811023666
 31
0.0
  0
TEXT
  5
10F
330
17
100
AcDbEntity
  8
A-AREA-IDEN
100
AcDbText
 10
287.06692913385825
 20
201.00216535433074
 30
0.0
 40
7.874015748031496
  1
FOYER
 72
1
 11
287.06692913385825
 21
201.00216535433074
 31
0.0
100
AcDbText
 73
2
  0
TEXT
  5
110
330
17
100
AcDbEntity
  8
A-AREA-IDEN
100
AcDbText
 10
287.06692913385825
 20
186.8289370078741
 30
0.0
 40
5.905511811023622
  1
A101
 72
1
 11
287.06692913385825
 21
186.8289370078741
 31
0.0
100
AcDbText
 73
2
  0
TEXT
  5
111
330
17
100
AcDbEntity
  8
A-AREA-IDEN
100
AcDbText
 10
130.0
 20
367.73622047244095
 30
0.0
 40
7.874015748031496
  1
BATHROOM 1
 72
1
 11
130.0
 21
367.73622047244095
 31
0.0
100
AcDbText
 73
2
  0
TEXT
  5
112
330
17
100
AcDbEntity
  8
A-AREA-IDEN
100
AcDbText
 10
130.0
 20
353.5629921259843
 30
0.0
 40
5.905511811023622
  1
B104
 72
1
 11
130.0
 21
353.5629921259843
 31
0.0
100
AcDbText
 73
2
  0
TEXT
  5
113
330
17
100
AcDbEntity
  8
A-AREA-IDEN
100
AcDbText
 10
59.389763779527556
 20
515.9627952755906
 30
0.0
 40
7.874015748031496
  1
FOYER
 72
1
 11
59.389763779527556
 21
515.9627952755906
 31
0.0
100
AcDbText
 73
2
  0
TEXT
  5
114
330
17
100
AcDbEntity
  8
A-AREA-IDEN
100
AcDbText
 10
59.389763779527556
 20
501.7895669291339
 30
0.0
 40
5.905511811023622
  1
B101
 72
1
 11
59.389763779527556
 21
501.7895669291339
 31
0.0
100
AcDbText
 73
2
  0
TEXT
  5
115
330
17
100
AcDbEntity
  8
A-AREA-IDEN
100
AcDbText
 10
310.07086614173227
 20
287.0299212598425
 30
0.0
 40
7.874015748031496
  1
STAIR
 72
1
 11
310.07086614173227
 21
287.0299212598425
 31
0.0
100
AcDbText
 73
2
  0
TEXT
  5
116
330
17
100
AcDbEntity
  8
A-AREA-IDEN
100
AcDbText
 10
310.07086614173227
 20
272.8566929133858
 30
0.0
 40
5.905511811023622
  1
A105
 72
1
 11
310.07086614173227
 21
272.8566929133858
 31
0.0
100
AcDbText
 73
2
  0
TEXT
  5
117
330
17
100
AcDbEntity
  8
A-AREA-IDEN
100
AcDbText
 10
36.38582677165355
 20
427.9307086614174
 30
0.0
 40
7.874015748031496
  1
ROOM
 72
1
 11
36.38582677165355
 21
427.9307086614174
 31
0.0
100
AcDbText
 73
2
  0
TEXT
  5
118
330
17
100
AcDbEntity
  8
A-AREA-IDEN
100
AcDbText
 10
36.38582677165355
 20
413.7574803149607
 30
0.0
 40
5.905511811023622
  1
B105
 72
1
 11
36.38582677165355
 21
413.7574803149607
 31
0.0
100
AcDbText
 73
2
  0
TEXT
  5
119
330
17
100
AcDbEntity
  8
A-AREA-IDEN
100
AcDbText
 10
216.2007874015748
 20
597.3031496062993
 30
0.0
 40
7.874015748031496
  1
LIVING ROOM
 72
1
 11
216.2007874015748
 21
597.3031496062993
 31
0.0
100
AcDbText
 73
2
  0
TEXT
  5
11A
330
17
100
AcDbEntity
  8
A-AREA-IDEN
100
AcDbText
 10
216.2007874015748
 20
583.1299212598426
 30
0.0
 40
5.905511811023622
  1
B102
 72
1
 11
216.2007874015748
 21
583.1299212598426
 31
0.0
100
AcDbText
 73
2
  0
TEXT
  5
11B
330
17
100
AcDbEntity
  8
A-AREA-IDEN
100
AcDbText
 10
130.25590551181102
 20
117.65748031496071
 30
0.0
 40
7.874015748031496
  1
LIVING ROOM
 72
1
 11
130.25590551181102
 21
117.65748031496071
 31
0.0
100
AcDbText
 73
2
  0
TEXT
  5
11C
330
17
100
AcDbEntity
  8
A-AREA-IDEN
100
AcDbText
 10
130.25590551181102
 20
103.48425196850404
 30
0.0
 40
5.905511811023622
  1
A102
 72
1
 11
130.25590551181102
 21
103.48425196850404
 31
0.0
100
AcDbText
 73
2
  0
TEXT
  5
11D
330
17
100
AcDbEntity
  8
A-AREA-IDEN
100
AcDbText
 10
130.76771653543307
 20
255.70866141732287
 30
0.0
 40
7.874015748031496
  1
KITCHEN
 72
1
 11
130.76771653543307
 21
255.70866141732287
 31
0.0
100
AcDbText
 73
2
  0
TEXT
  5
11E
330
17
100
AcDbEntity
  8
A-AREA-IDEN
100
AcDbText
 10
130.76771653543307
 20
241.53543307086622
 30
0.0
 40
5.905511811023622
  1
A103
 72
1
 11
130.76771653543307
 21
241.53543307086622
 31
0.0
100
AcDbText
 73
2
  0
TEXT
  5
11F
330
17
100
AcDbEntity
  8
A-AREA-IDEN
100
AcDbText
 10
215.68897637795274
 20
459.25196850393706
 30
0.0
 40
7.874015748031496
  1
KITCHEN
 72
1
 11
215.68897637795274
 21
459.25196850393706
 31
0.0
100
AcDbText
 73
2
  0
TEXT
  5
120
330
17
100
AcDbEntity
  8
A-AREA-IDEN
100
AcDbText
 10
215.68897637795274
 20
445.0787401574804
 30
0.0
 40
5.905511811023622
  1
B103
 72
1
 11
215.68897637795274
 21
445.0787401574804
 31
0.0
100
AcDbText
 73
2
  0
TEXT
  5
121
330
17
100
AcDbEntity
  8
A-AREA-IDEN
100
AcDbText
 10
216.4566929133858
 20
347.22440944881896
 30
0.0
 40
7.874015748031496
  1
BATHROOM 1
 72
1
 11
216.4566929133858
 21
347.22440944881896
 31
0.0
100
AcDbText
 73
2
  0
TEXT
  5
122
330
17
100
AcDbEntity
  8
A-AREA-IDEN
100
AcDbText
 10
216.4566929133858
 20
333.0511811023623
 30
0.0
 40
5.905511811023622
  1
A104
 72
1
 11
216.4566929133858
 21
333.0511811023623
 31
0.0
100
AcDbText
 73
2
  0
TEXT
  5
123
330
17
100
AcDbEntity
  8
A-ANNO-TTLB
100
AcDbText
 10
0.0
 20
779.5275590551181
 30
0.0
 40
23.62204724409449
  1
LEVEL 1 PLAN
 11
0.0
 21
779.5275590551181
 31
0.0
100
AcDbText
 73
2
  0
LINE
  5
124
330
17
100
AcDbEntity
  8
A-WALL
100
AcDbLine
 10
0.0
 20
-1015.748031496063
 30
0.0
 11
0.0
 21
-999.3307086614174
 31
0.0
  0
LINE
  5
125
330
17
100
AcDbEntity
  8
A-WALL
100
AcDbLine
 10
0.0
 20
-999.3307086614174
 30
0.0
 11
162.4015748031496
 21
-999.3307086614174
 31
0.0
  0
LINE
  5
126
330
17
100
AcDbEntity
  8
A-WALL
100
AcDbLine
 10
162.4015748031496
 20
-999.3307086614174
 30
0.0
 11
162.4015748031496
 21
-753.3070866141733
 31
0.0
  0
LINE
  5
127
330
17
100
AcDbEntity
  8
A-WALL
100
AcDbLine
 10
162.4015748031496
 20
-753.3070866141733
 30
0.0
 11
98.66141732283464
 21
-753.3070866141733
 31
0.0
  0
LINE
  5
128
330
17
100
AcDbEntity
  8
A-WALL
100
AcDbLine
 10
98.66141732283464
 20
-753.3070866141733
 30
0.0
 11
98.66141732283464
 21
-774.5669291338583
 31
0.0
  0
LINE
  5
129
330
17
100
AcDbEntity
  8
A-WALL
100
AcDbLine
 10
98.66141732283464
 20
-774.5669291338583
 30
0.0
 11
89.84251968503938
 21
-774.5669291338583
 31
0.0
  0
LINE
  5
12A
330
17
100
AcDbEntity
  8
A-WALL
100
AcDbLine
 10
89.84251968503938
 20
-774.5669291338583
 30
0.0
 11
89.84251968503938
 21
-769.6850393700788
 31
0.0
  0
LINE
  5
12B
330
17
100
AcDbEntity
  8
A-WALL
100
AcDbLine
 10
89.84251968503938
 20
-769.6850393700788
 30
0.0
 11
93.77952755905513
 21
-769.6850393700788
 31
0.0
  0
LINE
  5
12C
330
17
100
AcDbEntity
  8
A-WALL
100
AcDbLine
 10
93.77952755905513
 20
-769.6850393700788
 30
0.0
 11
93.77952755905513
 21
-703.5452755905511
 31
0.0
  0
LINE
  5
12D
330
17
100
AcDbEntity
  8
A-WALL
100
AcDbLine
 10
93.77952755905513
 20
-703.5452755905511
 30
0.0
 11
98.66141732283464
 21
-703.5452755905511
 31
0.0
  0
LINE
  5
12E
330
17
100
AcDbEntity
  8
A-WALL
100
AcDbLine
 10
98.66141732283464
 20
-703.5452755905511
 30
0.0
 11
98.66141732283464
 21
-707.482283464567
 31
0.0
  0
LINE
  5
12F
330
17
100
AcDbEntity
  8
A-WALL
100
AcDbLine
 10
98.66141732283464
 20
-707.482283464567
 30
0.0
 11
99.44881889763779
 21
-707.482283464567
 31
0.0
  0
LINE
  5
130
330
17
100
AcDbEntity
  8
A-WALL
100
AcDbLine
 10
99.44881889763779
 20
-707.482283464567
 30
0.0
 11
99.44881889763779
 21
-712.3641732283464
 31
0.0
  0
LINE
  5
131
330
17
100
AcDbEntity
  8
A-WALL
100
AcDbLine
 10
99.44881889763779
 20
-712.3641732283464
 30
0.0
 11
98.66141732283464
 21
-712.3641732283464
 31
0.0
  0
LINE
  5
132
330
17
100
AcDbEntity
  8
A-WALL
100
AcDbLine
 10
98.66141732283464
 20
-712.3641732283464
 30
0.0
 11
98.66141732283464
 21
-748.4251968503936
 31
0.0
  0
LINE
  5
133
330
17
100
AcDbEntity
  8
A-WALL
100
AcDbLine
 10
98.66141732283464
 20
-748.4251968503936
 30
0.0
 11
158.66141732283467
 21
-748.4251968503936
 31
0.0
  0
LINE
  5
134
330
17
100
AcDbEntity
  8
A-WALL
100
AcDbLine
 10
158.66141732283467
 20
-748.4251968503936
 30
0.0
 11
158.66141732283467
 21
-712.3641732283464
 31
0.0
  0
LINE
  5
135
330
17
100
AcDbEntity
  8
A-WALL
100
AcDbLine
 10
158.66141732283467
 20
-712.3641732283464
 30
0.0
 11
129.44881889763778
 21
-712.3641732283464
 31
0.0
  0
LINE
  5
136
330
17
100
AcDbEntity
  8
A-WALL
100
AcDbLine
 10
129.44881889763778
 20
-712.3641732283464
 30
0.0
 11
129.44881889763778
 21
-707.482283464567
 31
0.0
  0
LINE
  5
137
330
17
100
AcDbEntity
  8
A-WALL
100
AcDbLine
 10
129.44881889763778
 20
-707.482283464567
 30
0.0
 11
158.66141732283467
 21
-707.482283464567
 31
0.0
  0
LINE
  5
138
330
17
100
AcDbEntity
  8
A-WALL
100
AcDbLine
 10
158.66141732283467
 20
-707.482283464567
 30
0.0
 11
158.66141732283467
 21
-584.6456692913385
 31
0.0
  0
LINE
  5
139
330
17
100
AcDbEntity
  8
A-WALL
100
AcDbLine
 10
158.66141732283467
 20
-584.6456692913385
 30
0.0
 11
98.66141732283464
 21
-584.6456692913385
 31
0.0
  0
LINE
  5
13A
330
17
100
AcDbEntity
  8
A-WALL
100
AcDbLine
 10
98.66141732283464
 20
-584.6456692913385
 30
0.0
 11
98.66141732283464
 21
-669.5295275590552
 31
0.0
  0
LINE
  5
13B
330
17
100
AcDbEntity
  8
A-WALL
100
AcDbLine
 10
98.66141732283464
 20
-669.5295275590552
 30
0.0
 11
93.77952755905513
 21
-669.5295275590552
 31
0.0
  0
LINE
  5
13C
330
17
100
AcDbEntity
  8
A-WALL
100
AcDbLine
 10
93.77952755905513
 20
-669.5295275590552
 30
0.0
 11
93.77952755905513
 21
-561.0236220472441
 31
0.0
  0
LINE
  5
13D
330
17
100
AcDbEntity
  8
A-WALL
100
AcDbLine
 10
93.77952755905513
 20
-561.0236220472441
 30
0.0
 11
92.41338582677166
 21
-561.0236220472441
 31
0.0
  0
LINE
  5
13E
330
17
100
AcDbEntity
  8
A-WALL
100
AcDbLine
 10
92.41338582677166
 20
-561.0236220472441
 30
0.0
 11
92.41338582677166
 21
-556.1417322834646
 31
0.0
  0
LINE
  5
13F
330
17
100
AcDbEntity
  8
A-WALL
100
AcDbLine
 10
92.41338582677166
 20
-556.1417322834646
 30
0.0
 11
98.66141732283464
 21
-556.1417322834646
 31
0.0
  0
LINE
  5
140
330
17
100
AcDbEntity
  8
A-WALL
100
AcDbLine
 10
98.66141732283464
 20
-556.1417322834646
 30
0.0
 11
98.66141732283464
 21
-577.4015748031496
 31
0.0
  0
LINE
  5
141
330
17
100
AcDbEntity
  8
A-WALL
100
AcDbLine
 10
98.66141732283464
 20
-577.4015748031496
 30
0.0
 11
162.4015748031496
 21
-577.4015748031496
 31
0.0
  0
LINE
  5
142
330
17
100
AcDbEntity
  8
A-WALL
100
AcDbLine
 10
162.4015748031496
 20
-577.4015748031496
 30
0.0
 11
162.4015748031496
 21
-314.96062992125985
 31
0.0
  0
LINE
  5
143
330
17
100
AcDbEntity
  8
A-WALL
100
AcDbLine
 10
162.4015748031496
 20
-314.96062992125985
 30
0.0
 11
346.45669291338584
 21
-314.96062992125985
 31
0.0
  0
LINE
  5
144
330
17
100
AcDbEntity
  8
A-WALL
100
AcDbLine
 10
346.45669291338584
 20
-314.96062992125985
 30
0.0
 11
346.45669291338584
 21
-331.37795275590554
 31
0.0
  0
LINE
  5
145
330
17
100
AcDbEntity
  8
A-WALL
100
AcDbLine
 10
346.45669291338584
 20
-331.37795275590554
 30
0.0
 11
184.0551181102362
 21
-331.37795275590554
 31
0.0
  0
LINE
  5
146
330
17
100
AcDbEntity
  8
A-WALL
100
AcDbLine
 10
184.0551181102362
 20
-331.37795275590554
 30
0.0
 11
184.0551181102362
 21
-577.4015748031496
 31
0.0
  0
LINE
  5
147
330
17
100
AcDbEntity
  8
A-WALL
100
AcDbLine
 10
184.0551181102362
 20
-577.4015748031496
 30
0.0
 11
247.79527559055117
 21
-577.4015748031496
 31
0.0
  0
LINE
  5
148
330
17
100
AcDbEntity
  8
A-WALL
100
AcDbLine
 10
247.79527559055117
 20
-577.4015748031496
 30
0.0
 11
247.79527559055117
 21
-556.1417322834646
 31
0.0
  0
LINE
  5
149
330
17
100
AcDbEntity
  8
A-WALL
100
AcDbLine
 10
247.79527559055117
 20
-556.1417322834646
 30
0.0
 11
255.03937007874015
 21
-556.1417322834646
 31
0.0
  0
LINE
  5
14A
330
17
100
AcDbEntity
  8
A-WALL
100
AcDbLine
 10
255.03937007874015
 20
-556.1417322834646
 30
0.0
 11
255.03937007874015
 21
-561.0236220472441
 31
0.0
  0
LINE
  5
14B
330
17
100
AcDbEntity
  8
A-WALL
100
AcDbLine
 10
255.03937007874015
 20
-561.0236220472441
 30
0.0
 11
252.67716535433073
 21
-561.0236220472441
 31
0.0
  0
LINE
  5
14C
330
17
100
AcDbEntity
  8
A-WALL
100
AcDbLine
 10
252.67716535433073
 20
-561.0236220472441
 30
0.0
 11
252.67716535433073
 21
-627.7708661417323
 31
0.0
  0
LINE
  5
14D
330
17
100
AcDbEntity
  8
A-WALL
100
AcDbLine
 10
252.67716535433073
 20
-627.7708661417323
 30
0.0
 11
247.79527559055117
 21
-627.7708661417323
 31
0.0
  0
LINE
  5
14E
330
17
100
AcDbEntity
  8
A-WALL
100
AcDbLine
 10
247.79527559055117
 20
-627.7708661417323
 30
0.0
 11
247.79527559055117
 21
-623.8338582677166
 31
0.0
  0
LINE
  5
14F
330
17
100
AcDbEntity
  8
A-WALL
100
AcDbLine
 10
247.79527559055117
 20
-623.8338582677166
 30
0.0
 11
247.77086614173228
 21
-623.8338582677166
 31
0.0
  0
LINE
  5
150
330
17
100
AcDbEntity
  8
A-WALL
100
AcDbLine
 10
247.77086614173228
 20
-623.8338582677166
 30
0.0
 11
247.77086614173228
 21
-618.951968503937
 31
0.0
  0
LINE
  5
151
330
17
100
AcDbEntity
  8
A-WALL
100
AcDbLine
 10
247.77086614173228
 20
-618.951968503937
 30
0.0
 11
247.79527559055117
 21
-618.951968503937
 31
0.0
  0
LINE
  5
152
330
17
100
AcDbEntity
  8
A-WALL
100
AcDbLine
 10
247.79527559055117
 20
-618.951968503937
 30
0.0
 11
247.79527559055117
 21
-582.2834645669291
 31
0.0
  0
LINE
  5
153
330
17
100
AcDbEntity
  8
A-WALL
100
AcDbLine
 10
247.79527559055117
 20
-582.2834645669291
 30
0.0
 11
187.79527559055117
 21
-582.2834645669291
 31
0.0
  0
LINE
  5
154
330
17
100
AcDbEntity
  8
A-WALL
100
AcDbLine
 10
187.79527559055117
 20
-582.2834645669291
 30
0.0
 11
187.79527559055117
 21
-618.951968503937
 31
0.0
  0
LINE
  5
155
330
17
100
AcDbEntity
  8
A-WALL
100
AcDbLine
 10
187.79527559055117
 20
-618.951968503937
 30
0.0
 11
217.7708661417323
 21
-618.951968503937
 31
0.0
  0
LINE
  5
156
330
17
100
AcDbEntity
  8
A-WALL
100
AcDbLine
 10
217.7708661417323
 20
-618.951968503937
 30
0.0
 11
217.7708661417323
 21
-623.8338582677166
 31
0.0
  0
LINE
  5
157
330
17
100
AcDbEntity
  8
A-WALL
100
AcDbLine
 10
217.7708661417323
 20
-623.8338582677166
 30
0.0
 11
187.79527559055117
 21
-623.8338582677166
 31
0.0
  0
LINE
  5
158
330
17
100
AcDbEntity
  8
A-WALL
100
AcDbLine
 10
187.79527559055117
 20
-623.8338582677166
 30
0.0
 11
187.79527559055117
 21
-746.0629921259842
 31
0.0
  0
LINE
  5
159
330
17
100
AcDbEntity
  8
A-WALL
100
AcDbLine
 10
187.79527559055117
 20
-746.0629921259842
 30
0.0
 11
247.79527559055117
 21
-746.0629921259842
 31
0.0
  0
LINE
  5
15A
330
17
100
AcDbEntity
  8
A-WALL
100
AcDbLine
 10
247.79527559055117
 20
-746.0629921259842
 30
0.0
 11
247.79527559055117
 21
-661.7866141732284
 31
0.0
  0
LINE
  5
15B
330
17
100
AcDbEntity
  8
A-WALL
100
AcDbLine
 10
247.79527559055117
 20
-661.7866141732284
 30
0.0
 11
252.67716535433073
 21
-661.7866141732284
 31
0.0
  0
LINE
  5
15C
330
17
100
AcDbEntity
  8
A-WALL
100
AcDbLine
 10
252.67716535433073
 20
-661.7866141732284
 30
0.0
 11
252.67716535433073
 21
-769.6850393700788
 31
0.0
  0
LINE
  5
15D
330
17
100
AcDbEntity
  8
A-WALL
100
AcDbLine
 10
252.67716535433073
 20
-769.6850393700788
 30
0.0
 11
254.2244094488189
 21
-769.6850393700788
 31
0.0
  0
LINE
  5
15E
330
17
100
AcDbEntity
  8
A-WALL
100
AcDbLine
 10
254.2244094488189
 20
-769.6850393700788
 30
0.0
 11
254.2244094488189
 21
-774.5669291338583
 31
0.0
  0
LINE
  5
15F
330
17
100
AcDbEntity
  8
A-WALL
100
AcDbLine
 10
254.2244094488189
 20
-774.5669291338583
 30
0.0
 11
247.79527559055117
 21
-774.5669291338583
 31
0.0
  0
LINE
  5
160
330
17
100
AcDbEntity
  8
A-WALL
100
AcDbLine
 10
247.79527559055117
 20
-774.5669291338583
 30
0.0
 11
247.79527559055117
 21
-753.3070866141733
 31
0.0
  0
LINE
  5
161
330
17
100
AcDbEntity
  8
A-WALL
100
AcDbLine
 10
247.79527559055117
 20
-753.3070866141733
 30
0.0
 11
184.0551181102362
 21
-753.3070866141733
 31
0.0
  0
LINE
  5
162
330
17
100
AcDbEntity
  8
A-WALL
100
AcDbLine
 10
184.0551181102362
 20
-753.3070866141733
 30
0.0
 11
184.0551181102362
 21
-1015.748031496063
 31
0.0
  0
LINE
  5
163
330
17
100
AcDbEntity
  8
A-WALL
100
AcDbLine
 10
184.0551181102362
 20
-1015.748031496063
 30
0.0
 11
0.0
 21
-1015.748031496063
 31
0.0
  0
LINE
  5
164
330
17
100
AcDbEntity
  8
A-WALL
100
AcDbLine
 10
288.24015748031496
 20
-774.5669291338583
 30
0.0
 11
288.24015748031496
 21
-769.6850393700788
 31
0.0
  0
LINE
  5
165
330
17
100
AcDbEntity
  8
A-WALL
100
AcDbLine
 10
288.24015748031496
 20
-769.6850393700788
 30
0.0
 11
330.03937007874015
 21
-769.6850393700788
 31
0.0
  0
LINE
  5
166
330
17
100
AcDbEntity
  8
A-WALL
100
AcDbLine
 10
330.03937007874015
 20
-769.6850393700788
 30
0.0
 11
330.03937007874015
 21
-561.0236220472441
 31
0.0
  0
LINE
  5
167
330
17
100
AcDbEntity
  8
A-WALL
100
AcDbLine
 10
330.03937007874015
 20
-561.0236220472441
 30
0.0
 11
289.0551181102362
 21
-561.0236220472441
 31
0.0
  0
LINE
  5
168
330
17
100
AcDbEntity
  8
A-WALL
100
AcDbLine
 10
289.0551181102362
 20
-561.0236220472441
 30
0.0
 11
289.0551181102362
 21
-556.1417322834646
 31
0.0
  0
LINE
  5
169
330
17
100
AcDbEntity
  8
A-WALL
100
AcDbLine
 10
289.0551181102362
 20
-556.1417322834646
 30
0.0
 11
330.03937007874015
 21
-556.1417322834646
 31
0.0
  0
LINE
  5
16A
330
17
100
AcDbEntity
  8
A-WALL
100
AcDbLine
 10
330.03937007874015
 20
-556.1417322834646
 30
0.0
 11
330.03937007874015
 21
-477.79527559055117
 31
0.0
  0
LINE
  5
16B
330
17
100
AcDbEntity
  8
A-WALL
100
AcDbLine
 10
330.03937007874015
 20
-477.79527559055117
 30
0.0
 11
346.45669291338584
 21
-477.79527559055117
 31
0.0
  0
LINE
  5
16C
330
17
100
AcDbEntity
  8
A-WALL
100
AcDbLine
 10
346.45669291338584
 20
-477.79527559055117
 30
0.0
 11
346.45669291338584
 21
-778.5039370078741
 31
0.0
  0
LINE
  5
16D
330
17
100
AcDbEntity
  8
A-WALL
100
AcDbLine
 10
346.45669291338584
 20
-778.5039370078741
 30
0.0
 11
330.03937007874015
 21
-778.5039370078741
 31
0.0
  0
LINE
  5
16E
330
17
100
AcDbEntity
  8
A-WALL
100
AcDbLine
 10
330.03937007874015
 20
-778.5039370078741
 30
0.0
 11
330.03937007874015
 21
-774.5669291338583
 31
0.0
  0
LINE
  5
16F
330
17
100
AcDbEntity
  8
A-WALL
100
AcDbLine
 10
330.03937007874015
 20
-774.5669291338583
 30
0.0
 11
288.24015748031496
 21
-774.5669291338583
 31
0.0
  0
LINE
  5
170
330
17
100
AcDbEntity
  8
A-WALL
100
AcDbLine
 10
346.45669291338584
 20
-808.0314960629922
 30
0.0
 11
346.45669291338584
 21
-1015.748031496063
 31
0.0
  0
LINE
  5
171
330
17
100
AcDbEntity
  8
A-WALL
100
AcDbLine
 10
346.45669291338584
 20
-1015.748031496063
 30
0.0
 11
330.03937007874015
 21
-1015.748031496063
 31
0.0
  0
LINE
  5
172
330
17
100
AcDbEntity
  8
A-WALL
100
AcDbLine
 10
330.03937007874015
 20
-1015.748031496063
 30
0.0
 11
330.03937007874015
 21
-808.0314960629922
 31
0.0
  0
LINE
  5
173
330
17
100
AcDbEntity
  8
A-WALL
100
AcDbLine
 10
330.03937007874015
 20
-808.0314960629922
 30
0.0
 11
346.45669291338584
 21
-808.0314960629922
 31
0.0
  0
LINE
  5
174
330
17
100
AcDbEntity
  8
A-WALL
100
AcDbLine
 10
346.45669291338584
 20
-445.55118110236225
 30
0.0
 11
330.03937007874015
 21
-445.55118110236225
 31
0.0
  0
LINE
  5
175
330
17
100
AcDbEntity
  8
A-WALL
100
AcDbLine
 10
330.03937007874015
 20
-445.55118110236225
 30
0.0
 11
330.03937007874015
 21
-441.6141732283465
 31
0.0
  0
LINE
  5
176
330
17
100
AcDbEntity
  8
A-WALL
100
AcDbLine
 10
330.03937007874015
 20
-441.6141732283465
 30
0.0
 11
346.45669291338584
 21
-441.6141732283465
 31
0.0
  0
LINE
  5
177
330
17
100
AcDbEntity
  8
A-WALL
100
AcDbLine
 10
346.45669291338584
 20
-441.6141732283465
 30
0.0
 11
346.45669291338584
 21
-445.55118110236225
 31
0.0
  0
LINE
  5
178
330
17
100
AcDbEntity
  8
A-WALL
100
AcDbLine
 10
297.79527559055117
 20
-1015.748031496063
 30
0.0
 11
294.29133858267716
 21
-1015.748031496063
 31
0.0
  0
LINE
  5
179
330
17
100
AcDbEntity
  8
A-WALL
100
AcDbLine
 10
294.29133858267716
 20
-1015.748031496063
 30
0.0
 11
294.29133858267716
 21
-999.3307086614174
 31
0.0
  0
LINE
  5
17A
330
17
100
AcDbEntity
  8
A-WALL
100
AcDbLine
 10
294.29133858267716
 20
-999.3307086614174
 30
0.0
 11
297.79527559055117
 21
-999.3307086614174
 31
0.0
  0
LINE
  5
17B
330
17
100
AcDbEntity
  8
A-WALL
100
AcDbLine
 10
297.79527559055117
 20
-999.3307086614174
 30
0.0
 11
297.79527559055117
 21
-1015.748031496063
 31
0.0
  0
LINE
  5
17C
330
17
100
AcDbEntity
  8
A-WALL
100
AcDbLine
 10
55.826771653543304
 20
-774.5669291338583
 30
0.0
 11
16.41732283464567
 21
-774.5669291338583
 31
0.0
  0
LINE
  5
17D
330
17
100
AcDbEntity
  8
A-WALL
100
AcDbLine
 10
16.41732283464567
 20
-774.5669291338583
 30
0.0
 11
16.41732283464567
 21
-852.9133858267718
 31
0.0
  0
LINE
  5
17E
330
17
100
AcDbEntity
  8
A-WALL
100
AcDbLine
 10
16.41732283464567
 20
-852.9133858267718
 30
0.0
 11
0.0
 21
-852.9133858267718
 31
0.0
  0
LINE
  5
17F
330
17
100
AcDbEntity
  8
A-WALL
100
AcDbLine
 10
0.0
 20
-852.9133858267718
 30
0.0
 11
0.0
 21
-552.2047244094488
 31
0.0
  0
LINE
  5
180
330
17
100
AcDbEntity
  8
A-WALL
100
AcDbLine
 10
0.0
 20
-552.2047244094488
 30
0.0
 11
16.41732283464567
 21
-552.2047244094488
 31
0.0
  0
LINE
  5
181
330
17
100
AcDbEntity
  8
A-WALL
100
AcDbLine
 10
16.41732283464567
 20
-552.2047244094488
 30
0.0
 11
16.41732283464567
 21
-556.1417322834646
 31
0.0
  0
LINE
  5
182
330
17
100
AcDbEntity
  8
A-WALL
100
AcDbLine
 10
16.41732283464567
 20
-556.1417322834646
 30
0.0
 11
58.39763779527559
 21
-556.1417322834646
 31
0.0
  0
LINE
  5
183
330
17
100
AcDbEntity
  8
A-WALL
100
AcDbLine
 10
58.39763779527559
 20
-556.1417322834646
 30
0.0
 11
58.39763779527559
 21
-561.0236220472441
 31
0.0
  0
LINE
  5
184
330
17
100
AcDbEntity
  8
A-WALL
100
AcDbLine
 10
58.39763779527559
 20
-561.0236220472441
 30
0.0
 11
16.41732283464567
 21
-561.0236220472441
 31
0.0
  0
LINE
  5
185
330
17
100
AcDbEntity
  8
A-WALL
100
AcDbLine
 10
16.41732283464567
 20
-561.0236220472441
 30
0.0
 11
16.41732283464567
 21
-769.6850393700788
 31
0.0
  0
LINE
  5
186
330
17
100
AcDbEntity
  8
A-WALL
100
AcDbLine
 10
16.41732283464567
 20
-769.6850393700788
 30
0.0
 11
55.826771653543304
 21
-769.6850393700788
 31
0.0
  0
LINE
  5
187
330
17
100
AcDbEntity
  8
A-WALL
100
AcDbLine
 10
55.826771653543304
 20
-769.6850393700788
 30
0.0
 11
55.826771653543304
 21
-774.5669291338583
 31
0.0
  0
LINE
  5
188
330
17
100
AcDbEntity
  8
A-WALL
100
AcDbLine
 10
52.16535433070866
 20
-331.37795275590554
 30
0.0
 11
48.661417322834644
 21
-331.37795275590554
 31
0.0
  0
LINE
  5
189
330
17
100
AcDbEntity
  8
A-WALL
100
AcDbLine
 10
48.661417322834644
 20
-331.37795275590554
 30
0.0
 11
48.661417322834644
 21
-314.96062992125985
 31
0.0
  0
LINE
  5
18A
330
17
100
AcDbEntity
  8
A-WALL
100
AcDbLine
 10
48.661417322834644
 20
-314.96062992125985
 30
0.0
 11
52.16535433070866
 21
-314.96062992125985
 31
0.0
  0
LINE
  5
18B
330
17
100
AcDbEntity
  8
A-WALL
100
AcDbLine
 10
52.16535433070866
 20
-314.96062992125985
 30
0.0
 11
52.16535433070866
 21
-331.37795275590554
 31
0.0
  0
LINE
  5
18C
330
17
100
AcDbEntity
  8
A-WALL
100
AcDbLine
 10
16.41732283464567
 20
-889.0944881889764
 30
0.0
 11
0.0
 21
-889.0944881889764
 31
0.0
  0
LINE
  5
18D
330
17
100
AcDbEntity
  8
A-WALL
100
AcDbLine
 10
0.0
 20
-889.0944881889764
 30
0.0
 11
0.0
 21
-885.1574803149607
 31
0.0
  0
LINE
  5
18E
330
17
100
AcDbEntity
  8
A-WALL
100
AcDbLine
 10
0.0
 20
-885.1574803149607
 30
0.0
 11
16.41732283464567
 21
-885.1574803149607
 31
0.0
  0
LINE
  5
18F
330
17
100
AcDbEntity
  8
A-WALL
100
AcDbLine
 10
16.41732283464567
 20
-885.1574803149607
 30
0.0
 11
16.41732283464567
 21
-889.0944881889764
 31
0.0
  0
LINE
  5
190
330
17
100
AcDbEntity
  8
A-WALL
100
AcDbLine
 10
16.41732283464567
 20
-522.6771653543307
 30
0.0
 11
0.0
 21
-522.6771653543307
 31
0.0
  0
LINE
  5
191
330
17
100
AcDbEntity
  8
A-WALL
100
AcDbLine
 10
0.0
 20
-522.6771653543307
 30
0.0
 11
0.0
 21
-314.96062992125985
 31
0.0
  0
LINE
  5
192
330
17
100
AcDbEntity
  8
A-WALL
100
AcDbLine
 10
0.0
 20
-314.96062992125985
 30
0.0
 11
16.41732283464567
 21
-314.96062992125985
 31
0.0
  0
LINE
  5
193
330
17
100
AcDbEntity
  8
A-WALL
100
AcDbLine
 10
16.41732283464567
 20
-314.96062992125985
 30
0.0
 11
16.41732283464567
 21
-522.6771653543307
 31
0.0
  0
LINE
  5
194
330
17
100
AcDbEntity
  8
A-DOOR
100
AcDbLine
 10
58.3976377952754
 20
-556.1417322834646
 30
0.0
 11
58.3976377952754
 21
-522.1259842519686
 31
0.0
  0
LINE
  5
195
330
17
100
AcDbEntity
  8
A-DOOR
100
AcDbLine
 10
58.3976377952754
 20
-522.1259842519686
 30
0.0
 11
59.972440944881704
 21
-522.1259842519686
 31
0.0
  0
LINE
  5
196
330
17
100
AcDbEntity
  8
A-DOOR
100
AcDbLine
 10
59.972440944881704
 20
-522.1259842519686
 30
0.0
 11
59.972440944881704
 21
-556.1417322834646
 31
0.0
  0
LINE
  5
197
330
17
100
AcDbEntity
  8
A-DOOR
100
AcDbLine
 10
59.972440944881704
 20
-556.1417322834646
 30
0.0
 11
58.3976377952754
 21
-556.1417322834646
 31
0.0
  0
ARC
  5
198
330
17
100
AcDbEntity
  8
A-DOOR
100
AcDbCircle
 10
58.3976377952754
 20
-556.1417322834646
 30
0.0
 40
34.01574803149606
100
AcDbArc
 50
0.0
 51
90.0
  0
LINE
  5
199
330
17
100
AcDbEntity
  8
A-DOOR
100
AcDbLine
 10
288.24015748031434
 20
-774.5669291338583
 30
0.0
 11
288.24015748031434
 21
-808.5826771653542
 31
0.0
  0
LINE
  5
19A
330
17
100
AcDbEntity
  8
A-DOOR
100
AcDbLine
 10
288.24015748031434
 20
-808.5826771653542
 30
0.0
 11
286.66535433070806
 21
-808.5826771653542
 31
0.0
  0
LINE
  5
19B
330
17
100
AcDbEntity
  8
A-DOOR
100
AcDbLine
 10
286.66535433070806
 20
-808.5826771653542
 30
0.0
 11
286.66535433070806
 21
-774.5669291338583
 31
0.0
  0
LINE
  5
19C
330
17
100
AcDbEntity
  8
A-DOOR
100
AcDbLine
 10
286.66535433070806
 20
-774.5669291338583
 30
0.0
 11
288.24015748031434
 21
-774.5669291338583
 31
0.0
  0
ARC
  5
19D
330
17
100
AcDbEntity
  8
A-DOOR
100
AcDbCircle
 10
288.24015748031434
 20
-774.5669291338583
 30
0.0
 40
34.015748031496045
100
AcDbArc
 50
-180.0
 51
-90.0
  0
LINE
  5
19E
330
17
100
AcDbEntity
  8
A-DOOR
100
AcDbLine
 10
89.84251968503904
 20
-774.5669291338583
 30
0.0
 11
89.84251968503904
 21
-808.5826771653542
 31
0.0
  0
LINE
  5
19F
330
17
100
AcDbEntity
  8
A-DOOR
100
AcDbLine
 10
89.84251968503904
 20
-808.5826771653542
 30
0.0
 11
88.26771653543274
 21
-808.5826771653542
 31
0.0
  0
LINE
  5
1A0
330
17
100
AcDbEntity
  8
A-DOOR
100
AcDbLine
 10
88.26771653543274
 20
-808.5826771653542
 30
0.0
 11
88.26771653543274
 21
-774.5669291338583
 31
0.0
  0
LINE
  5
1A1
330
17
100
AcDbEntity
  8
A-DOOR
100
AcDbLine
 10
88.26771653543274
 20
-774.5669291338583
 30
0.0
 11
89.84251968503904
 21
-774.5669291338583
 31
0.0
  0
ARC
  5
1A2
330
17
100
AcDbEntity
  8
A-DOOR
100
AcDbCircle
 10
89.84251968503904
 20
-774.5669291338583
 30
0.0
 40
34.015748031496045
100
AcDbArc
 50
-180.0
 51
-90.0
  0
LINE
  5
1A3
330
17
100
AcDbEntity
  8
A-DOOR
100
AcDbLine
 10
255.03937007874055
 20
-556.1417322834646
 30
0.0
 11
255.03937007874055
 21
-522.1259842519686
 31
0.0
  0
LINE
  5
1A4
330
17
100
AcDbEntity
  8
A-DOOR
100
AcDbLine
 10
255.03937007874055
 20
-522.1259842519686
 30
0.0
 11
256.61417322834683
 21
-522.1259842519686
 31
0.0
  0
LINE
  5
1A5
330
17
100
AcDbEntity
  8
A-DOOR
100
AcDbLine
 10
256.61417322834683
 20
-522.1259842519686
 30
0.0
 11
256.61417322834683
 21
-556.1417322834646
 31
0.0
  0
LINE
  5
1A6
330
17
100
AcDbEntity
  8
A-DOOR
100
AcDbLine
 10
256.61417322834683
 20
-556.1417322834646
 30
0.0
 11
255.03937007874055
 21
-556.1417322834646
 31
0.0
  0
ARC
  5
1A7
330
17
100
AcDbEntity
  8
A-DOOR
100
AcDbCircle
 10
255.03937007874055
 20
-556.1417322834646
 30
0.0
 40
34.015748031496045
100
AcDbArc
 50
0.0
 51
90.0
  0
LINE
  5
1A8
330
17
100
AcDbEntity
  8
A-DOOR
100
AcDbLine
 10
98.66141732283462
 20
-669.52957395711
 30
0.0
 11
132.67716535433064
 21
-669.52957395711
 31
0.0
  0
LINE
  5
1A9
330
17
100
AcDbEntity
  8
A-DOOR
100
AcDbLine
 10
132.67716535433064
 20
-669.52957395711
 30
0.0
 11
132.67716535433064
 21
-671.1043771067162
 31
0.0
  0
LINE
  5
1AA
330
17
100
AcDbEntity
  8
A-DOOR
100
AcDbLine
 10
132.67716535433064
 20
-671.1043771067162
 30
0.0
 11
98.66141732283462
 21
-671.1043771067162
 31
0.0
  0
LINE
  5
1AB
330
17
100
AcDbEntity
  8
A-DOOR
100
AcDbLine
 10
98.66141732283462
 20
-671.1043771067162
 30
0.0
 11
98.66141732283462
 21
-669.52957395711
 31
0.0
  0
ARC
  5
1AC
330
17
100
AcDbEntity
  8
A-DOOR
100
AcDbCircle
 10
98.66141732283462
 20
-669.52957395711
 30
0.0
 40
34.01574803149601
100
AcDbArc
 50
-90.0
 51
-0.0
  0
LINE
  5
1AD
330
17
100
AcDbEntity
  8
A-DOOR
100
AcDbLine
 10
247.79405511811026
 20
-661.7867809083278
 30
0.0
 11
213.7783070866142
 21
-661.7867809083278
 31
0.0
  0
LINE
  5
1AE
330
17
100
AcDbEntity
  8
A-DOOR
100
AcDbLine
 10
213.7783070866142
 20
-661.7867809083278
 30
0.0
 11
213.7783070866142
 21
-660.2119777587216
 31
0.0
  0
LINE
  5
1AF
330
17
100
AcDbEntity
  8
A-DOOR
100
AcDbLine
 10
213.7783070866142
 20
-660.2119777587216
 30
0.0
 11
247.79405511811026
 21
-660.2119777587216
 31
0.0
  0
LINE
  5
1B0
330
17
100
AcDbEntity
  8
A-DOOR
100
AcDbLine
 10
247.79405511811026
 20
-660.2119777587216
 30
0.0
 11
247.79405511811026
 21
-661.7867809083278
 31
0.0
  0
ARC
  5
1B1
330
17
100
AcDbEntity
  8
A-DOOR
100
AcDbCircle
 10
247.79405511811026
 20
-661.7867809083278
 30
0.0
 40
34.015748031496045
100
AcDbArc
 50
90.0
 51
-180.0
  0
LINE
  5
1B2
330
17
100
AcDbEntity
  8
A-DOOR
100
AcDbLine
 10
129.44881889763766
 20
-712.3641732283464
 30
0.0
 11
129.44881889763766
 21
-742.3641732283464
 31
0.0
  0
LINE
  5
1B3
330
17
100
AcDbEntity
  8
A-DOOR
100
AcDbLine
 10
129.44881889763766
 20
-742.3641732283464
 30
0.0
 11
127.87401574803137
 21
-742.3641732283464
 31
0.0
  0
LINE
  5
1B4
330
17
100
AcDbEntity
  8
A-DOOR
100
AcDbLine
 10
127.87401574803137
 20
-742.3641732283464
 30
0.0
 11
127.87401574803137
 21
-712.3641732283464
 31
0.0
  0
LINE
  5
1B5
330
17
100
AcDbEntity
  8
A-DOOR
100
AcDbLine
 10
127.87401574803137
 20
-712.3641732283464
 30
0.0
 11
129.44881889763766
 21
-712.3641732283464
 31
0.0
  0
ARC
  5
1B6
330
17
100
AcDbEntity
  8
A-DOOR
100
AcDbCircle
 10
129.44881889763766
 20
-712.3641732283464
 30
0.0
 40
30.0
100
AcDbArc
 50
-180.0
 51
-90.0
  0
LINE
  5
1B7
330
17
100
AcDbEntity
  8
A-DOOR
100
AcDbLine
 10
217.77066929133875
 20
-618.951968503937
 30
0.0
 11
217.77066929133875
 21
-588.951968503937
 31
0.0
  0
LINE
  5
1B8
330
17
100
AcDbEntity
  8
A-DOOR
100
AcDbLine
 10
217.77066929133875
 20
-588.951968503937
 30
0.0
 11
219.34547244094506
 21
-588.951968503937
 31
0.0
  0
LINE
  5
1B9
330
17
100
AcDbEntity
  8
A-DOOR
100
AcDbLine
 10
219.34547244094506
 20
-588.951968503937
 30
0.0
 11
219.34547244094506
 21
-618.951968503937
 31
0.0
  0
LINE
  5
1BA
330
17
100
AcDbEntity
  8
A-DOOR
100
AcDbLine
 10
219.34547244094506
 20
-618.951968503937
 30
0.0
 11
217.77066929133875
 21
-618.951968503937
 31
0.0
  0
ARC
  5
1BB
330
17
100
AcDbEntity
  8
A-DOOR
100
AcDbCircle
 10
217.77066929133875
 20
-618.951968503937
 30
0.0
 40
30.0
100
AcDbArc
 50
0.0
 51
90.0
  0
LINE
  5
1BC
330
17
100
AcDbEntity
  8
A-GLAZ
100
AcDbLine
 10
52.165354330709036
 20
-331.37795275590554
 30
0.0
 11
162.40157480314997
 21
-331.37795275590554
 31
0.0
  0
LINE
  5
1BD
330
17
100
AcDbEntity
  8
A-GLAZ
100
AcDbLine
 10
162.40157480314997
 20
-331.37795275590554
 30
0.0
 11
162.40157480314997
 21
-314.96062992125985
 31
0.0
  0
LINE
  5
1BE
330
17
100
AcDbEntity
  8
A-GLAZ
100
AcDbLine
 10
162.40157480314997
 20
-314.96062992125985
 30
0.0
 11
52.165354330709036
 21
-314.96062992125985
 31
0.0
  0
LINE
  5
1BF
330
17
100
AcDbEntity
  8
A-GLAZ
100
AcDbLine
 10
52.165354330709036
 20
-314.96062992125985
 30
0.0
 11
52.165354330709036
 21
-331.37795275590554
 31
0.0
  0
LINE
  5
1C0
330
17
100
AcDbEntity
  8
A-GLAZ
100
AcDbLine
 10
52.165354330709036
 20
-323.95669291338584
 30
0.0
 11
162.40157480314997
 21
-323.95669291338584
 31
0.0
  0
LINE
  5
1C1
330
17
100
AcDbEntity
  8
A-GLAZ
100
AcDbLine
 10
52.165354330709036
 20
-322.3818897637795
 30
0.0
 11
162.40157480314997
 21
-322.3818897637795
 31
0.0
  0
LINE
  5
1C2
330
17
100
AcDbEntity
  8
A-GLAZ
100
AcDbLine
 10
16.41732283464628
 20
-331.37795275590554
 30
0.0
 11
48.661417322835256
 21
-331.37795275590554
 31
0.0
  0
LINE
  5
1C3
330
17
100
AcDbEntity
  8
A-GLAZ
100
AcDbLine
 10
48.661417322835256
 20
-331.37795275590554
 30
0.0
 11
48.661417322835256
 21
-314.96062992125985
 31
0.0
  0
LINE
  5
1C4
330
17
100
AcDbEntity
  8
A-GLAZ
100
AcDbLine
 10
48.661417322835256
 20
-314.96062992125985
 30
0.0
 11
16.41732283464628
 21
-314.96062992125985
 31
0.0
  0
LINE
  5
1C5
330
17
100
AcDbEntity
  8
A-GLAZ
100
AcDbLine
 10
16.41732283464628
 20
-314.96062992125985
 30
0.0
 11
16.41732283464628
 21
-331.37795275590554
 31
0.0
  0
LINE
  5
1C6
330
17
100
AcDbEntity
  8
A-GLAZ
100
AcDbLine
 10
16.41732283464628
 20
-323.95669291338584
 30
0.0
 11
48.661417322835256
 21
-323.95669291338584
 31
0.0
  0
LINE
  5
1C7
330
17
100
AcDbEntity
  8
A-GLAZ
100
AcDbLine
 10
16.41732283464628
 20
-322.3818897637795
 30
0.0
 11
48.661417322835256
 21
-322.3818897637795
 31
0.0
  0
LINE
  5
1C8
330
17
100
AcDbEntity
  8
A-GLAZ
100
AcDbLine
 10
184.0551181102348
 20
-1015.748031496063
 30
0.0
 11
294.29133858267573
 21
-1015.748031496063
 31
0.0
  0
LINE
  5
1C9
330
17
100
AcDbEntity
  8
A-GLAZ
100
AcDbLine
 10
294.29133858267573
 20
-1015.748031496063
 30
0.0
 11
294.29133858267573
 21
-999.3307086614174
 31
0.0
  0
LINE
  5
1CA
330
17
100
AcDbEntity
  8
A-GLAZ
100
AcDbLine
 10
294.29133858267573
 20
-999.3307086614174
 30
0.0
 11
184.0551181102348
 21
-999.3307086614174
 31
0.0
  0
LINE
  5
1CB
330
17
100
AcDbEntity
  8
A-GLAZ
100
AcDbLine
 10
184.0551181102348
 20
-999.3307086614174
 30
0.0
 11
184.0551181102348
 21
-1015.748031496063
 31
0.0
  0
LINE
  5
1CC
330
17
100
AcDbEntity
  8
A-GLAZ
100
AcDbLine
 10
184.0551181102348
 20
-1008.3267716535433
 30
0.0
 11
294.29133858267573
 21
-1008.3267716535433
 31
0.0
  0
LINE
  5
1CD
330
17
100
AcDbEntity
  8
A-GLAZ
100
AcDbLine
 10
184.0551181102348
 20
-1006.7519685039371
 30
0.0
 11
294.29133858267573
 21
-1006.7519685039371
 31
0.0
  0
LINE
  5
1CE
330
17
100
AcDbEntity
  8
A-GLAZ
100
AcDbLine
 10
297.79527559054935
 20
-1015.748031496063
 30
0.0
 11
330.03937007873833
 21
-1015.748031496063
 31
0.0
  0
LINE
  5
1CF
330
17
100
AcDbEntity
  8
A-GLAZ
100
AcDbLine
 10
330.03937007873833
 20
-1015.748031496063
 30
0.0
 11
330.03937007873833
 21
-999.3307086614174
 31
0.0
  0
LINE
  5
1D0
330
17
100
AcDbEntity
  8
A-GLAZ
100
AcDbLine
 10
330.03937007873833
 20
-999.3307086614174
 30
0.0
 11
297.79527559054935
 21
-999.3307086614174
 31
0.0
  0
LINE
  5
1D1
330
17
100
AcDbEntity
  8
A-GLAZ
100
AcDbLine
 10
297.79527559054935
 20
-999.3307086614174
 30
0.0
 11
297.79527559054935
 21
-1015.748031496063
 31
0.0
  0
LINE
  5
1D2
330
17
100
AcDbEntity
  8
A-GLAZ
100
AcDbLine
 10
297.79527559054935
 20
-1008.3267716535433
 30
0.0
 11
330.03937007873833
 21
-1008.3267716535433
 31
0.0
  0
LINE
  5
1D3
330
17
100
AcDbEntity
  8
A-GLAZ
100
AcDbLine
 10
297.79527559054935
 20
-1006.7519685039371
 30
0.0
 11
330.03937007873833
 21
-1006.7519685039371
 31
0.0
  0
LINE
  5
1D4
330
17
100
AcDbEntity
  8
A-GLAZ
100
AcDbLine
 10
16.41732283464567
 20
-999.3307086614158
 30
0.0
 11
16.41732283464567
 21
-889.094488188975
 31
0.0
  0
LINE
  5
1D5
330
17
100
AcDbEntity
  8
A-GLAZ
100
AcDbLine
 10
16.41732283464567
 20
-889.094488188975
 30
0.0
 11
0.0
 21
-889.094488188975
 31
0.0
  0
LINE
  5
1D6
330
17
100
AcDbEntity
  8
A-GLAZ
100
AcDbLine
 10
0.0
 20
-889.094488188975
 30
0.0
 11
0.0
 21
-999.3307086614158
 31
0.0
  0
LINE
  5
1D7
330
17
100
AcDbEntity
  8
A-GLAZ
100
AcDbLine
 10
0.0
 20
-999.3307086614158
 30
0.0
 11
16.41732283464567
 21
-999.3307086614158
 31
0.0
  0
LINE
  5
1D8
330
17
100
AcDbEntity
  8
A-GLAZ
100
AcDbLine
 10
8.996062992125983
 20
-999.3307086614158
 30
0.0
 11
8.996062992125983
 21
-889.094488188975
 31
0.0
  0
LINE
  5
1D9
330
17
100
AcDbEntity
  8
A-GLAZ
100
AcDbLine
 10
7.421259842519685
 20
-999.3307086614158
 30
0.0
 11
7.421259842519685
 21
-889.094488188975
 31
0.0
  0
LINE
  5
1DA
330
17
100
AcDbEntity
  8
A-GLAZ
100
AcDbLine
 10
0.0
 20
-852.9133858267697
 30
0.0
 11
0.0
 21
-885.1574803149589
 31
0.0
  0
LINE
  5
1DB
330
17
100
AcDbEntity
  8
A-GLAZ
100
AcDbLine
 10
0.0
 20
-885.1574803149589
 30
0.0
 11
16.41732283464567
 21
-885.1574803149589
 31
0.0
  0
LINE
  5
1DC
330
17
100
AcDbEntity
  8
A-GLAZ
100
AcDbLine
 10
16.41732283464567
 20
-885.1574803149589
 30
0.0
 11
16.41732283464567
 21
-852.9133858267697
 31
0.0
  0
LINE
  5
1DD
330
17
100
AcDbEntity
  8
A-GLAZ
100
AcDbLine
 10
16.41732283464567
 20
-852.9133858267697
 30
0.0
 11
0.0
 21
-852.9133858267697
 31
0.0
  0
LINE
  5
1DE
330
17
100
AcDbEntity
  8
A-GLAZ
100
AcDbLine
 10
7.421259842519685
 20
-852.9133858267697
 30
0.0
 11
7.421259842519685
 21
-885.1574803149589
 31
0.0
  0
LINE
  5
1DF
330
17
100
AcDbEntity
  8
A-GLAZ
100
AcDbLine
 10
8.996062992125983
 20
-852.9133858267697
 30
0.0
 11
8.996062992125983
 21
-885.1574803149589
 31
0.0
  0
LINE
  5
1E0
330
17
100
AcDbEntity
  8
A-GLAZ
100
AcDbLine
 10
330.03937007874015
 20
-331.3779527559069
 30
0.0
 11
330.03937007874015
 21
-441.6141732283479
 31
0.0
  0
LINE
  5
1E1
330
17
100
AcDbEntity
  8
A-GLAZ
100
AcDbLine
 10
330.03937007874015
 20
-441.6141732283479
 30
0.0
 11
346.45669291338584
 21
-441.6141732283479
 31
0.0
  0
LINE
  5
1E2
330
17
100
AcDbEntity
  8
A-GLAZ
100
AcDbLine
 10
346.45669291338584
 20
-441.6141732283479
 30
0.0
 11
346.45669291338584
 21
-331.3779527559069
 31
0.0
  0
LINE
  5
1E3
330
17
100
AcDbEntity
  8
A-GLAZ
100
AcDbLine
 10
346.45669291338584
 20
-331.3779527559069
 30
0.0
 11
330.03937007874015
 21
-331.3779527559069
 31
0.0
  0
LINE
  5
1E4
330
17
100
AcDbEntity
  8
A-GLAZ
100
AcDbLine
 10
337.46062992125985
 20
-331.3779527559069
 30
0.0
 11
337.46062992125985
 21
-441.6141732283479
 31
0.0
  0
LINE
  5
1E5
330
17
100
AcDbEntity
  8
A-GLAZ
100
AcDbLine
 10
339.03543307086613
 20
-331.3779527559069
 30
0.0
 11
339.03543307086613
 21
-441.6141732283479
 31
0.0
  0
LINE
  5
1E6
330
17
100
AcDbEntity
  8
A-GLAZ
100
AcDbLine
 10
330.03937007874003
 20
-445.5511811023639
 30
0.0
 11
330.03937007874003
 21
-477.7952755905528
 31
0.0
  0
LINE
  5
1E7
330
17
100
AcDbEntity
  8
A-GLAZ
100
AcDbLine
 10
330.03937007874003
 20
-477.7952755905528
 30
0.0
 11
346.4566929133858
 21
-477.7952755905528
 31
0.0
  0
LINE
  5
1E8
330
17
100
AcDbEntity
  8
A-GLAZ
100
AcDbLine
 10
346.4566929133858
 20
-477.7952755905528
 30
0.0
 11
346.4566929133858
 21
-445.5511811023639
 31
0.0
  0
LINE
  5
1E9
330
17
100
AcDbEntity
  8
A-GLAZ
100
AcDbLine
 10
346.4566929133858
 20
-445.5511811023639
 30
0.0
 11
330.03937007874003
 21
-445.5511811023639
 31
0.0
  0
LINE
  5
1EA
330
17
100
AcDbEntity
  8
A-GLAZ
100
AcDbLine
 10
337.4606299212598
 20
-445.5511811023639
 30
0.0
 11
337.4606299212598
 21
-477.7952755905528
 31
0.0
  0
LINE
  5
1EB
330
17
100
AcDbEntity
  8
A-GLAZ
100
AcDbLine
 10
339.0354330708661
 20
-445.5511811023639
 30
0.0
 11
339.0354330708661
 21
-477.7952755905528
 31
0.0
  0
LINE
  5
1EC
330
17
100
AcDbEntity
  8
A-GLAZ
100
AcDbLine
 10
346.4566929133858
 20
-808.0314960629925
 30
0.0
 11
346.4566929133858
 21
-778.5039370078744
 31
0.0
  0
LINE
  5
1ED
330
17
100
AcDbEntity
  8
A-GLAZ
100
AcDbLine
 10
346.4566929133858
 20
-778.5039370078744
 30
0.0
 11
330.03937007874003
 21
-778.5039370078744
 31
0.0
  0
LINE
  5
1EE
330
17
100
AcDbEntity
  8
A-GLAZ
100
AcDbLine
 10
330.03937007874003
 20
-778.5039370078744
 30
0.0
 11
330.03937007874003
 21
-808.0314960629925
 31
0.0
  0
LINE
  5
1EF
330
17
100
AcDbEntity
  8
A-GLAZ
100
AcDbLine
 10
330.03937007874003
 20
-808.0314960629925
 30
0.0
 11
346.4566929133858
 21
-808.0314960629925
 31
0.0
  0
LINE
  5
1F0
330
17
100
AcDbEntity
  8
A-GLAZ
100
AcDbLine
 10
339.0354330708661
 20
-808.0314960629925
 30
0.0
 11
339.0354330708661
 21
-778.5039370078744
 31
0.0
  0
LINE
  5
1F1
330
17
100
AcDbEntity
  8
A-GLAZ
100
AcDbLine
 10
337.4606299212598
 20
-808.0314960629925
 30
0.0
 11
337.4606299212598
 21
-778.5039370078744
 31
0.0
  0
LINE
  5
1F2
330
17
100
AcDbEntity
  8
A-GLAZ
100
AcDbLine
 10
16.417322834645667
 20
-552.2047244094484
 30
0.0
 11
16.417322834645667
 21
-522.6771653543303
 31
0.0
  0
LINE
  5
1F3
330
17
100
AcDbEntity
  8
A-GLAZ
100
AcDbLine
 10
16.417322834645667
 20
-522.6771653543303
 30
0.0
 11
-1.0927391974657053e-15
 21
-522.6771653543303
 31
0.0
  0
LINE
  5
1F4
330
17
100
AcDbEntity
  8
A-GLAZ
100
AcDbLine
 10
-1.0927391974657053e-15
 20
-522.6771653543303
 30
0.0
 11
-1.0927391974657053e-15
 21
-552.2047244094484
 31
0.0
  0
LINE
  5
1F5
330
17
100
AcDbEntity
  8
A-GLAZ
100
AcDbLine
 10
-1.0927391974657053e-15
 20
-552.2047244094484
 30
0.0
 11
16.417322834645667
 21
-552.2047244094484
 31
0.0
  0
LINE
  5
1F6
330
17
100
AcDbEntity
  8
A-GLAZ
100
AcDbLine
 10
8.996062992125983
 20
-552.2047244094484
 30
0.0
 11
8.996062992125983
 21
-522.6771653543303
 31
0.0
  0
LINE
  5
1F7
330
17
100
AcDbEntity
  8
A-GLAZ
100
AcDbLine
 10
7.421259842519684
 20
-552.2047244094484
 30
0.0
 11
7.421259842519684
 21
-522.6771653543303
 31
0.0
  0
TEXT
  5
1F8
330
17
100
AcDbEntity
  8
A-AREA-IDEN
100
AcDbText
 10
271.3897637795276
 20
-662.302755905512
 30
0.0
 40
7.874015748031496
  1
HALLWAY
 72
1
 11
271.3897637795276
 21
-662.302755905512
 31
0.0
100
AcDbText
 73
2
  0
TEXT
  5
1F9
330
17
100
AcDbEntity
  8
A-AREA-IDEN
100
AcDbText
 10
271.3897637795276
 20
-676.4759842519686
 30
0.0
 40
5.905511811023622
  1
A201
 72
1
 11
271.3897637795276
 21
-676.4759842519686
 31
0.0
100
AcDbText
 73
2
  0
TEXT
  5
1FA
330
17
100
AcDbEntity
  8
A-AREA-IDEN
100
AcDbText
 10
75.06692913385827
 20
-651.4354330708661
 30
0.0
 40
7.874015748031496
  1
HALLWAY
 72
1
 11
75.06692913385827
 21
-651.4354330708661
 31
0.0
100
AcDbText
 73
2
  0
TEXT
  5
1FB
330
17
100
AcDbEntity
  8
A-AREA-IDEN
100
AcDbText
 10
75.06692913385827
 20
-665.6086614173228
 30
0.0
 40
5.905511811023622
  1
B201
 72
1
 11
75.06692913385827
 21
-665.6086614173228
 31
0.0
100
AcDbText
 73
2
  0
TEXT
  5
1FC
330
17
100
AcDbEntity
  8
A-AREA-IDEN
100
AcDbText
 10
217.7952755905512
 20
-593.5311023622047
 30
0.0
 40
7.874015748031496
  1
UTILITY
 72
1
 11
217.7952755905512
 21
-593.5311023622047
 31
0.0
100
AcDbText
 73
2
  0
TEXT
  5
1FD
330
17
100
AcDbEntity
  8
A-AREA-IDEN
100
AcDbText
 10
217.7952755905512
 20
-607.7043307086614
 30
0.0
 40
5.905511811023622
  1
A205
 72
1
 11
217.7952755905512
 21
-607.7043307086614
 31
0.0
100
AcDbText
 73
2
  0
TEXT
  5
1FE
330
17
100
AcDbEntity
  8
A-AREA-IDEN
100
AcDbText
 10
128.66141732283464
 20
-723.3080708661417
 30
0.0
 40
7.874015748031496
  1
UTILITY
 72
1
 11
128.66141732283464
 21
-723.3080708661417
 31
0.0
100
AcDbText
 73
2
  0
TEXT
  5
1FF
330
17
100
AcDbEntity
  8
A-AREA-IDEN
100
AcDbText
 10
128.66141732283464
 20
-737.4812992125984
 30
0.0
 40
5.905511811023622
  1
B205
 72
1
 11
128.66141732283464
 21
-737.4812992125984
 31
0.0
100
AcDbText
 73
2
  0
TEXT
  5
200
330
17
100
AcDbEntity
  8
A-AREA-IDEN
100
AcDbText
 10
128.66141732283464
 20
-638.9773622047245
 30
0.0
 40
7.874015748031496
  1
BATHROOM 2
 72
1
 11
128.66141732283464
 21
-638.9773622047245
 31
0.0
100
AcDbText
 73
2
  0
TEXT
  5
201
330
17
100
AcDbEntity
  8
A-AREA-IDEN
100
AcDbText
 10
128.66141732283464
 20
-653.1505905511812
 30
0.0
 40
5.905511811023622
  1
B204
 72
1
 11
128.66141732283464
 21
-653.1505905511812
 31
0.0
100
AcDbText
 73
2
  0
TEXT
  5
202
330
17
100
AcDbEntity
  8
A-AREA-IDEN
100
AcDbText
 10
217.7952755905512
 20
-677.8618110236221
 30
0.0
 40
7.874015748031496
  1
BATHROOM 2
 72
1
 11
217.7952755905512
 21
-677.8618110236221
 31
0.0
100
AcDbText
 73
2
  0
TEXT
  5
203
330
17
100
AcDbEntity
  8
A-AREA-IDEN
100
AcDbText
 10
217.7952755905512
 20
-692.0350393700788
 30
0.0
 40
5.905511811023622
  1
A204
 72
1
 11
217.7952755905512
 21
-692.0350393700788
 31
0.0
100
AcDbText
 73
2
  0
TEXT
  5
204
330
17
100
AcDbEntity
  8
A-AREA-IDEN
100
AcDbText
 10
89.40944881889763
 20
-497.63208661417326
 30
0.0
 40
7.874015748031496
  1
BEDROOM 2
 72
1
 11
89.40944881889763
 21
-497.63208661417326
 31
0.0
100
AcDbText
 73
2
  0
TEXT
  5
205
330
17
100
AcDbEntity
  8
A-AREA-IDEN
100
AcDbText
 10
89.40944881889763
 20
-511.8053149606299
 30
0.0
 40
5.905511811023622
  1
B203
 72
1
 11
89.40944881889763
 21
-511.8053149606299
 31
0.0
100
AcDbText
 73
2
  0
TEXT
  5
206
330
17
100
AcDbEntity
  8
A-AREA-IDEN
100
AcDbText
 10
257.0472440944882
 20
-442.4391732283465
 30
0.0
 40
7.874015748031496
  1
BEDROOM 1
 72
1
 11
257.0472440944882
 21
-442.4391732283465
 31
0.0
100
AcDbText
 73
2
  0
TEXT
  5
207
330
17
100
AcDbEntity
  8
A-AREA-IDEN
100
AcDbText
 10
257.0472440944882
 20
-456.6124015748032
 30
0.0
 40
5.905511811023622
  1
A202
 72
1
 11
257.0472440944882
 21
-456.6124015748032
 31
0.0
100
AcDbText
 73
2
  0
TEXT
  5
208
330
17
100
AcDbEntity
  8
A-AREA-IDEN
100
AcDbText
 10
89.40944881889763
 20
-874.0962598425197
 30
0.0
 40
7.874015748031496
  1
BEDROOM 1
 72
1
 11
89.40944881889763
 21
-874.0962598425197
 31
0.0
100
AcDbText
 73
2
  0
TEXT
  5
209
330
17
100
AcDbEntity
  8
A-AREA-IDEN
100
AcDbText
 10
89.40944881889763
 20
-888.2694881889763
 30
0.0
 40
5.905511811023622
  1
B202
 72
1
 11
89.40944881889763
 21
-888.2694881889763
 31
0.0
100
AcDbText
 73
2
  0
TEXT
  5
20A
330
17
100
AcDbEntity
  8
A-AREA-IDEN
100
AcDbText
 10
257.0472440944882
 20
-818.9033464566929
 30
0.0
 40
7.874015748031496
  1
BEDROOM 2
 72
1
 11
257.0472440944882
 21
-818.9033464566929
 31
0.0
100
AcDbText
 73
2
  0
TEXT
  5
20B
330
17
100
AcDbEntity
  8
A-AREA-IDEN
100
AcDbText
 10
257.0472440944882
 20
-833.0765748031496
 30
0.0
 40
5.905511811023622
  1
A203
 72
1
 11
257.0472440944882
 21
-833.0765748031496
 31
0.0
100
AcDbText
 73
2
  0
TEXT
  5
20C
330
17
100
AcDbEntity
  8
A-ANNO-TTLB
100
AcDbText
 10
0.0
 20
-236.2204724409449
 30
0.0
 40
23.62204724409449
  1
LEVEL 2 PLAN
 11
0.0
 21
-236.2204724409449
 31
0.0
100
AcDbText
 73
2
  0
ENDSEC
  0
SECTION
  2
OBJECTS
  0
DICTIONARY
  5
A
330
0
100
AcDbDictionary
281
1
  3
ACAD_COLOR
350
B
  3
ACAD_GROUP
350
C
  3
ACAD_LAYOUT
350
D
  3
ACAD_MATERIAL
350
E
  3
ACAD_MLEADERSTYLE
350
F
  3
ACAD_MLINESTYLE
350
10
  3
ACAD_PLOTSETTINGS
350
11
  3
ACAD_PLOTSTYLENAME
350
12
  3
ACAD_SCALELIST
350
14
  3
ACAD_TABLESTYLE
350
15
  3
ACAD_VISUALSTYLE
350
16
  3
EZDXF_META
350
2D
  0
DICTIONARY
  5
B
330
A
100
AcDbDictionary
281
1
  0
DICTIONARY
  5
C
330
A
100
AcDbDictionary
281
1
  0
DICTIONARY
  5
D
330
A
100
AcDbDictionary
281
1
  3
Model
350
1A
  3
Layout1
350
1E
  0
DICTIONARY
  5
E
330
A
100
AcDbDictionary
281
1
  3
ByBlock
350
1F
  3
ByLayer
350
20
  3
Global
350
21
  0
DICTIONARY
  5
F
330
A
100
AcDbDictionary
281
1
  3
Standard
350
2C
  0
DICTIONARY
  5
10
330
A
100
AcDbDictionary
281
1
  3
Standard
350
22
  0
DICTIONARY
  5
11
330
A
100
AcDbDictionary
281
1
  0
ACDBDICTIONARYWDFLT
  5
12
330
A
100
AcDbDictionary
281
1
  3
Normal
350
13
100
AcDbDictionaryWithDefault
340
13
  0
ACDBPLACEHOLDER
  5
13
330
12
  0
DICTIONARY
  5
14
330
A
100
AcDbDictionary
281
1
  0
DICTIONARY
  5
15
330
A
100
AcDbDictionary
281
1
  0
DICTIONARY
  5
16
330
A
100
AcDbDictionary
281
1
  3
2dWireframe
350
5A
  3
Basic
350
5B
  3
Brighten
350
5C
  3
ColorChange
350
5D
  3
Conceptual
350
5E
  3
Dim
350
5F
  3
EdgeColorOff
350
60
  3
Facepattern
350
61
  3
Flat
350
62
  3
FlatWithEdges
350
63
  3
Gouraud
350
64
  3
GouraudWithEdges
350
65
  3
Hidden
350
66
  3
JitterOff
350
67
  3
Linepattern
350
68
  3
Modeling
350
69
  3
OverhangOff
350
6A
  3
Realistic
350
6B
  3
Shaded
350
6C
  3
Shaded with edges
350
6D
  3
Shades of Gray
350
6E
  3
Sketchy
350
6F
  3
Thicken
350
70
  3
Wireframe
350
71
  3
X-Ray
350
72
  0
LAYOUT
  5
1A
330
D
100
AcDbPlotSettings
  1

  4
A3
  6

 40
7.5
 41
20.0
 42
7.5
 43
20.0
 44
420.0
 45
297.0
 46
0.0
 47
0.0
 48
0.0
 49
0.0
140
0.0
141
0.0
142
1.0
143
1.0
 70
1024
 72
1
 73
0
 74
5
  7

 75
16
 76
0
 77
2
 78
300
147
1.0
148
0.0
149
0.0
100
AcDbLayout
  1
Model
 70
1
 71
0
 10
0.0
 20
0.0
 11
420.0
 21
297.0
 12
0.0
 22
0.0
 32
0.0
 14
1e+20
 24
1e+20
 34
1e+20
 15
-1e+20
 25
-1e+20
 35
-1e+20
146
0.0
 13
0.0
 23
0.0
 33
0.0
 16
1.0
 26
0.0
 36
0.0
 17
0.0
 27
1.0
 37
0.0
 76
1
330
17
  0
LAYOUT
  5
1E
330
D
100
AcDbPlotSettings
  1

  4
A3
  6

 40
7.5
 41
20.0
 42
7.5
 43
20.0
 44
420.0
 45
297.0
 46
0.0
 47
0.0
 48
0.0
 49
0.0
140
0.0
141
0.0
142
1.0
143
1.0
 70
0
 72
1
 73
0
 74
5
  7

 75
16
 76
0
 77
2
 78
300
147
1.0
148
0.0
149
0.0
100
AcDbLayout
  1
Layout1
 70
1
 71
1
 10
0.0
 20
0.0
 11
420.0
 21
297.0
 12
0.0
 22
0.0
 32
0.0
 14
1e+20
 24
1e+20
 34
1e+20
 15
-1e+20
 25
-1e+20
 35
-1e+20
146
0.0
 13
0.0
 23
0.0
 33
0.0
 16
1.0
 26
0.0
 36
0.0
 17
0.0
 27
1.0
 37
0.0
 76
1
330
1B
  0
MATERIAL
  5
1F
102
{ACAD_REACTORS
330
E
102
}
330
E
100
AcDbMaterial
  1
ByBlock
  2

 70
0
 40
1.0
 71
1
 41
1.0
 91
-1023410177
 42
1.0
 72
1
  3

 73
1
 74
1
 75
1
 44
0.5
 73
0
 45
1.0
 46
1.0
 77
1
  4

 78
1
 79
1
170
1
 48
1.0
171
1
  6

172
1
173
1
174
1
140
1.0
141
1.0
175
1
  7

176
1
177
1
178
1
143
1.0
179
1
  8

270
1
271
1
272
1
145
1.0
146
1.0
273
1
  9

274
1
275
1
276
1
 42
1.0
 72
1
  3

 73
1
 74
1
 75
1
 94
63
  0
MATERIAL
  5
20
102
{ACAD_REACTORS
330
E
102
}
330
E
100
AcDbMaterial
  1
ByLayer
  2

 70
0
 40
1.0
 71
1
 41
1.0
 91
-1023410177
 42
1.0
 72
1
  3

 73
1
 74
1
 75
1
 44
0.5
 73
0
 45
1.0
 46
1.0
 77
1
  4

 78
1
 79
1
170
1
 48
1.0
171
1
  6

172
1
173
1
174
1
140
1.0
141
1.0
175
1
  7

176
1
177
1
178
1
143
1.0
179
1
  8

270
1
271
1
272
1
145
1.0
146
1.0
273
1
  9

274
1
275
1
276
1
 42
1.0
 72
1
  3

 73
1
 74
1
 75
1
 94
63
  0
MATERIAL
  5
21
102
{ACAD_REACTORS
330
E
102
}
330
E
100
AcDbMaterial
  1
Global
  2

 70
0
 40
1.0
 71
1
 41
1.0
 91
-1023410177
 42
1.0
 72
1
  3

 73
1
 74
1
 75
1
 44
0.5
 73
0
 45
1.0
 46
1.0
 77
1
  4

 78
1
 79
1
170
1
 48
1.0
171
1
  6

172
1
173
1
174
1
140
1.0
141
1.0
175
1
  7

176
1
177
1
178
1
143
1.0
179
1
  8

270
1
271
1
272
1
145
1.0
146
1.0
273
1
  9

274
1
275
1
276
1
 42
1.0
 72
1
  3

 73
1
 74
1
 75
1
 94
63
  0
MLINESTYLE
  5
22
102
{ACAD_REACTORS
330
10
102
}
330
10
100
AcDbMlineStyle
  2
Standard
 70
0
  3

 62
256
 51
90.0
 52
90.0
 71
2
 49
0.5
 62
256
  6
BYLAYER
 49
-0.5
 62
256
  6
BYLAYER
  0
MLEADERSTYLE
  5
2C
102
{ACAD_REACTORS
330
F
102
}
330
F
100
AcDbMLeaderStyle
179
2
170
2
171
1
172
0
 90
2
 40
0.0
 41
0.0
173
1
 91
-1056964608
 92
-2
290
1
 42
2.0
291
1
 43
8.0
  3
Standard
 44
4.0
300

342
29
174
1
175
1
176
0
178
1
 93
-1056964608
 45
4.0
292
0
297
0
 46
4.0
 94
-1056964608
 47
1.0
 49
1.0
140
1.0
294
1
141
0.0
177
0
142
1.0
295
0
296
0
143
3.75
271
0
272
9
273
9
  0
DICTIONARY
  5
2D
330
A
100
AcDbDictionary
280
1
281
1
  3
CREATED_BY_EZDXF
350
2E
  3
WRITTEN_BY_EZDXF
350
20F
  0
DICTIONARYVAR
  5
2E
330
2D
100
DictionaryVariables
280
0
  1
1.4.4 @ 2026-09-13T12:24:44.875832+00:00
  0
VISUALSTYLE
  5
5A
102
{ACAD_REACTORS
330
16
102
}
330
16
100
AcDbVisualStyle
  2
2dWireframe
 70
4
177
3
291
0
 70
58
 90
2
176
1
 90
2
176
1
 90
0
176
1
 90
0
176
1
 40
0.6
176
1
 40
30.0
176
1
 62
7
420
16777215
176
1
 90
1
176
1
 90
4
176
1
 62
7
176
1
 62
257
176
1
 90
1
176
1
 90
1
176
1
 40
1.0
176
1
 90
8
176
1
 62
7
176
1
 40
1.0
176
1
 90
1
176
1
 90
6
176
1
 90
2
176
1
 62
7
176
1
 90
5
176
1
 90
0
176
1
 90
0
176
1
290
0
176
1
 90
1
176
1
 40
0.0
176
1
 90
0
176
1
290
1
176
1
290
1
176
1
290
0
176
1
290
0
176
1
290
0
176
1
290
0
176
1
290
0
176
1
290
0
176
1
290
0
176
1
 90
50
176
1
 40
0.0
176
1
 40
1.0
176
1
 90
0
176
1
 62
18
420
0
176
1
 90
50
176
1
 90
3
176
1
 62
5
420
255
176
1
290
0
176
1
 90
50
176
1
 90
50
176
1
 90
50
176
1
290
0
176
1
 90
50
176
1
 62
256
176
0
 40
1.0
176
0
 90
2
176
1
  1
strokes_ogs.tif
176
1
290
0
176
1
 40
1.0
176
1
 40
1.0
176
1
  0
VISUALSTYLE
  5
5B
102
{ACAD_REACTORS
330
16
102
}
330
16
100
AcDbVisualStyle
  2
Basic
 70
7
177
3
291
1
 70
58
 90
2
176
1
 90
2
176
1
 90
0
176
1
 90
1
176
1
 40
0.6
176
1
 40
30.0
176
1
 62
7
420
16777215
176
1
 90
1
176
1
 90
4
176
1
 62
7
176
1
 62
257
176
1
 90
1
176
1
 90
1
176
1
 40
1.0
176
1
 90
8
176
1
 62
7
176
1
 40
1.0
176
1
 90
1
176
1
 90
6
176
1
 90
2
176
1
 62
7
176
1
 90
5
176
1
 90
0
176
1
 90
0
176
1
290
0
176
1
 90
1
176
1
 40
0.0
176
1
 90
0
176
1
290
0
176
1
290
1
176
1
290
1
176
1
290
0
176
1
290
0
176
1
290
0
176
1
290
0
176
1
290
0
176
1
290
0
176
1
 90
50
176
1
 40
0.0
176
1
 40
1.0
176
1
 90
0
176
1
 62
18
420
0
176
1
 90
50
176
1
 90
3
176
1
 62
5
420
255
176
1
290
0
176
1
 90
50
176
1
 90
50
176
1
 90
50
176
1
290
0
176
1
 90
50
176
1
 62
256
176
0
 40
1.0
176
0
 90
2
176
1
  1
strokes_ogs.tif
176
1
290
0
176
1
 40
1.0
176
1
 40
1.0
176
1
  0
VISUALSTYLE
  5
5C
102
{ACAD_REACTORS
330
16
102
}
330
16
100
AcDbVisualStyle
  2
Brighten
 70
12
177
3
291
1
 70
58
 90
2
176
1
 90
2
176
1
 90
0
176
1
 90
2
176
1
 40
0.6
176
1
 40
30.0
176
1
 62
7
420
16777215
176
1
 90
1
176
1
 90
4
176
1
 62
7
176
1
 62
257
176
1
 90
1
176
1
 90
1
176
1
 40
1.0
176
1
 90
8
176
1
 62
7
176
1
 40
1.0
176
1
 90
1
176
1
 90
6
176
1
 90
2
176
1
 62
7
176
1
 90
5
176
1
 90
0
176
1
 90
0
176
1
290
0
176
1
 90
1
176
1
 40
0.0
176
1
 90
0
176
1
290
0
176
1
290
1
176
1
290
1
176
1
290
0
176
1
290
0
176
1
290
0
176
1
290
0
176
1
290
0
176
1
290
0
176
1
 90
50
176
1
 40
0.0
176
1
 40
1.0
176
1
 90
0
176
1
 62
18
420
0
176
1
 90
50
176
1
 90
3
176
1
 62
5
420
255
176
1
290
0
176
1
 90
50
176
1
 90
50
176
1
 90
50
176
1
290
0
176
1
 90
50
176
1
 62
256
176
0
 40
1.0
176
0
 90
2
176
1
  1
strokes_ogs.tif
176
1
290
0
176
1
 40
1.0
176
1
 40
1.0
176
1
  0
VISUALSTYLE
  5
5D
102
{ACAD_REACTORS
330
16
102
}
330
16
100
AcDbVisualStyle
  2
ColorChange
 70
16
177
3
291
1
 70
58
 90
2
176
1
 90
2
176
1
 90
0
176
1
 90
2
176
1
 40
0.6
176
1
 40
30.0
176
1
 62
7
420
16777215
176
1
 90
1
176
1
 90
4
176
1
 62
7
176
1
 62
257
176
1
 90
1
176
1
 90
1
176
1
 40
1.0
176
1
 90
8
176
1
 62
7
176
1
 40
1.0
176
1
 90
1
176
1
 90
6
176
1
 90
2
176
1
 62
7
176
1
 90
5
176
1
 90
0
176
1
 90
0
176
1
290
0
176
1
 90
1
176
1
 40
0.0
176
1
 90
0
176
1
290
0
176
1
290
1
176
1
290
1
176
1
290
0
176
1
290
0
176
1
290
0
176
1
290
0
176
1
290
0
176
1
290
0
176
1
 90
50
176
1
 40
0.0
176
1
 40
1.0
176
1
 90
0
176
1
 62
18
420
0
176
1
 90
50
176
1
 90
3
176
1
 62
5
420
255
176
1
290
0
176
1
 90
50
176
1
 90
50
176
1
 90
50
176
1
290
0
176
1
 90
50
176
1
 62
256
176
0
 40
1.0
176
0
 90
2
176
1
  1
strokes_ogs.tif
176
1
290
0
176
1
 40
1.0
176
1
 40
1.0
176
1
  0
VISUALSTYLE
  5
5E
102
{ACAD_REACTORS
330
16
102
}
330
16
100
AcDbVisualStyle
  2
Conceptual
 70
9
177
3
291
0
 70
58
 90
2
176
1
 90
2
176
1
 90
0
176
1
 90
3
176
1
 40
0.6
176
1
 40
30.0
176
1
 62
7
420
16777215
176
1
 90
1
176
1
 90
4
176
1
 62
7
176
1
 62
257
176
1
 90
1
176
1
 90
1
176
1
 40
1.0
176
1
 90
8
176
1
 62
7
176
1
 40
1.0
176
1
 90
1
176
1
 90
6
176
1
 90
2
176
1
 62
7
176
1
 90
5
176
1
 90
0
176
1
 90
0
176
1
290
0
176
1
 90
1
176
1
 40
0.0
176
1
 90
0
176
1
290
0
176
1
290
1
176
1
290
1
176
1
290
0
176
1
290
0
176
1
290
0
176
1
290
0
176
1
290
0
176
1
290
0
176
1
 90
50
176
1
 40
0.0
176
1
 40
1.0
176
1
 90
0
176
1
 62
18
420
0
176
1
 90
50
176
1
 90
3
176
1
 62
5
420
255
176
1
290
0
176
1
 90
50
176
1
 90
50
176
1
 90
50
176
1
290
0
176
1
 90
50
176
1
 62
256
176
0
 40
1.0
176
0
 90
2
176
1
  1
strokes_ogs.tif
176
1
290
0
176
1
 40
1.0
176
1
 40
1.0
176
1
  0
VISUALSTYLE
  5
5F
102
{ACAD_REACTORS
330
16
102
}
330
16
100
AcDbVisualStyle
  2
Dim
 70
11
177
3
291
1
 70
58
 90
2
176
1
 90
2
176
1
 90
0
176
1
 90
2
176
1
 40
0.6
176
1
 40
30.0
176
1
 62
7
420
16777215
176
1
 90
1
176
1
 90
4
176
1
 62
7
176
1
 62
257
176
1
 90
1
176
1
 90
1
176
1
 40
1.0
176
1
 90
8
176
1
 62
7
176
1
 40
1.0
176
1
 90
1
176
1
 90
6
176
1
 90
2
176
1
 62
7
176
1
 90
5
176
1
 90
0
176
1
 90
0
176
1
290
0
176
1
 90
1
176
1
 40
0.0
176
1
 90
0
176
1
290
0
176
1
290
1
176
1
290
1
176
1
290
0
176
1
290
0
176
1
290
0
176
1
290
0
176
1
290
0
176
1
290
0
176
1
 90
50
176
1
 40
0.0
176
1
 40
1.0
176
1
 90
0
176
1
 62
18
420
0
176
1
 90
50
176
1
 90
3
176
1
 62
5
420
255
176
1
290
0
176
1
 90
50
176
1
 90
50
176
1
 90
50
176
1
290
0
176
1
 90
50
176
1
 62
256
176
0
 40
1.0
176
0
 90
2
176
1
  1
strokes_ogs.tif
176
1
290
0
176
1
 40
1.0
176
1
 40
1.0
176
1
  0
VISUALSTYLE
  5
60
102
{ACAD_REACTORS
330
16
102
}
330
16
100
AcDbVisualStyle
  2
EdgeColorOff
 70
22
177
3
291
1
 70
58
 90
2
176
1
 90
2
176
1
 90
0
176
1
 90
2
176
1
 40
0.6
176
1
 40
30.0
176
1
 62
7
420
16777215
176
1
 90
1
176
1
 90
4
176
1
 62
7
176
1
 62
257
176
1
 90
1
176
1
 90
1
176
1
 40
1.0
176
1
 90
8
176
1
 62
7
176
1
 40
1.0
176
1
 90
1
176
1
 90
6
176
1
 90
2
176
1
 62
7
176
1
 90
5
176
1
 90
0
176
1
 90
0
176
1
290
0
176
1
 90
1
176
1
 40
0.0
176
1
 90
0
176
1
290
0
176
1
290
1
176
1
290
1
176
1
290
0
176
1
290
0
176
1
290
0
176
1
290
0
176
1
290
0
176
1
290
0
176
1
 90
50
176
1
 40
0.0
176
1
 40
1.0
176
1
 90
0
176
1
 62
18
420
0
176
1
 90
50
176
1
 90
3
176
1
 62
5
420
255
176
1
290
0
176
1
 90
50
176
1
 90
50
176
1
 90
50
176
1
290
0
176
1
 90
50
176
1
 62
256
176
0
 40
1.0
176
0
 90
2
176
1
  1
strokes_ogs.tif
176
1
290
0
176
1
 40
1.0
176
1
 40
1.0
176
1
  0
VISUALSTYLE
  5
61
102
{ACAD_REACTORS
330
16
102
}
330
16
100
AcDbVisualStyle
  2
Facepattern
 70
15
177
3
291
1
 70
58
 90
2
176
1
 90
2
176
1
 90
0
176
1
 90
2
176
1
 40
0.6
176
1
 40
30.0
176
1
 62
7
420
16777215
176
1
 90
1
176
1
 90
4
176
1
 62
7
176
1
 62
257
176
1
 90
1
176
1
 90
1
176
1
 40
1.0
176
1
 90
8
176
1
 62
7
176
1
 40
1.0
176
1
 90
1
176
1
 90
6
176
1
 90
2
176
1
 62
7
176
1
 90
5
176
1
 90
0
176
1
 90
0
176
1
290
0
176
1
 90
1
176
1
 40
0.0
176
1
 90
0
176
1
290
0
176
1
290
1
176
1
290
1
176
1
290
0
176
1
290
0
176
1
290
0
176
1
290
0
176
1
290
0
176
1
290
0
176
1
 90
50
176
1
 40
0.0
176
1
 40
1.0
176
1
 90
0
176
1
 62
18
420
0
176
1
 90
50
176
1
 90
3
176
1
 62
5
420
255
176
1
290
0
176
1
 90
50
176
1
 90
50
176
1
 90
50
176
1
290
0
176
1
 90
50
176
1
 62
256
176
0
 40
1.0
176
0
 90
2
176
1
  1
strokes_ogs.tif
176
1
290
0
176
1
 40
1.0
176
1
 40
1.0
176
1
  0
VISUALSTYLE
  5
62
102
{ACAD_REACTORS
330
16
102
}
330
16
100
AcDbVisualStyle
  2
Flat
 70
0
177
3
291
1
 70
58
 90
2
176
1
 90
2
176
1
 90
0
176
1
 90
2
176
1
 40
0.6
176
1
 40
30.0
176
1
 62
7
420
16777215
176
1
 90
1
176
1
 90
4
176
1
 62
7
176
1
 62
257
176
1
 90
1
176
1
 90
1
176
1
 40
1.0
176
1
 90
8
176
1
 62
7
176
1
 40
1.0
176
1
 90
1
176
1
 90
6
176
1
 90
2
176
1
 62
7
176
1
 90
5
176
1
 90
0
176
1
 90
0
176
1
290
0
176
1
 90
1
176
1
 40
0.0
176
1
 90
0
176
1
290
0
176
1
290
1
176
1
290
1
176
1
290
0
176
1
290
0
176
1
290
0
176
1
290
0
176
1
290
0
176
1
290
0
176
1
 90
50
176
1
 40
0.0
176
1
 40
1.0
176
1
 90
0
176
1
 62
18
420
0
176
1
 90
50
176
1
 90
3
176
1
 62
5
420
255
176
1
290
0
176
1
 90
50
176
1
 90
50
176
1
 90
50
176
1
290
0
176
1
 90
50
176
1
 62
256
176
0
 40
1.0
176
0
 90
2
176
1
  1
strokes_ogs.tif
176
1
290
0
176
1
 40
1.0
176
1
 40
1.0
176
1
  0
VISUALSTYLE
  5
63
102
{ACAD_REACTORS
330
16
102
}
330
16
100
AcDbVisualStyle
  2
FlatWithEdges
 70
1
177
3
291
1
 70
58
 90
2
176
1
 90
2
176
1
 90
0
176
1
 90
2
176
1
 40
0.6
176
1
 40
30.0
176
1
 62
7
420
16777215
176
1
 90
1
176
1
 90
4
176
1
 62
7
176
1
 62
257
176
1
 90
1
176
1
 90
1
176
1
 40
1.0
176
1
 90
8
176
1
 62
7
176
1
 40
1.0
176
1
 90
1
176
1
 90
6
176
1
 90
2
176
1
 62
7
176
1
 90
5
176
1
 90
0
176
1
 90
0
176
1
290
0
176
1
 90
1
176
1
 40
0.0
176
1
 90
0
176
1
290
0
176
1
290
1
176
1
290
1
176
1
290
0
176
1
290
0
176
1
290
0
176
1
290
0
176
1
290
0
176
1
290
0
176
1
 90
50
176
1
 40
0.0
176
1
 40
1.0
176
1
 90
0
176
1
 62
18
420
0
176
1
 90
50
176
1
 90
3
176
1
 62
5
420
255
176
1
290
0
176
1
 90
50
176
1
 90
50
176
1
 90
50
176
1
290
0
176
1
 90
50
176
1
 62
256
176
0
 40
1.0
176
0
 90
2
176
1
  1
strokes_ogs.tif
176
1
290
0
176
1
 40
1.0
176
1
 40
1.0
176
1
  0
VISUALSTYLE
  5
64
102
{ACAD_REACTORS
330
16
102
}
330
16
100
AcDbVisualStyle
  2
Gouraud
 70
2
177
3
291
1
 70
58
 90
2
176
1
 90
2
176
1
 90
0
176
1
 90
2
176
1
 40
0.6
176
1
 40
30.0
176
1
 62
7
420
16777215
176
1
 90
1
176
1
 90
4
176
1
 62
7
176
1
 62
257
176
1
 90
1
176
1
 90
1
176
1
 40
1.0
176
1
 90
8
176
1
 62
7
176
1
 40
1.0
176
1
 90
1
176
1
 90
6
176
1
 90
2
176
1
 62
7
176
1
 90
5
176
1
 90
0
176
1
 90
0
176
1
290
0
176
1
 90
1
176
1
 40
0.0
176
1
 90
0
176
1
290
0
176
1
290
1
176
1
290
1
176
1
290
0
176
1
290
0
176
1
290
0
176
1
290
0
176
1
290
0
176
1
290
0
176
1
 90
50
176
1
 40
0.0
176
1
 40
1.0
176
1
 90
0
176
1
 62
18
420
0
176
1
 90
50
176
1
 90
3
176
1
 62
5
420
255
176
1
290
0
176
1
 90
50
176
1
 90
50
176
1
 90
50
176
1
290
0
176
1
 90
50
176
1
 62
256
176
0
 40
1.0
176
0
 90
2
176
1
  1
strokes_ogs.tif
176
1
290
0
176
1
 40
1.0
176
1
 40
1.0
176
1
  0
VISUALSTYLE
  5
65
102
{ACAD_REACTORS
330
16
102
}
330
16
100
AcDbVisualStyle
  2
GouraudWithEdges
 70
3
177
3
291
1
 70
58
 90
2
176
1
 90
2
176
1
 90
0
176
1
 90
2
176
1
 40
0.6
176
1
 40
30.0
176
1
 62
7
420
16777215
176
1
 90
1
176
1
 90
4
176
1
 62
7
176
1
 62
257
176
1
 90
1
176
1
 90
1
176
1
 40
1.0
176
1
 90
8
176
1
 62
7
176
1
 40
1.0
176
1
 90
1
176
1
 90
6
176
1
 90
2
176
1
 62
7
176
1
 90
5
176
1
 90
0
176
1
 90
0
176
1
290
0
176
1
 90
1
176
1
 40
0.0
176
1
 90
0
176
1
290
0
176
1
290
1
176
1
290
1
176
1
290
0
176
1
290
0
176
1
290
0
176
1
290
0
176
1
290
0
176
1
290
0
176
1
 90
50
176
1
 40
0.0
176
1
 40
1.0
176
1
 90
0
176
1
 62
18
420
0
176
1
 90
50
176
1
 90
3
176
1
 62
5
420
255
176
1
290
0
176
1
 90
50
176
1
 90
50
176
1
 90
50
176
1
290
0
176
1
 90
50
176
1
 62
256
176
0
 40
1.0
176
0
 90
2
176
1
  1
strokes_ogs.tif
176
1
290
0
176
1
 40
1.0
176
1
 40
1.0
176
1
  0
VISUALSTYLE
  5
66
102
{ACAD_REACTORS
330
16
102
}
330
16
100
AcDbVisualStyle
  2
Hidden
 70
6
177
3
291
0
 70
58
 90
2
176
1
 90
2
176
1
 90
0
176
1
 90
1
176
1
 40
0.6
176
1
 40
30.0
176
1
 62
7
420
16777215
176
1
 90
1
176
1
 90
4
176
1
 62
7
176
1
 62
257
176
1
 90
1
176
1
 90
1
176
1
 40
1.0
176
1
 90
8
176
1
 62
7
176
1
 40
1.0
176
1
 90
1
176
1
 90
6
176
1
 90
2
176
1
 62
7
176
1
 90
5
176
1
 90
0
176
1
 90
0
176
1
290
0
176
1
 90
1
176
1
 40
0.0
176
1
 90
0
176
1
290
0
176
1
290
1
176
1
290
1
176
1
290
0
176
1
290
0
176
1
290
0
176
1
290
0
176
1
290
0
176
1
290
0
176
1
 90
50
176
1
 40
0.0
176
1
 40
1.0
176
1
 90
0
176
1
 62
18
420
0
176
1
 90
50
176
1
 90
3
176
1
 62
5
420
255
176
1
290
0
176
1
 90
50
176
1
 90
50
176
1
 90
50
176
1
290
0
176
1
 90
50
176
1
 62
256
176
0
 40
1.0
176
0
 90
2
176
1
  1
strokes_ogs.tif
176
1
290
0
176
1
 40
1.0
176
1
 40
1.0
176
1
  0
VISUALSTYLE
  5
67
102
{ACAD_REACTORS
330
16
102
}
330
16
100
AcDbVisualStyle
  2
JitterOff
 70
20
177
3
291
1
 70
58
 90
2
176
1
 90
2
176
1
 90
0
176
1
 90
2
176
1
 40
0.6
176
1
 40
30.0
176
1
 62
7
420
16777215
176
1
 90
1
176
1
 90
4
176
1
 62
7
176
1
 62
257
176
1
 90
1
176
1
 90
1
176
1
 40
1.0
176
1
 90
8
176
1
 62
7
176
1
 40
1.0
176
1
 90
1
176
1
 90
6
176
1
 90
2
176
1
 62
7
176
1
 90
5
176
1
 90
0
176
1
 90
0
176
1
290
0
176
1
 90
1
176
1
 40
0.0
176
1
 90
0
176
1
290
0
176
1
290
1
176
1
290
1
176
1
290
0
176
1
290
0
176
1
290
0
176
1
290
0
176
1
290
0
176
1
290
0
176
1
 90
50
176
1
 40
0.0
176
1
 40
1.0
176
1
 90
0
176
1
 62
18
420
0
176
1
 90
50
176
1
 90
3
176
1
 62
5
420
255
176
1
290
0
176
1
 90
50
176
1
 90
50
176
1
 90
50
176
1
290
0
176
1
 90
50
176
1
 62
256
176
0
 40
1.0
176
0
 90
2
176
1
  1
strokes_ogs.tif
176
1
290
0
176
1
 40
1.0
176
1
 40
1.0
176
1
  0
VISUALSTYLE
  5
68
102
{ACAD_REACTORS
330
16
102
}
330
16
100
AcDbVisualStyle
  2
Linepattern
 70
14
177
3
291
1
 70
58
 90
2
176
1
 90
2
176
1
 90
0
176
1
 90
2
176
1
 40
0.6
176
1
 40
30.0
176
1
 62
7
420
16777215
176
1
 90
1
176
1
 90
4
176
1
 62
7
176
1
 62
257
176
1
 90
1
176
1
 90
1
176
1
 40
1.0
176
1
 90
8
176
1
 62
7
176
1
 40
1.0
176
1
 90
1
176
1
 90
6
176
1
 90
2
176
1
 62
7
176
1
 90
5
176
1
 90
0
176
1
 90
0
176
1
290
0
176
1
 90
1
176
1
 40
0.0
176
1
 90
0
176
1
290
0
176
1
290
1
176
1
290
1
176
1
290
0
176
1
290
0
176
1
290
0
176
1
290
0
176
1
290
0
176
1
290
0
176
1
 90
50
176
1
 40
0.0
176
1
 40
1.0
176
1
 90
0
176
1
 62
18
420
0
176
1
 90
50
176
1
 90
3
176
1
 62
5
420
255
176
1
290
0
176
1
 90
50
176
1
 90
50
176
1
 90
50
176
1
290
0
176
1
 90
50
176
1
 62
256
176
0
 40
1.0
176
0
 90
2
176
1
  1
strokes_ogs.tif
176
1
290
0
176
1
 40
1.0
176
1
 40
1.0
176
1
  0
VISUALSTYLE
  5
69
102
{ACAD_REACTORS
330
16
102
}
330
16
100
AcDbVisualStyle
  2
Modeling
 70
10
177
3
291
0
 70
58
 90
2
176
1
 90
2
176
1
 90
0
176
1
 90
2
176
1
 40
0.6
176
1
 40
30.0
176
1
 62
7
420
16777215
176
1
 90
1
176
1
 90
4
176
1
 62
7
176
1
 62
257
176
1
 90
1
176
1
 90
1
176
1
 40
1.0
176
1
 90
8
176
1
 62
7
176
1
 40
1.0
176
1
 90
1
176
1
 90
6
176
1
 90
2
176
1
 62
7
176
1
 90
5
176
1
 90
0
176
1
 90
0
176
1
290
0
176
1
 90
1
176
1
 40
0.0
176
1
 90
0
176
1
290
0
176
1
290
1
176
1
290
1
176
1
290
0
176
1
290
0
176
1
290
0
176
1
290
0
176
1
290
0
176
1
290
0
176
1
 90
50
176
1
 40
0.0
176
1
 40
1.0
176
1
 90
0
176
1
 62
18
420
0
176
1
 90
50
176
1
 90
3
176
1
 62
5
420
255
176
1
290
0
176
1
 90
50
176
1
 90
50
176
1
 90
50
176
1
290
0
176
1
 90
50
176
1
 62
256
176
0
 40
1.0
176
0
 90
2
176
1
  1
strokes_ogs.tif
176
1
290
0
176
1
 40
1.0
176
1
 40
1.0
176
1
  0
VISUALSTYLE
  5
6A
102
{ACAD_REACTORS
330
16
102
}
330
16
100
AcDbVisualStyle
  2
OverhangOff
 70
21
177
3
291
1
 70
58
 90
2
176
1
 90
2
176
1
 90
0
176
1
 90
2
176
1
 40
0.6
176
1
 40
30.0
176
1
 62
7
420
16777215
176
1
 90
1
176
1
 90
4
176
1
 62
7
176
1
 62
257
176
1
 90
1
176
1
 90
1
176
1
 40
1.0
176
1
 90
8
176
1
 62
7
176
1
 40
1.0
176
1
 90
1
176
1
 90
6
176
1
 90
2
176
1
 62
7
176
1
 90
5
176
1
 90
0
176
1
 90
0
176
1
290
0
176
1
 90
1
176
1
 40
0.0
176
1
 90
0
176
1
290
0
176
1
290
1
176
1
290
1
176
1
290
0
176
1
290
0
176
1
290
0
176
1
290
0
176
1
290
0
176
1
290
0
176
1
 90
50
176
1
 40
0.0
176
1
 40
1.0
176
1
 90
0
176
1
 62
18
420
0
176
1
 90
50
176
1
 90
3
176
1
 62
5
420
255
176
1
290
0
176
1
 90
50
176
1
 90
50
176
1
 90
50
176
1
290
0
176
1
 90
50
176
1
 62
256
176
0
 40
1.0
176
0
 90
2
176
1
  1
strokes_ogs.tif
176
1
290
0
176
1
 40
1.0
176
1
 40
1.0
176
1
  0
VISUALSTYLE
  5
6B
102
{ACAD_REACTORS
330
16
102
}
330
16
100
AcDbVisualStyle
  2
Realistic
 70
8
177
3
291
0
 70
58
 90
2
176
1
 90
2
176
1
 90
0
176
1
 90
2
176
1
 40
0.6
176
1
 40
30.0
176
1
 62
7
420
16777215
176
1
 90
1
176
1
 90
4
176
1
 62
7
176
1
 62
257
176
1
 90
1
176
1
 90
1
176
1
 40
1.0
176
1
 90
8
176
1
 62
7
176
1
 40
1.0
176
1
 90
1
176
1
 90
6
176
1
 90
2
176
1
 62
7
176
1
 90
5
176
1
 90
0
176
1
 90
0
176
1
290
0
176
1
 90
1
176
1
 40
0.0
176
1
 90
0
176
1
290
0
176
1
290
1
176
1
290
1
176
1
290
0
176
1
290
0
176
1
290
0
176
1
290
0
176
1
290
0
176
1
290
0
176
1
 90
50
176
1
 40
0.0
176
1
 40
1.0
176
1
 90
0
176
1
 62
18
420
0
176
1
 90
50
176
1
 90
3
176
1
 62
5
420
255
176
1
290
0
176
1
 90
50
176
1
 90
50
176
1
 90
50
176
1
290
0
176
1
 90
50
176
1
 62
256
176
0
 40
1.0
176
0
 90
2
176
1
  1
strokes_ogs.tif
176
1
290
0
176
1
 40
1.0
176
1
 40
1.0
176
1
  0
VISUALSTYLE
  5
6C
102
{ACAD_REACTORS
330
16
102
}
330
16
100
AcDbVisualStyle
  2
Shaded
 70
27
177
3
291
0
 70
58
 90
2
176
1
 90
2
176
1
 90
0
176
1
 90
2
176
1
 40
0.6
176
1
 40
30.0
176
1
 62
7
420
16777215
176
1
 90
1
176
1
 90
4
176
1
 62
7
176
1
 62
257
176
1
 90
1
176
1
 90
1
176
1
 40
1.0
176
1
 90
8
176
1
 62
7
176
1
 40
1.0
176
1
 90
1
176
1
 90
6
176
1
 90
2
176
1
 62
7
176
1
 90
5
176
1
 90
0
176
1
 90
0
176
1
290
0
176
1
 90
1
176
1
 40
0.0
176
1
 90
0
176
1
290
0
176
1
290
1
176
1
290
1
176
1
290
0
176
1
290
0
176
1
290
0
176
1
290
0
176
1
290
0
176
1
290
0
176
1
 90
50
176
1
 40
0.0
176
1
 40
1.0
176
1
 90
0
176
1
 62
18
420
0
176
1
 90
50
176
1
 90
3
176
1
 62
5
420
255
176
1
290
0
176
1
 90
50
176
1
 90
50
176
1
 90
50
176
1
290
0
176
1
 90
50
176
1
 62
256
176
0
 40
1.0
176
0
 90
2
176
1
  1
strokes_ogs.tif
176
1
290
0
176
1
 40
1.0
176
1
 40
1.0
176
1
  0
VISUALSTYLE
  5
6D
102
{ACAD_REACTORS
330
16
102
}
330
16
100
AcDbVisualStyle
  2
Shaded with edges
 70
26
177
3
291
0
 70
58
 90
2
176
1
 90
2
176
1
 90
0
176
1
 90
2
176
1
 40
0.6
176
1
 40
30.0
176
1
 62
7
420
16777215
176
1
 90
1
176
1
 90
4
176
1
 62
7
176
1
 62
257
176
1
 90
1
176
1
 90
1
176
1
 40
1.0
176
1
 90
8
176
1
 62
7
176
1
 40
1.0
176
1
 90
1
176
1
 90
6
176
1
 90
2
176
1
 62
7
176
1
 90
5
176
1
 90
0
176
1
 90
0
176
1
290
0
176
1
 90
1
176
1
 40
0.0
176
1
 90
0
176
1
290
0
176
1
290
1
176
1
290
1
176
1
290
0
176
1
290
0
176
1
290
0
176
1
290
0
176
1
290
0
176
1
290
0
176
1
 90
50
176
1
 40
0.0
176
1
 40
1.0
176
1
 90
0
176
1
 62
18
420
0
176
1
 90
50
176
1
 90
3
176
1
 62
5
420
255
176
1
290
0
176
1
 90
50
176
1
 90
50
176
1
 90
50
176
1
290
0
176
1
 90
50
176
1
 62
256
176
0
 40
1.0
176
0
 90
2
176
1
  1
strokes_ogs.tif
176
1
290
0
176
1
 40
1.0
176
1
 40
1.0
176
1
  0
VISUALSTYLE
  5
6E
102
{ACAD_REACTORS
330
16
102
}
330
16
100
AcDbVisualStyle
  2
Shades of Gray
 70
23
177
3
291
0
 70
58
 90
2
176
1
 90
2
176
1
 90
0
176
1
 90
2
176
1
 40
0.6
176
1
 40
30.0
176
1
 62
7
420
16777215
176
1
 90
1
176
1
 90
4
176
1
 62
7
176
1
 62
257
176
1
 90
1
176
1
 90
1
176
1
 40
1.0
176
1
 90
8
176
1
 62
7
176
1
 40
1.0
176
1
 90
1
176
1
 90
6
176
1
 90
2
176
1
 62
7
176
1
 90
5
176
1
 90
0
176
1
 90
0
176
1
290
0
176
1
 90
1
176
1
 40
0.0
176
1
 90
0
176
1
290
0
176
1
290
1
176
1
290
1
176
1
290
0
176
1
290
0
176
1
290
0
176
1
290
0
176
1
290
0
176
1
290
0
176
1
 90
50
176
1
 40
0.0
176
1
 40
1.0
176
1
 90
0
176
1
 62
18
420
0
176
1
 90
50
176
1
 90
3
176
1
 62
5
420
255
176
1
290
0
176
1
 90
50
176
1
 90
50
176
1
 90
50
176
1
290
0
176
1
 90
50
176
1
 62
256
176
0
 40
1.0
176
0
 90
2
176
1
  1
strokes_ogs.tif
176
1
290
0
176
1
 40
1.0
176
1
 40
1.0
176
1
  0
VISUALSTYLE
  5
6F
102
{ACAD_REACTORS
330
16
102
}
330
16
100
AcDbVisualStyle
  2
Sketchy
 70
24
177
3
291
0
 70
58
 90
2
176
1
 90
2
176
1
 90
0
176
1
 90
1
176
1
 40
0.6
176
1
 40
30.0
176
1
 62
7
420
16777215
176
1
 90
1
176
1
 90
4
176
1
 62
7
176
1
 62
257
176
1
 90
1
176
1
 90
1
176
1
 40
1.0
176
1
 90
8
176
1
 62
7
176
1
 40
1.0
176
1
 90
1
176
1
 90
6
176
1
 90
2
176
1
 62
7
176
1
 90
5
176
1
 90
0
176
1
 90
0
176
1
290
0
176
1
 90
1
176
1
 40
0.0
176
1
 90
0
176
1
290
0
176
1
290
1
176
1
290
1
176
1
290
0
176
1
290
0
176
1
290
0
176
1
290
0
176
1
290
0
176
1
290
0
176
1
 90
50
176
1
 40
0.0
176
1
 40
1.0
176
1
 90
0
176
1
 62
18
420
0
176
1
 90
50
176
1
 90
3
176
1
 62
5
420
255
176
1
290
0
176
1
 90
50
176
1
 90
50
176
1
 90
50
176
1
290
0
176
1
 90
50
176
1
 62
256
176
0
 40
1.0
176
0
 90
2
176
1
  1
strokes_ogs.tif
176
1
290
0
176
1
 40
1.0
176
1
 40
1.0
176
1
  0
VISUALSTYLE
  5
70
102
{ACAD_REACTORS
330
16
102
}
330
16
100
AcDbVisualStyle
  2
Thicken
 70
13
177
3
291
1
 70
58
 90
2
176
1
 90
2
176
1
 90
0
176
1
 90
2
176
1
 40
0.6
176
1
 40
30.0
176
1
 62
7
420
16777215
176
1
 90
1
176
1
 90
4
176
1
 62
7
176
1
 62
257
176
1
 90
1
176
1
 90
1
176
1
 40
1.0
176
1
 90
8
176
1
 62
7
176
1
 40
1.0
176
1
 90
1
176
1
 90
6
176
1
 90
2
176
1
 62
7
176
1
 90
5
176
1
 90
0
176
1
 90
0
176
1
290
0
176
1
 90
1
176
1
 40
0.0
176
1
 90
0
176
1
290
0
176
1
290
1
176
1
290
1
176
1
290
0
176
1
290
0
176
1
290
0
176
1
290
0
176
1
290
0
176
1
290
0
176
1
 90
50
176
1
 40
0.0
176
1
 40
1.0
176
1
 90
0
176
1
 62
18
420
0
176
1
 90
50
176
1
 90
3
176
1
 62
5
420
255
176
1
290
0
176
1
 90
50
176
1
 90
50
176
1
 90
50
176
1
290
0
176
1
 90
50
176
1
 62
256
176
0
 40
1.0
176
0
 90
2
176
1
  1
strokes_ogs.tif
176
1
290
0
176
1
 40
1.0
176
1
 40
1.0
176
1
  0
VISUALSTYLE
  5
71
102
{ACAD_REACTORS
330
16
102
}
330
16
100
AcDbVisualStyle
  2
Wireframe
 70
5
177
3
291
0
 70
58
 90
2
176
1
 90
2
176
1
 90
0
176
1
 90
0
176
1
 40
0.6
176
1
 40
30.0
176
1
 62
7
420
16777215
176
1
 90
1
176
1
 90
4
176
1
 62
7
176
1
 62
257
176
1
 90
1
176
1
 90
1
176
1
 40
1.0
176
1
 90
8
176
1
 62
7
176
1
 40
1.0
176
1
 90
1
176
1
 90
6
176
1
 90
2
176
1
 62
7
176
1
 90
5
176
1
 90
0
176
1
 90
0
176
1
290
0
176
1
 90
1
176
1
 40
0.0
176
1
 90
0
176
1
290
0
176
1
290
1
176
1
290
1
176
1
290
0
176
1
290
0
176
1
290
0
176
1
290
0
176
1
290
0
176
1
290
0
176
1
 90
50
176
1
 40
0.0
176
1
 40
1.0
176
1
 90
0
176
1
 62
18
420
0
176
1
 90
50
176
1
 90
3
176
1
 62
5
420
255
176
1
290
0
176
1
 90
50
176
1
 90
50
176
1
 90
50
176
1
290
0
176
1
 90
50
176
1
 62
256
176
0
 40
1.0
176
0
 90
2
176
1
  1
strokes_ogs.tif
176
1
290
0
176
1
 40
1.0
176
1
 40
1.0
176
1
  0
VISUALSTYLE
  5
72
102
{ACAD_REACTORS
330
16
102
}
330
16
100
AcDbVisualStyle
  2
X-Ray
 70
25
177
3
291
0
 70
58
 90
2
176
1
 90
2
176
1
 90
0
176
1
 90
2
176
1
 40
0.5
176
1
 40
30.0
176
1
 62
7
420
16777215
176
1
 90
1
176
1
 90
4
176
1
 62
7
176
1
 62
257
176
1
 90
1
176
1
 90
1
176
1
 40
1.0
176
1
 90
8
176
1
 62
7
176
1
 40
1.0
176
1
 90
1
176
1
 90
6
176
1
 90
2
176
1
 62
7
176
1
 90
5
176
1
 90
0
176
1
 90
0
176
1
290
0
176
1
 90
1
176
1
 40
0.0
176
1
 90
0
176
1
290
0
176
1
290
1
176
1
290
1
176
1
290
0
176
1
290
0
176
1
290
0
176
1
290
0
176
1
290
0
176
1
290
0
176
1
 90
50
176
1
 40
0.0
176
1
 40
1.0
176
1
 90
0
176
1
 62
18
420
0
176
1
 90
50
176
1
 90
3
176
1
 62
5
420
255
176
1
290
0
176
1
 90
50
176
1
 90
50
176
1
 90
50
176
1
290
0
176
1
 90
50
176
1
 62
256
176
0
 40
1.0
176
0
 90
2
176
1
  1
strokes_ogs.tif
176
1
290
0
176
1
 40
1.0
176
1
 40
1.0
176
1
  0
DICTIONARYVAR
  5
20F
330
2D
100
DictionaryVariables
280
0
  1
1.4.4 @ 2026-09-13T12:24:45.022742+00:00
  0
ENDSEC
  0
EOF
